<?xml version="1.0" encoding="utf-8"?>
<!-- Generator: Adobe Illustrator 16.0.0, SVG Export Plug-In . SVG Version: 6.00 Build 0)  -->
<!DOCTYPE svg PUBLIC "-//W3C//DTD SVG 1.1//EN" "http://www.w3.org/Graphics/SVG/1.1/DTD/svg11.dtd">
<svg version="1.1" id="Capa_1" xmlns="http://www.w3.org/2000/svg" xmlns:xlink="http://www.w3.org/1999/xlink" x="0px" y="0px"
	 width="48px" height="45.001px" viewBox="126 127.5 48 45.001" enable-background="new 126 127.5 48 45.001" xml:space="preserve">
<g>
	<g>
		<g>
			<linearGradient id="SVGID_1_" gradientUnits="userSpaceOnUse" x1="126.0818" y1="160.4912" x2="173.9218" y2="160.6512">
				<stop  offset="0" style="stop-color:#47DD57"/>
				<stop  offset="1" style="stop-color:#A8E854"/>
			</linearGradient>
			<path fill="url(#SVGID_1_)" d="M130.5,148.5h-3c-0.828,0-1.5,0.672-1.5,1.5v21c0,0.828,0.672,1.5,1.5,1.5h3
				c0.828,0,1.5-0.672,1.5-1.5v-21C132,149.172,131.328,148.5,130.5,148.5z"/>
		</g>
	</g>
	<g>
		<g>
			<linearGradient id="SVGID_2_" gradientUnits="userSpaceOnUse" x1="126.0837" y1="159.6621" x2="173.9237" y2="159.8221">
				<stop  offset="0" style="stop-color:#47DD57"/>
				<stop  offset="1" style="stop-color:#A8E854"/>
			</linearGradient>
			<path fill="url(#SVGID_2_)" d="M173.052,151.737c-1.524-1.965-4.356-2.316-6.312-0.789l-11.064,8.604
				c-0.792,0.615-1.764,0.948-2.763,0.948H142.5c4.143,0,7.5-3.357,7.5-7.5c0-0.828-0.672-1.5-1.5-1.5H135v9v9h19.968
				c1.668,0,3.288-0.556,4.605-1.581l12.689-9.87C174.225,156.525,174.577,153.699,173.052,151.737z"/>
		</g>
	</g>
	<g>
		<g>
			<linearGradient id="SVGID_3_" gradientUnits="userSpaceOnUse" x1="126.1775" y1="131.9155" x2="174.0175" y2="132.0755">
				<stop  offset="0" style="stop-color:#47DD57"/>
				<stop  offset="1" style="stop-color:#A8E854"/>
			</linearGradient>
			<path fill="url(#SVGID_3_)" d="M151.501,127.5c-2.481,0-4.5,2.019-4.5,4.5s2.019,4.5,4.5,4.5c2.48,0,4.5-2.019,4.5-4.5
				S153.981,127.5,151.501,127.5z M151.501,133.5c-0.828,0-1.5-0.672-1.5-1.5c0-0.828,0.672-1.5,1.5-1.5c0.827,0,1.5,0.672,1.5,1.5
				C153.001,132.828,152.328,133.5,151.501,133.5z"/>
		</g>
	</g>
	<g>
		<g>
			<linearGradient id="SVGID_4_" gradientUnits="userSpaceOnUse" x1="126.1375" y1="143.8853" x2="173.9774" y2="144.0453">
				<stop  offset="0" style="stop-color:#47DD57"/>
				<stop  offset="1" style="stop-color:#A8E854"/>
			</linearGradient>
			<path fill="url(#SVGID_4_)" d="M160.501,139.5c-2.481,0-4.5,2.019-4.5,4.5s2.019,4.5,4.5,4.5c2.48,0,4.5-2.019,4.5-4.5
				S162.981,139.5,160.501,139.5z M160.501,145.5c-0.825,0-1.5-0.672-1.5-1.5s0.675-1.5,1.5-1.5c0.824,0,1.5,0.672,1.5,1.5
				S161.325,145.5,160.501,145.5z"/>
		</g>
	</g>
	<g>
		<g>
			<linearGradient id="SVGID_5_" gradientUnits="userSpaceOnUse" x1="126.1575" y1="137.8999" x2="173.9966" y2="138.0599">
				<stop  offset="0" style="stop-color:#47DD57"/>
				<stop  offset="1" style="stop-color:#A8E854"/>
			</linearGradient>
			<path fill="url(#SVGID_5_)" d="M164.467,127.845c-0.633-0.525-1.578-0.444-2.112,0.192l-15,18
				c-0.537,0.639-0.45,1.587,0.186,2.115c0.279,0.234,0.621,0.348,0.96,0.348c0.432,0,0.858-0.183,1.155-0.54l15-18
				C165.186,129.324,165.099,128.376,164.467,127.845z"/>
		</g>
	</g>
</g>
</svg>
