<svg height="448pt" viewBox="0 0 448 448" width="448pt" xmlns="http://www.w3.org/2000/svg"><path d="m448 296v-24h-448v24c0 4.417969 3.582031 8 8 8h432c4.417969 0 8-3.582031 8-8zm0 0"/><path d="m298.128906 415.6875c-28.480468-3.039062-50.089844-27.046875-50.128906-55.6875-.003906-15.066406 6.085938-29.496094 16.886719-40h-81.773438c10.71875 10.441406 16.804688 24.746094 16.886719 39.710938.082031 14.964843-5.84375 29.339843-16.449219 39.898437-9.011719 9.113281-20.921875 14.796875-33.679687 16.078125l-10.765625 32.3125h169.789062zm0 0"/><path d="m145.222656 182.71875c6.535156 9.378906 14.679688 17.523438 24.058594 24.058594l3.789062-6.570313 13.859376 8-3.777344 6.546875c10.328125 4.894532 21.457031 7.890625 32.847656 8.839844v-7.59375h16v7.59375c11.390625-.949219 22.519531-3.945312 32.847656-8.839844l-3.777344-6.546875 13.859376-8 3.789062 6.570313c9.378906-6.535156 17.523438-14.679688 24.058594-24.058594l-6.570313-3.789062 8-13.859376 6.546875 3.777344c4.894532-10.328125 7.886719-21.457031 8.839844-32.847656h-7.59375v-16h7.59375c-.9375-11.390625-3.917969-22.515625-8.800781-32.847656l-6.546875 3.777344-8-13.859376 6.570312-3.789062c-6.535156-9.378906-14.679687-17.523438-24.054687-24.058594l-3.792969 6.570313-13.855469-8 3.773438-6.546875c-10.339844-4.898438-21.480469-7.894532-32.886719-8.839844v7.59375h-16v-7.59375c-11.390625.949219-22.519531 3.945312-32.847656 8.839844l3.777344 6.546875-13.859376 8-3.789062-6.570313c-9.378906 6.535156-17.523438 14.679688-24.058594 24.058594l6.570313 3.789062-8 13.859376-6.546875-3.777344c-4.894532 10.328125-7.886719 21.457031-8.839844 32.847656h7.59375v16h-7.59375c.953125 11.390625 3.945312 22.519531 8.839844 32.847656l6.546875-3.777344 8 13.859376zm86.777344-86.71875c0-4.417969 3.582031-8 8-8s8 3.582031 8 8v24h16v-24c0-4.417969 3.582031-8 8-8s8 3.582031 8 8v64c0 4.417969-3.582031 8-8 8s-8-3.582031-8-8v-24h-24c-4.417969 0-8-3.582031-8-8zm-64 32c0-4.417969 3.582031-8 8-8h24v-16h-24c-4.417969 0-8-3.582031-8-8s3.582031-8 8-8h32c4.417969 0 8 3.582031 8 8v32c0 4.417969-3.582031 8-8 8h-24v16h24c4.417969 0 8 3.582031 8 8s-3.582031 8-8 8h-32c-4.417969 0-8-3.582031-8-8zm0 0"/><path d="m0 256h448v-248c0-4.417969-3.582031-8-8-8h-432c-4.417969 0-8 3.582031-8 8zm224-240c61.855469 0 112 50.144531 112 112s-50.144531 112-112 112-112-50.144531-112-112c.066406-61.828125 50.171875-111.933594 112-112zm0 0"/></svg>