<?xml version="1.0" encoding="utf-8"?>
<!-- Generator: Adobe Illustrator 16.0.0, SVG Export Plug-In . SVG Version: 6.00 Build 0)  -->
<!DOCTYPE svg PUBLIC "-//W3C//DTD SVG 1.1//EN" "http://www.w3.org/Graphics/SVG/1.1/DTD/svg11.dtd">
<svg version="1.1" id="Слой_1" xmlns="http://www.w3.org/2000/svg" xmlns:xlink="http://www.w3.org/1999/xlink" x="0px" y="0px"
	 width="49px" height="44.1px" viewBox="0 0 49 44.1" enable-background="new 0 0 49 44.1" xml:space="preserve">
<linearGradient id="SVGID_1_" gradientUnits="userSpaceOnUse" x1="0" y1="22.05" x2="49" y2="22.05">
	<stop  offset="0" style="stop-color:#47DD57"/>
	<stop  offset="1" style="stop-color:#A8E854"/>
</linearGradient>
<path fill="url(#SVGID_1_)" d="M23.275,3.676h2.451V4.9h-2.451V3.676z M24.501,7.351c-6.089,0-11.024,4.936-11.024,11.024
	c0,6.09,4.936,11.026,11.024,11.026s11.024-4.936,11.024-11.026C35.516,12.291,30.586,7.36,24.501,7.351z M23.275,19.601h-2.449
	v1.225h2.449v2.451h-4.899v-6.125h2.45v-1.225h-2.45v-2.45h4.899V19.601z M31.85,19.601h-1.225v3.675h-2.45v-3.675H24.5v-6.125h2.45
	v3.675h1.225v-2.45h2.45v2.45h1.225V19.601z M20.825,0h7.35v1.226h-7.35V0z M33.799,7.351l-0.688,0.674
	c-0.283-0.242-0.582-0.467-0.894-0.674H33.799z M29.4,41.65c0,0.676-0.549,1.225-1.226,1.225h-7.35
	c-0.677,0-1.226-0.549-1.226-1.225H0v1.225c0,0.678,0.549,1.227,1.225,1.227h46.549c0.678,0,1.227-0.549,1.227-1.227V41.65H29.4z
	 M16.783,7.351c-0.311,0.207-0.609,0.432-0.895,0.674l-0.686-0.674H16.783z M42.876,7.351H37.73l0.625,0.625l-1.729,1.74
	l-0.869-0.87l-0.906,0.918c4.563,5.474,4.073,13.555-1.115,18.438c-5.188,4.885-13.283,4.885-18.473,0
	c-5.188-4.883-5.677-12.964-1.115-18.438l-0.905-0.918l-0.87,0.87l-1.729-1.74l0.625-0.625H6.125
	C4.098,7.357,2.456,8.999,2.45,11.026V39.2h44.1V11.026C46.545,8.999,44.902,7.356,42.876,7.351z M44.1,35.525
	c0,0.678-0.549,1.225-1.225,1.225H6.125c-0.678,0-1.225-0.547-1.225-1.225v-24.5c0-0.677,0.547-1.225,1.225-1.225H9.8v2.449H7.35
	V34.3H41.65V12.25H39.2V9.801h3.676c0.676,0,1.226,0.548,1.226,1.225v24.5H44.1z M33.799,7.351l0.232-0.232l-0.87-0.87L34.9,4.521
	l2.83,2.83H33.799z M14.971,7.118l0.231,0.232H11.27l2.83-2.83l1.74,1.728L14.971,7.118z"/>
</svg>
