<?xml version="1.0" encoding="iso-8859-1"?>
<!-- Generator: Adobe Illustrator 19.0.0, SVG Export Plug-In . SVG Version: 6.00 Build 0)  -->
<svg version="1.1" id="Capa_1" xmlns="http://www.w3.org/2000/svg" xmlns:xlink="http://www.w3.org/1999/xlink" x="0px" y="0px"
	 viewBox="0 0 464 464" style="enable-background:new 0 0 464 464;" xml:space="preserve">
<g>
	<g>
		<rect x="80" y="168" width="96" height="48"/>
	</g>
</g>
<g>
	<g>
		<rect x="80" y="248" width="96" height="32"/>
	</g>
</g>
<g>
	<g>
		<rect x="104" y="96" width="48" height="32"/>
	</g>
</g>
<g>
	<g>
		<rect x="272" y="48" width="72" height="16"/>
	</g>
</g>
<g>
	<g>
		<rect x="272" y="80" width="88" height="16"/>
	</g>
</g>
<g>
	<g>
		<path d="M448,0H16C7.16,0,0,7.16,0,16v264h48V128h24V32h32v32h48V32h32v96h24v152h256V16C464,7.16,456.84,0,448,0z M256,208h88v16
			h-88V208z M304,256h-48v-16h48V256z M416,256h-80v-16h80V256z M416,224h-40v-16h40V224z M416,152h-56v32h-32v-32h-8v-16
			c0-8.84-7.16-16-16-16h-48V40c0-4.416,3.584-8,8-8h144c4.416,0,8,3.584,8,8V152z"/>
	</g>
</g>
<g>
	<g>
		<path d="M0,296v32c0,8.84,7.16,16,16,16h160l-2.912,16L160,432h-38.112c-6.064,0-11.6,3.424-14.312,8.848
			C102.256,451.48,109.992,464,121.888,464h220.224c11.896,0,19.632-12.52,14.312-23.152c-2.712-5.424-8.256-8.848-14.312-8.848H304
			l-13.088-72L288,344h160c8.84,0,16-7.16,16-16v-32H0z M256,328h-48v-16h48V328z"/>
	</g>
</g>
<g>
</g>
<g>
</g>
<g>
</g>
<g>
</g>
<g>
</g>
<g>
</g>
<g>
</g>
<g>
</g>
<g>
</g>
<g>
</g>
<g>
</g>
<g>
</g>
<g>
</g>
<g>
</g>
<g>
</g>
</svg>
