<?xml version="1.0" encoding="iso-8859-1"?>
<!-- Generator: Adobe Illustrator 19.0.0, SVG Export Plug-In . SVG Version: 6.00 Build 0)  -->
<svg version="1.1" id="Capa_1" xmlns="http://www.w3.org/2000/svg" xmlns:xlink="http://www.w3.org/1999/xlink" x="0px" y="0px"
	 viewBox="0 0 512 512" style="enable-background:new 0 0 512 512;" xml:space="preserve">
<g>
	<g>
		<polygon points="411.094,99.283 411.094,348.581 411.094,378.582 381.093,378.582 180.352,378.582 180.352,428.648 
			371.649,428.648 461.542,492.784 461.542,428.648 512,428.648 512,99.283 		"/>
	</g>
</g>
<g>
	<g>
		<path d="M190.547,134.847c-27.046,0-49.05,22.004-49.05,49.05s22.004,49.05,49.05,49.05s49.05-22.004,49.05-49.05
			S217.593,134.847,190.547,134.847z"/>
	</g>
</g>
<g>
	<g>
		<path d="M0,19.216v329.366h50.458v64.135l89.893-64.135h240.742v-0.001V19.216H0z M290.153,198.899h-22.001
			c-2.057,10.664-6.249,20.575-12.136,29.255l15.57,15.57l-21.214,21.214l-15.57-15.57c-8.68,5.886-18.592,10.078-29.254,12.136
			v22.001h-30.001v-22.001c-10.664-2.058-20.575-6.25-29.254-12.137l-15.57,15.569l-21.214-21.214l15.57-15.569
			c-5.886-8.68-10.078-18.592-12.137-29.255H90.94v-30.001h22.001c2.057-10.663,6.249-20.575,12.135-29.254l-15.569-15.57
			l21.214-21.214l15.569,15.57c8.68-5.886,18.592-10.079,29.255-12.137V84.293h30.001v22c10.663,2.057,20.575,6.25,29.255,12.137
			l15.569-15.57l21.214,21.214l-15.569,15.57c5.886,8.68,10.078,18.592,12.135,29.254h22.001V198.899z"/>
	</g>
</g>
<g>
</g>
<g>
</g>
<g>
</g>
<g>
</g>
<g>
</g>
<g>
</g>
<g>
</g>
<g>
</g>
<g>
</g>
<g>
</g>
<g>
</g>
<g>
</g>
<g>
</g>
<g>
</g>
<g>
</g>
</svg>
