<svg height="444pt" viewBox="-40 0 444 444.616" width="444pt" xmlns="http://www.w3.org/2000/svg"><path d="m288.308594 287.441406v-287.441406h-208v72c0 4.417969-3.582032 8-8 8h-72v320h221.542968l20.65625-23.535156zm-248-191.441406h208c4.417968 0 8 3.582031 8 8s-3.582032 8-8 8h-208c-4.417969 0-8-3.582031-8-8s3.582031-8 8-8zm0 48h208c4.417968 0 8 3.582031 8 8s-3.582032 8-8 8h-208c-4.417969 0-8-3.582031-8-8s3.582031-8 8-8zm0 40h208c4.417968 0 8 3.582031 8 8s-3.582032 8-8 8h-208c-4.417969 0-8-3.582031-8-8s3.582031-8 8-8zm-8 56c0-4.417969 3.582031-8 8-8h208c4.417968 0 8 3.582031 8 8s-3.582032 8-8 8h-208c-4.417969 0-8-3.582031-8-8zm192 128h-88c-4.417969 0-8-3.582031-8-8s3.582031-8 8-8h88c4.417968 0 8 3.582031 8 8s-3.582032 8-8 8zm-16-32c-2.78125.015625-5.375-1.414062-6.84375-3.777344-1.46875-2.363281-1.601563-5.320312-.355469-7.808594l2.351563-4.695312c1.085937-2.023438.988281-4.480469-.261719-6.410156-1.25-1.933594-3.449219-3.03125-5.742188-2.871094s-4.316406 1.554688-5.285156 3.640625l-8.664063 17.496094c-1.632812 3.375-5.386718 5.160156-9.03125 4.304687-3.648437-.859375-6.210937-4.132812-6.167968-7.878906v-24c0-4.417969-3.582032-8-8-8-4.417969 0-8 3.582031-8 8v24c0 4.417969-3.582032 8-8 8-4.417969 0-8-3.582031-8-8v-24c-.003906-12.382812 9.414062-22.734375 21.742187-23.898438 12.328125-1.164062 23.515625 7.238282 25.832031 19.402344 6.683594-5.375 15.859376-6.441406 23.59375-2.742187 7.738282 3.699219 12.667969 11.507812 12.679688 20.085937 2.867188-1.621094 5.371094-3.816406 7.351562-6.449218l14.398438-19.199219c2.652344-3.535157 7.667969-4.25 11.203125-1.597657 3.535156 2.648438 4.25 7.664063 1.597656 11.199219l-14.398437 19.199219c-7.574219 10.046875-19.417969 15.96875-32 16zm0 0"/><path d="m64.308594 11.3125-52.6875 52.6875h52.6875zm0 0"/><path d="m266.644531 416.976562c-1.246093 2.648438-3.839843 4.402344-6.757812 4.578126-2.921875.175781-5.707031-1.257813-7.257813-3.738282-1.554687-2.480468-1.632812-5.609375-.199218-8.160156l7.316406-14.222656-8.679688-4.464844-15.023437 17.121094 7.394531 36.527344 34.015625-15.203126 5.191406-22.167968-8.679687-4.460938zm0 0"/><path d="m281.910156 334.863281 40.257813-78.253906 28.445312 14.636719-40.257812 78.25zm0 0"/><path d="m362.613281 237.703125c-1.984375-6.15625-7.484375-10.515625-13.933593-11.039063-6.445313-.527343-12.578126 2.882813-15.53125 8.640626l-3.65625 7.109374 28.449218 14.640626 3.65625-7.109376c1.964844-3.78125 2.332032-8.191406 1.015625-12.242187zm0 0"/><path d="m259.949219 377.542969 14.222656 7.320312h.007813l.007812.007813 14.214844 7.3125 14.640625-28.457032-28.453125-14.636718zm0 0"/></svg>