<svg height="512pt" viewBox="0 0 512 512" width="512pt" xmlns="http://www.w3.org/2000/svg"><path d="m61 360h60v62h-60zm0 0"/><path d="m31 120h450v30h-450zm0 0"/><path d="m31 240h450v30h-450zm0 0"/><path d="m31 180h450v30h-450zm0 0"/><path d="m151 360h210v62h-210zm0 0"/><path d="m31 300v10.78125c0 10.613281 8.605469 19.21875 19.21875 19.21875h411.5625c10.613281 0 19.21875-8.605469 19.21875-19.21875v-10.78125zm0 0"/><path d="m31 467v30c0 8.285156 6.714844 15 15 15h420c8.285156 0 15-6.714844 15-15v-30c0-8.285156-6.714844-15-15-15h-420c-8.285156 0-15 6.714844-15 15zm0 0"/><path d="m512 75v-60c0-8.285156-6.714844-15-15-15h-482c-8.285156 0-15 6.714844-15 15v60c0 8.285156 6.714844 15 15 15h482c8.285156 0 15-6.714844 15-15zm-76-45c8.285156 0 15 6.714844 15 15s-6.714844 15-15 15-15-6.714844-15-15 6.714844-15 15-15zm-60 0c8.285156 0 15 6.714844 15 15s-6.714844 15-15 15-15-6.714844-15-15 6.714844-15 15-15zm-60 0c8.285156 0 15 6.714844 15 15s-6.714844 15-15 15-15-6.714844-15-15 6.714844-15 15-15zm0 0"/><path d="m391 360h60v62h-60zm0 0"/></svg>