<?xml version="1.0" encoding="utf-8"?>
<!-- Generator: Adobe Illustrator 16.0.0, SVG Export Plug-In . SVG Version: 6.00 Build 0)  -->
<!DOCTYPE svg PUBLIC "-//W3C//DTD SVG 1.1//EN" "http://www.w3.org/Graphics/SVG/1.1/DTD/svg11.dtd">
<svg version="1.1" id="Capa_1" xmlns="http://www.w3.org/2000/svg" xmlns:xlink="http://www.w3.org/1999/xlink" x="0px" y="0px"
	 width="43px" height="51.658px" viewBox="0 0 43 51.658" enable-background="new 0 0 43 51.658" xml:space="preserve">
<g>
	<g>
		
			<linearGradient id="SVGID_1_" gradientUnits="userSpaceOnUse" x1="147.7207" y1="-244.1904" x2="190.7207" y2="-244.1904" gradientTransform="matrix(1 0 0 -1 -147.7202 -218.3613)">
			<stop  offset="0" style="stop-color:#47DD57"/>
			<stop  offset="1" style="stop-color:#A8E854"/>
		</linearGradient>
		<path fill="url(#SVGID_1_)" d="M41.063,0H1.938C0.867,0,0,0.867,0,1.937v47.785c0,1.068,0.867,1.937,1.938,1.937h39.125
			c1.069,0,1.938-0.867,1.938-1.937V1.937C43,0.867,42.133,0,41.063,0z M7.066,6.718c0-0.383,0.311-0.693,0.692-0.693h27.482
			c0.382,0,0.69,0.311,0.69,0.693v16.227c0,0.383-0.31,0.693-0.69,0.693H7.759c-0.382,0-0.692-0.311-0.692-0.693V6.718L7.066,6.718z
			 M17.797,44.798c0,0.383-0.311,0.692-0.691,0.692H9.486c-0.383,0-0.691-0.31-0.691-0.692V32.983c0-0.383,0.311-0.692,0.691-0.692
			h7.619c0.381,0,0.691,0.31,0.691,0.692V44.798L17.797,44.798z M20.436,31.864c0,0.383-0.31,0.691-0.691,0.691h-0.84
			c-0.383,0-0.692-0.31-0.692-0.691v-0.367H8.404v0.367c0,0.383-0.309,0.691-0.691,0.691H6.859c-0.383,0-0.692-0.31-0.692-0.691
			V29.96c0-0.383,0.31-0.691,0.692-0.691h12.885c0.382,0,0.691,0.31,0.691,0.691V31.864L20.436,31.864z M25.781,45.313
			c0,0.266-0.215,0.479-0.479,0.479h-2.804c-0.264,0-0.479-0.215-0.479-0.479v-2.803c0-0.265,0.215-0.479,0.479-0.479h2.804
			c0.265,0,0.479,0.215,0.479,0.479V45.313z M25.781,39.789c0,0.265-0.215,0.479-0.479,0.479h-2.804
			c-0.264,0-0.479-0.215-0.479-0.479v-2.804c0-0.266,0.215-0.479,0.479-0.479h2.804c0.265,0,0.479,0.216,0.479,0.479V39.789z
			 M25.781,34.263c0,0.264-0.215,0.479-0.479,0.479h-2.804c-0.264,0-0.479-0.215-0.479-0.479v-2.805
			c0-0.264,0.215-0.479,0.479-0.479h2.804c0.265,0,0.479,0.215,0.479,0.479V34.263z M31.307,45.313c0,0.266-0.216,0.479-0.479,0.479
			h-2.804c-0.266,0-0.479-0.215-0.479-0.479v-2.803c0-0.265,0.215-0.479,0.479-0.479h2.804c0.264,0,0.479,0.215,0.479,0.479V45.313z
			 M31.307,39.789c0,0.265-0.216,0.479-0.479,0.479h-2.804c-0.266,0-0.479-0.215-0.479-0.479v-2.804
			c0-0.266,0.215-0.479,0.479-0.479h2.804c0.264,0,0.479,0.216,0.479,0.479V39.789z M31.307,34.263c0,0.264-0.216,0.479-0.479,0.479
			h-2.804c-0.266,0-0.479-0.215-0.479-0.479v-2.805c0-0.264,0.215-0.479,0.479-0.479h2.804c0.264,0,0.479,0.215,0.479,0.479V34.263z
			 M36.833,45.313c0,0.266-0.215,0.479-0.479,0.479H33.55c-0.265,0-0.479-0.215-0.479-0.479v-2.803c0-0.265,0.215-0.479,0.479-0.479
			h2.804c0.266,0,0.479,0.215,0.479,0.479V45.313z M36.833,39.789c0,0.265-0.215,0.479-0.479,0.479H33.55
			c-0.265,0-0.479-0.215-0.479-0.479v-2.804c0-0.266,0.215-0.479,0.479-0.479h2.804c0.266,0,0.479,0.216,0.479,0.479V39.789z
			 M36.833,34.263c0,0.264-0.215,0.479-0.479,0.479H33.55c-0.265,0-0.479-0.215-0.479-0.479v-2.805c0-0.264,0.215-0.479,0.479-0.479
			h2.804c0.266,0,0.479,0.215,0.479,0.479V34.263z"/>
		
			<linearGradient id="SVGID_2_" gradientUnits="userSpaceOnUse" x1="157.1553" y1="-232.8955" x2="165.0088" y2="-232.8955" gradientTransform="matrix(1 0 0 -1 -147.7202 -218.3613)">
			<stop  offset="0" style="stop-color:#47DD57"/>
			<stop  offset="1" style="stop-color:#A8E854"/>
		</linearGradient>
		<path fill="url(#SVGID_2_)" d="M9.898,18.966h1.274c0.208,0,0.392-0.139,0.446-0.339l0.521-1.881h2.316l0.568,1.89
			c0.059,0.196,0.238,0.33,0.443,0.33h1.356c0.147,0,0.286-0.07,0.372-0.188c0.088-0.118,0.113-0.271,0.07-0.412l-2.461-7.938
			c-0.061-0.193-0.24-0.326-0.443-0.326h-2.039c-0.204,0-0.385,0.133-0.443,0.328l-2.426,7.938c-0.043,0.141-0.018,0.293,0.07,0.41
			S9.751,18.966,9.898,18.966z M12.958,13.371c0.085-0.304,0.166-0.66,0.244-1.008c0.022-0.101,0.044-0.196,0.065-0.291
			c0.106,0.43,0.226,0.901,0.344,1.296l0.498,1.699h-1.627L12.958,13.371z"/>
		
			<linearGradient id="SVGID_3_" gradientUnits="userSpaceOnUse" x1="164.2285" y1="-232.895" x2="171.0898" y2="-232.895" gradientTransform="matrix(1 0 0 -1 -147.7202 -218.3613)">
			<stop  offset="0" style="stop-color:#47DD57"/>
			<stop  offset="1" style="stop-color:#A8E854"/>
		</linearGradient>
		<path fill="url(#SVGID_3_)" d="M16.973,11.959h1.859v6.543c0,0.257,0.207,0.463,0.463,0.463h1.25c0.256,0,0.464-0.208,0.464-0.463
			v-6.543h1.897c0.257,0,0.464-0.208,0.464-0.463v-0.931c0-0.256-0.207-0.463-0.464-0.463h-5.934c-0.257,0-0.464,0.209-0.464,0.463
			v0.931C16.509,11.752,16.717,11.959,16.973,11.959z"/>
		
			<linearGradient id="SVGID_4_" gradientUnits="userSpaceOnUse" x1="171.5674" y1="-232.8945" x2="181.2861" y2="-232.8945" gradientTransform="matrix(1 0 0 -1 -147.7202 -218.3613)">
			<stop  offset="0" style="stop-color:#47DD57"/>
			<stop  offset="1" style="stop-color:#A8E854"/>
		</linearGradient>
		<path fill="url(#SVGID_4_)" d="M24.311,18.966h1.09c0.246,0,0.451-0.193,0.463-0.441l0.138-2.939
			c0.042-0.707,0.073-1.523,0.103-2.313c0.008-0.158,0.014-0.316,0.02-0.475c0.176,0.844,0.396,1.754,0.631,2.598l0.854,3.088
			c0.056,0.201,0.238,0.341,0.445,0.341h0.993c0.203,0,0.384-0.132,0.442-0.325l0.974-3.122c0.284-0.864,0.563-1.815,0.797-2.694
			c0.011,1.063,0.044,2.07,0.073,2.869l0.115,2.969c0.01,0.248,0.214,0.445,0.463,0.445h1.191c0.129,0,0.25-0.053,0.338-0.146
			c0.088-0.092,0.133-0.217,0.125-0.344l-0.436-7.937c-0.014-0.246-0.217-0.438-0.463-0.438H30.71c-0.202,0-0.38,0.131-0.44,0.322
			l-0.844,2.623c-0.002,0.004-0.003,0.008-0.004,0.012c-0.271,0.922-0.531,1.936-0.729,2.724c-0.157-0.774-0.369-1.647-0.654-2.709
			c-0.001-0.003-0.002-0.007-0.003-0.011l-0.771-2.627c-0.059-0.196-0.24-0.332-0.445-0.332h-2.004
			c-0.244,0-0.446,0.189-0.463,0.434l-0.506,7.936c-0.009,0.129,0.036,0.254,0.125,0.348C24.061,18.913,24.182,18.966,24.311,18.966
			z"/>
	</g>
</g>
</svg>
