<?xml version="1.0" encoding="utf-8"?>
<!-- Generator: Adobe Illustrator 16.0.0, SVG Export Plug-In . SVG Version: 6.00 Build 0)  -->
<!DOCTYPE svg PUBLIC "-//W3C//DTD SVG 1.1//EN" "http://www.w3.org/Graphics/SVG/1.1/DTD/svg11.dtd">
<svg version="1.1" id="Слой_1" xmlns="http://www.w3.org/2000/svg" xmlns:xlink="http://www.w3.org/1999/xlink" x="0px" y="0px"
	 width="43px" height="31.379px" viewBox="234.5 171.123 43 31.379" enable-background="new 234.5 171.123 43 31.379"
	 xml:space="preserve">
<linearGradient id="SVGID_1_" gradientUnits="userSpaceOnUse" x1="234.4998" y1="186.8127" x2="277.4998" y2="186.8127">
	<stop  offset="0" style="stop-color:#47DD57"/>
	<stop  offset="1" style="stop-color:#A8E854"/>
</linearGradient>
<path fill="url(#SVGID_1_)" d="M272.81,202.5h4.689v-3.37h-3.34v0.009h-7.626v3.361H272.81z M266.534,189.278H277.5v7.333h-10.966
	V189.278z M277.5,186.758v-2.798h-3.34l0,0h-7.626v2.798H277.5z M257.125,199.139h6.89v3.363h-6.89V199.139z M257.125,183.96h6.89
	v12.66h-6.89V183.96z M254.605,192.095H234.5v5.271h15.152l-0.338,2.602h-1.642v2.52h6.934V192.095z M257.125,178.532h15.686v2.908
	h-15.686V178.532z M254.605,189.575v-13.563h18.715v-4.889H234.5v18.452H254.605z"/>
</svg>
