<svg height="512pt" viewBox="0 -49 512 512" width="512pt" xmlns="http://www.w3.org/2000/svg"><path d="m352 151.503906h55.476562l-25.777343-25.777344 21.214843-21.214843 61.988282 61.992187-61.988282 61.988282-21.214843-21.210938 25.777343-25.777344h-55.476562v63.496094h160v-245h-160zm0 0"/><path d="m121.332031 0h200.667969v57h-200.667969zm0 0"/><path d="m512 275h-512v70h201.425781l-4.9375 38h-23.320312v30h165.664062v-30h-23.320312l-4.9375-38h201.425781zm0 0"/><path d="m0 0h91.332031v57h-91.332031zm0 0"/><path d="m0 245h322v-63.496094h-66.480469l25.777344 25.777344-21.210937 21.210938-61.992188-61.988282 61.992188-61.992187 21.210937 21.214843-25.777344 25.777344h66.480469v-64.503906h-322zm0 0"/></svg>