<svg height="496pt" viewBox="-4 0 496 496.64901" width="496pt" xmlns="http://www.w3.org/2000/svg"><path d="m466.894531 344c0 10.25-8.308593 18.5625-18.5625 18.5625-10.25 0-18.558593-8.3125-18.558593-18.5625s8.308593-18.558594 18.558593-18.558594c10.253907 0 18.5625 8.308594 18.5625 18.558594zm0 0" fill="#ffda44"/><path d="m474.574219 180.082031c3.03125 2.984375 4.738281 7.0625 4.738281 11.320313 0 4.253906-1.707031 8.332031-4.738281 11.320312l-271.519531 271.519532c-2.988282 3.03125-7.066407 4.738281-11.320313 4.738281-4.257813 0-8.335937-1.707031-11.320313-4.738281l-62.160156-62.160157-.238281-.320312c7.820313-5.507813 11.625-15.132813 9.683594-24.5-1.941407-9.367188-9.261719-16.683594-18.628907-18.625-9.363281-1.945313-18.992187 1.863281-24.496093 9.683593l-.320313-.238281-62.160156-62.160156c-3.03125-2.988281-4.738281-7.066406-4.738281-11.320313 0-4.257812 1.707031-8.335937 4.738281-11.320312l271.519531-271.519531c2.988281-3.03125 7.066407-4.742188 11.320313-4.742188 4.257812 0 8.332031 1.710938 11.320312 4.742188l62.160156 62.160156.238282.320313c-7.820313 5.503906-11.625 15.128906-9.683594 24.496093 1.941406 9.367188 9.261719 16.6875 18.628906 18.628907 9.363282 1.941406 18.988282-1.863282 24.496094-9.6875l.320312.242187zm-67.839844 34c3.003906-3.003906 4.691406-7.074219 4.691406-11.320312 0-4.246094-1.6875-8.320313-4.691406-11.320313l-101.839844-101.839844c-3-3.003906-7.074219-4.691406-11.320312-4.691406-4.246094 0-8.320313 1.6875-11.320313 4.691406l-192.320312 192.320313c-3.003906 3-4.691406 7.074219-4.691406 11.320313 0 4.246093 1.6875 8.316406 4.691406 11.320312l101.839844 101.839844c3 3.003906 7.074218 4.691406 11.320312 4.691406s8.320312-1.6875 11.320312-4.691406zm0 0" fill="#a78966"/><path d="m469.453125 416c0 20.5-16.617187 37.121094-37.121094 37.121094-20.5 0-37.117187-16.621094-37.117187-37.121094s16.617187-37.117188 37.117187-37.117188c20.503907 0 37.121094 16.617188 37.121094 37.117188zm0 0" fill="#ffda44"/><path d="m387.292969 80.5625c1.652343-.386719 3.34375-.574219 5.039062-.5625 13.25-.113281 24.261719 10.175781 25.050781 23.398438.789063 13.222656-8.921874 24.746093-22.089843 26.210937-13.164063 1.460937-25.167969-7.648437-27.300781-20.722656-2.132813-13.074219 6.351562-25.527344 19.300781-28.324219zm0 0" fill="#ffde55"/><path d="m89.929688 281.917969 192.320312-192.320313c6.253906-6.25 16.386719-6.25 22.640625 0l101.839844 101.839844c6.25 6.253906 6.25 16.386719 0 22.640625l-192.320313 192.320313c-6.253906 6.25-16.390625 6.25-22.640625 0l-101.839843-101.839844c-6.253907-6.25-6.253907-16.386719 0-22.640625zm0 0" fill="#006df0"/><path d="m146.894531 64c0 10.25-8.308593 18.5625-18.5625 18.5625-10.25 0-18.558593-8.3125-18.558593-18.5625s8.308593-18.558594 18.558593-18.558594c10.253907 0 18.5625 8.308594 18.5625 18.558594zm0 0" fill="#ffda44"/><path d="m104.332031 368c10.996094.039062 20.546875 7.574219 23.148438 18.253906 2.601562 10.683594-2.417969 21.765625-12.164063 26.855469s-21.707031 2.875-28.988281-5.363281c-7.28125-8.238282-8.003906-20.378906-1.753906-29.425782 4.492187-6.476562 11.878906-10.332031 19.757812-10.320312zm0 0" fill="#ffde55"/><path d="m93.453125 80c0 20.5-16.617187 37.121094-37.121094 37.121094-20.5 0-37.117187-16.621094-37.117187-37.121094s16.617187-37.117188 37.117187-37.117188c20.503907 0 37.121094 16.617188 37.121094 37.117188zm0 0" fill="#ffda44"/><path d="m58.894531 152c0 10.25-8.308593 18.5625-18.5625 18.5625-10.25 0-18.558593-8.3125-18.558593-18.5625s8.308593-18.558594 18.558593-18.558594c10.253907 0 18.5625 8.308594 18.5625 18.558594zm0 0" fill="#ffda44"/><path d="m310.558594 83.953125c-9.375-9.375-24.570313-9.375-33.945313 0l-192.328125 192.335937c-9.367187 9.371094-9.367187 24.5625 0 33.9375l101.824219 101.824219c9.375 9.371094 24.570313 9.371094 33.945313 0l192.328124-192.335937c9.367188-9.375 9.367188-24.566406 0-33.9375zm90.511718 124.449219-192.328124 192.335937c-1.5 1.5-3.535157 2.34375-5.660157 2.34375s-4.160156-.84375-5.660156-2.34375l-101.824219-101.824219c-3.121094-3.125-3.121094-8.1875 0-11.3125l192.328125-192.335937c1.5-1.503906 3.535157-2.347656 5.660157-2.347656s4.160156.84375 5.660156 2.347656l101.824218 101.824219c3.121094 3.125 3.121094 8.1875 0 11.3125zm0 0"/><path d="m396.652344 54.738281c1.648437-1.074219 7.480468 1.359375 12.152344 3.320313 10.164062 5.34375 21.746093 7.367187 33.121093 5.78125 18.878907-3.839844 34.320313-21.695313 45.910157-53.0625 1.535156-4.144532-.582032-8.746094-4.726563-10.28125-4.144531-1.53125-8.746094.585937-10.28125 4.730468-9.40625 25.460938-21.199219 40.308594-34.09375 42.933594-8.230469.808594-16.515625-.882812-23.769531-4.855468-8.542969-3.574219-18.230469-7.65625-26.992188-2.023438-9.527344 6.136719-10.664062 19.199219-9.710937 31.199219l-56.390625-56.40625c-9.496094-9.070313-24.441406-9.070313-33.9375 0l-271.527344 271.527343c-9.371094 9.371094-9.371094 24.5625 0 33.933594l58.328125 58.355469c-3.375 8.144531-3.207031 17.324219.460937 25.34375 3.664063 8.015625 10.5 14.148437 18.867188 16.925781 1.855469 16.800782-1.90625 19.640625-2.066406 19.746094-1.679688 1.046875-7.476563-1.371094-12.148438-3.320312-10.167968-5.335938-21.742187-7.355469-33.113281-5.785157-18.878906 3.839844-34.320313 21.695313-45.914063 53.0625-1.53125 4.144531.585938 8.75 4.730469 10.28125.890625.335938 1.832031.503907 2.78125.503907 3.351563 0 6.347657-2.089844 7.503907-5.230469 9.410156-25.472657 21.195312-40.3125 34.074218-42.929688 8.230469-.804687 16.511719.882813 23.769532 4.847657 8.550781 3.585937 18.230468 7.648437 26.988281 2.023437 9.730469-6.269531 10.714843-19.78125 9.640625-32 2.101562-.386719 4.160156-.992187 6.136718-1.804687l58.351563 58.34375c9.371094 9.367187 24.566406 9.367187 33.9375 0l271.527344-271.496094c9.371093-9.375 9.371093-24.566406 0-33.9375l-58.328125-58.351563c3.941406-9.523437 3.023437-20.363281-2.460938-29.085937-5.484375-8.726563-14.859375-14.25-25.148437-14.828125-1.335938-14.894531 2.167969-17.367188 2.328125-17.460938zm-292.320313 321.261719c8.839844 0 16 7.164062 16 16s-7.160156 16-16 16c-8.835937 0-16-7.164062-16-16s7.164063-16 16-16zm364.617188-178.910156-271.535157 271.535156c-3.164062 3.019531-8.140624 3.019531-11.304687 0l-56.800781-56.800781c4.53125-5.613281 7.007812-12.609375 7.023437-19.824219 0-17.671875-14.324219-32-32-32-7.207031.03125-14.1875 2.515625-19.789062 7.050781l-56.800781-56.800781c-3.125-3.125-3.125-8.1875 0-11.3125l271.511718-271.558594c3.164063-3.023437 8.140625-3.023437 11.304688 0l56.800781 56.796875c-4.53125 5.617188-7.007813 12.609375-7.027344 19.824219 0 17.675781 14.328125 32 32 32 7.207031-.027344 14.191407-2.515625 19.792969-7.046875l56.800781 56.800781c1.511719 1.496094 2.363281 3.535156 2.367188 5.664063.003906 2.125-.839844 4.167969-2.34375 5.671875zm-60.617188-93.089844c0 8.835938-7.160156 16-16 16-8.835937 0-16-7.164062-16-16s7.164063-16 16-16c8.839844 0 16 7.164062 16 16zm0 0"/><path d="m469.445312 408c-24.488281 0-29.113281-4.621094-29.113281-29.109375 0-4.417969-3.578125-8-8-8-4.417969 0-8 3.582031-8 8 0 24.488281-4.621093 29.109375-29.109375 29.109375-4.417968 0-8 3.582031-8 8s3.582032 8 8 8c24.488282 0 29.109375 4.625 29.109375 29.113281 0 4.417969 3.582031 8 8 8 4.421875 0 8-3.582031 8-8 0-24.488281 4.625-29.113281 29.113281-29.113281 4.417969 0 8-3.582031 8-8s-3.582031-8-8-8zm-37.113281 12.394531c-1.28125-1.636719-2.757812-3.113281-4.398437-4.394531 1.640625-1.28125 3.117187-2.753906 4.398437-4.390625 1.285157 1.636719 2.761719 3.109375 4.402344 4.390625-1.640625 1.28125-3.117187 2.757812-4.402344 4.394531zm0 0"/><path d="m378.886719 424c-10.058594 0-10.554688-.496094-10.554688-10.550781 0-4.417969-3.578125-8-8-8-4.417969 0-8 3.582031-8 8 0 10.054687-.496093 10.550781-10.550781 10.550781-4.417969 0-8 3.582031-8 8s3.582031 8 8 8c10.054688 0 10.550781.496094 10.550781 10.554688 0 4.417968 3.582031 8 8 8 4.421875 0 8-3.582032 8-8 0-10.058594.496094-10.554688 10.554688-10.554688 4.417969 0 8-3.582031 8-8s-3.582031-8-8-8zm0 0"/><path d="m440.332031 362.554688c0 4.417968 3.582031 8 8 8 4.421875 0 8-3.582032 8-8 0-10.058594.496094-10.554688 10.554688-10.554688 4.417969 0 8-3.582031 8-8s-3.582031-8-8-8c-10.058594 0-10.554688-.496094-10.554688-10.550781 0-4.417969-3.578125-8-8-8-4.417969 0-8 3.582031-8 8 0 10.054687-.496093 10.550781-10.550781 10.550781-4.417969 0-8 3.582031-8 8s3.582031 8 8 8c10.054688 0 10.550781.496094 10.550781 10.554688zm0 0"/><path d="m19.222656 88c24.488282 0 29.109375 4.625 29.109375 29.113281 0 4.417969 3.582031 8 8 8 4.421875 0 8-3.582031 8-8 0-24.488281 4.625-29.113281 29.113281-29.113281 4.417969 0 8-3.582031 8-8s-3.582031-8-8-8c-24.488281 0-29.113281-4.621094-29.113281-29.109375 0-4.417969-3.578125-8-8-8-4.417969 0-8 3.582031-8 8 0 24.488281-4.621093 29.109375-29.109375 29.109375-4.417968 0-8 3.582031-8 8s3.582032 8 8 8zm37.109375-12.390625c1.285157 1.636719 2.761719 3.109375 4.402344 4.390625-1.640625 1.28125-3.117187 2.757812-4.402344 4.394531-1.28125-1.636719-2.757812-3.113281-4.398437-4.394531 1.640625-1.28125 3.117187-2.753906 4.398437-4.390625zm0 0"/><path d="m48.332031 133.449219c0-4.417969-3.578125-8-8-8-4.417969 0-8 3.582031-8 8 0 10.054687-.496093 10.550781-10.550781 10.550781-4.417969 0-8 3.582031-8 8s3.582031 8 8 8c10.054688 0 10.550781.496094 10.550781 10.554688 0 4.417968 3.582031 8 8 8 4.421875 0 8-3.582032 8-8 0-10.058594.496094-10.554688 10.554688-10.554688 4.417969 0 8-3.582031 8-8s-3.582031-8-8-8c-10.058594 0-10.554688-.496094-10.554688-10.550781zm0 0"/><path d="m109.78125 72c10.054688 0 10.550781.496094 10.550781 10.554688 0 4.417968 3.582031 8 8 8 4.421875 0 8-3.582032 8-8 0-10.058594.496094-10.554688 10.554688-10.554688 4.417969 0 8-3.582031 8-8s-3.582031-8-8-8c-10.058594 0-10.554688-.496094-10.554688-10.550781 0-4.417969-3.578125-8-8-8-4.417969 0-8 3.582031-8 8 0 10.054687-.496093 10.550781-10.550781 10.550781-4.417969 0-8 3.582031-8 8s3.582031 8 8 8zm0 0"/><path d="m191.765625 383.765625 11.3125-11.316406 11.3125 11.316406-11.3125 11.3125zm0 0"/><path d="m174.792969 366.789062 11.316406-11.3125 11.3125 11.3125-11.3125 11.316407zm0 0"/><path d="m208.742188 366.789062 11.3125-11.3125 11.3125 11.3125-11.3125 11.3125zm0 0"/><path d="m254.164062 168h-.191406c-18.835937-.265625-35.347656 12.542969-39.765625 30.855469-.714843 9.058593 2.566407 17.976562 8.976563 24.417969 3.03125 3.636718 5.589844 7.644531 7.613281 11.925781.640625 1.558593 1.152344 3.164062 1.535156 4.800781h-16c-4.417969 0-8 3.582031-8 8s3.582031 8 8 8h16.800781c-2.070312 12.539062-6.457031 24.578125-12.941406 35.503906-1.089844 1.976563-1.292968 4.316406-.5625 6.449219l2.960938 8.640625c1.109375 3.238281 4.152344 5.410156 7.574218 5.40625h50.167969c4.421875 0 8-3.582031 8-8s-3.578125-8-8-8h-44.4375c6.945313-12.359375 11.457031-25.9375 13.289063-40h15.148437c4.421875 0 8-3.582031 8-8s-3.578125-8-8-8h-15.734375c-.578125-3.847656-1.628906-7.609375-3.128906-11.199219-2.519531-5.496093-5.75-10.640625-9.597656-15.304687-4.65625-6.0625-6.402344-8.695313-5.832032-12.367188 3.226563-10.480468 13.078126-17.5 24.039063-17.128906 11.277344.285156 21.113281 7.734375 24.449219 18.511719 1.386718 4.199219 5.914062 6.476562 10.109375 5.089843 4.199219-1.386718 6.476562-5.914062 5.089843-10.113281-5.488281-17.304687-21.410156-29.171875-39.5625-29.488281zm0 0"/></svg>