<?xml version="1.0" encoding="utf-8"?>
<!-- Generator: Adobe Illustrator 16.0.0, SVG Export Plug-In . SVG Version: 6.00 Build 0)  -->
<!DOCTYPE svg PUBLIC "-//W3C//DTD SVG 1.1//EN" "http://www.w3.org/Graphics/SVG/1.1/DTD/svg11.dtd">
<svg version="1.1" id="Слой_1" xmlns="http://www.w3.org/2000/svg" xmlns:xlink="http://www.w3.org/1999/xlink" x="0px" y="0px"
	 width="44px" height="42.533px" viewBox="218 210.734 44 42.533" enable-background="new 218 210.734 44 42.533"
	 xml:space="preserve">
<linearGradient id="SVGID_1_" gradientUnits="userSpaceOnUse" x1="217.9998" y1="232.0002" x2="261.9998" y2="232.0002">
	<stop  offset="0" style="stop-color:#47DD57"/>
	<stop  offset="1" style="stop-color:#A8E854"/>
</linearGradient>
<path fill="url(#SVGID_1_)" d="M237.621,243.13c-0.326-0.082-0.555-0.375-0.555-0.711v-3.237c0-0.336,0.229-0.629,0.555-0.711
	l2.301-0.575c0.192-0.635,0.447-1.25,0.762-1.833l-1.221-2.034c-0.173-0.289-0.128-0.658,0.11-0.896l2.289-2.289
	c0.238-0.237,0.607-0.283,0.896-0.11l2.034,1.22c0.585-0.314,1.198-0.569,1.834-0.762l0.574-2.3
	c0.082-0.326,0.375-0.556,0.712-0.556h3.237c0.336,0,0.63,0.229,0.711,0.556l0.575,2.3c0.349,0.105,0.691,0.229,1.026,0.371
	c0.275,0.119,0.547,0.249,0.812,0.391l0.011-0.006c0.255-1.188,0.383-2.399,0.383-3.614c0.001-4.593-1.798-9.003-5.013-12.284
	l-6.936,6.936l-1.037-1.037l6.904-6.904c-3.003-2.615-6.808-4.129-10.786-4.292v17.582c0,0.194-0.077,0.381-0.215,0.519
	l-12.436,12.436c3.241,3,7.5,4.661,11.917,4.646c1.214,0,2.424-0.128,3.611-0.383l0.007-0.01c-0.315-0.584-0.57-1.198-0.762-1.833
	L237.621,243.13z M253.933,240.8c0,2.43-1.971,4.4-4.4,4.4s-4.399-1.971-4.399-4.4s1.97-4.4,4.399-4.4S253.933,238.37,253.933,240.8
	z M236.333,210.749c-6.092,0.249-11.621,3.635-14.609,8.95c-2.989,5.314-3.01,11.798-0.058,17.132l3.882-3.882l1.037,1.037
	l-4.134,4.133c0.499,0.751,1.054,1.464,1.661,2.131l12.221-12.22V210.749z M258.375,239.215c-0.262-0.065-0.467-0.269-0.533-0.531
	c-0.202-0.795-0.518-1.556-0.938-2.26c-0.139-0.232-0.139-0.521,0-0.753l1.146-1.907l-1.477-1.482l-1.906,1.146
	c-0.232,0.139-0.521,0.139-0.753,0c-0.329-0.196-0.671-0.369-1.022-0.52c-0.401-0.17-0.815-0.31-1.238-0.417
	c-0.262-0.067-0.466-0.272-0.531-0.534l-0.543-2.157h-2.092l-0.539,2.158c-0.065,0.262-0.27,0.467-0.531,0.534
	c-0.795,0.202-1.557,0.518-2.261,0.937c-0.232,0.139-0.521,0.139-0.753,0l-1.906-1.145l-1.481,1.476l1.146,1.907
	c0.139,0.232,0.139,0.521,0,0.752c-0.42,0.705-0.736,1.466-0.938,2.26c-0.067,0.262-0.271,0.465-0.533,0.531l-2.157,0.544v2.091
	l2.158,0.54c0.262,0.065,0.467,0.27,0.533,0.531c0.202,0.794,0.519,1.556,0.938,2.26c0.138,0.231,0.138,0.521,0,0.752l-1.146,1.907
	l1.476,1.481l1.907-1.146c0.231-0.138,0.521-0.138,0.752,0c0.705,0.42,1.466,0.735,2.261,0.938c0.262,0.066,0.466,0.271,0.531,0.534
	l0.543,2.156h2.092l0.54-2.158c0.064-0.262,0.269-0.467,0.531-0.533c0.794-0.203,1.556-0.519,2.261-0.938
	c0.231-0.139,0.521-0.139,0.752,0l1.907,1.146l1.48-1.477l-1.146-1.906c-0.138-0.232-0.138-0.521,0-0.753
	c0.421-0.704,0.736-1.465,0.938-2.26c0.066-0.262,0.271-0.466,0.533-0.531l2.156-0.544v-2.091L258.375,239.215z M249.533,246.667
	c-3.24,0-5.866-2.627-5.866-5.867s2.626-5.867,5.866-5.867s5.867,2.626,5.867,5.867
	C255.396,244.038,252.771,246.663,249.533,246.667z M220.579,237.917l-2.364,2.365c-0.138,0.137-0.215,0.324-0.215,0.518v9.533
	h1.467v-9.229l1.921-1.921L220.579,237.917z M250.69,215.013l2.813-2.813h5.563v-1.467H253.2c-0.194,0-0.381,0.077-0.519,0.215
	l-3.057,3.057L250.69,215.013z M260.533,210.734H262v1.467h-1.467V210.734z M254.667,213.667H262v1.467h-7.333V213.667z
	 M254.667,216.6H262v1.467h-7.333V216.6z M256.866,219.533H262V221h-5.134V219.533z M218,251.8h1.467v1.467H218V251.8z
	 M220.933,248.866H229v1.467h-8.067V248.866z M220.933,245.934h4.4v1.467h-4.4V245.934z M220.933,251.8H229v1.467h-8.067V251.8z"/>
</svg>
