<?xml version="1.0" encoding="utf-8"?>
<!-- Generator: Adobe Illustrator 16.0.0, SVG Export Plug-In . SVG Version: 6.00 Build 0)  -->
<!DOCTYPE svg PUBLIC "-//W3C//DTD SVG 1.1//EN" "http://www.w3.org/Graphics/SVG/1.1/DTD/svg11.dtd">
<svg version="1.1" id="Capa_1" xmlns="http://www.w3.org/2000/svg" xmlns:xlink="http://www.w3.org/1999/xlink" x="0px" y="0px"
	 width="45px" height="33.99px" viewBox="127.5 133.005 45 33.99" enable-background="new 127.5 133.005 45 33.99"
	 xml:space="preserve">
<linearGradient id="SVGID_1_" gradientUnits="userSpaceOnUse" x1="127.5002" y1="150" x2="172.4998" y2="150">
	<stop  offset="0" style="stop-color:#47DD57"/>
	<stop  offset="1" style="stop-color:#A8E854"/>
</linearGradient>
<path fill="url(#SVGID_1_)" d="M138.327,146.144c-0.126-0.272-0.398-0.446-0.698-0.446c0,0-0.001,0-0.002,0
	c-0.3,0-0.573,0.176-0.698,0.449l-3.815,8.333c-0.177,0.387-0.007,0.844,0.379,1.021c0.104,0.048,0.213,0.07,0.32,0.07
	c0.292,0,0.571-0.167,0.7-0.449l0.957-2.091h4.352l0.97,2.094c0.179,0.386,0.636,0.554,1.022,0.375
	c0.385-0.18,0.553-0.637,0.375-1.022L138.327,146.144z M136.175,151.491l1.458-3.184l1.476,3.184H136.175z M147.217,145.603h-3.722
	c-0.425,0-0.77,0.345-0.77,0.77v8.428c0,0.426,0.344,0.771,0.77,0.771s0.77-0.345,0.77-0.771v-3.201h2.952
	c1.653,0,2.998-1.345,2.998-2.998C150.215,146.947,148.87,145.603,147.217,145.603z M147.217,150.059h-2.952v-2.917h2.952
	c0.804,0,1.458,0.654,1.458,1.458S148.021,150.059,147.217,150.059z M151.577,145.603c-0.425,0-0.77,0.345-0.77,0.77v8.428
	c0,0.426,0.345,0.771,0.77,0.771s0.77-0.345,0.77-0.771v-8.428C152.346,145.947,152.002,145.603,151.577,145.603z M171.117,133.005
	h-42.233c-0.763,0-1.384,0.621-1.384,1.384v31.222c0,0.763,0.621,1.384,1.384,1.384h42.233c0.763,0,1.383-0.621,1.383-1.384v-31.222
	C172.5,133.626,171.88,133.005,171.117,133.005z M160.77,158.203c0.611-1.444,2.02-2.377,3.588-2.377
	c0.522,0,1.032,0.104,1.518,0.309c1.977,0.838,2.904,3.128,2.067,5.104c-0.612,1.444-2.02,2.377-3.588,2.377l0,0
	c-0.522,0-1.032-0.104-1.517-0.31c-0.958-0.405-1.701-1.159-2.091-2.123C160.357,160.219,160.365,159.16,160.77,158.203z
	 M165.498,136.947c0.811,0,1.467,0.657,1.467,1.467s-0.656,1.467-1.467,1.467c-0.81,0-1.467-0.657-1.467-1.467
	S164.688,136.947,165.498,136.947z M161.098,136.947c0.81,0,1.467,0.657,1.467,1.467s-0.657,1.467-1.467,1.467
	c-0.811,0-1.467-0.657-1.467-1.467S160.288,136.947,161.098,136.947z M156.698,136.947c0.81,0,1.466,0.657,1.466,1.467
	s-0.656,1.467-1.466,1.467c-0.811,0-1.467-0.657-1.467-1.467S155.887,136.947,156.698,136.947z M130.019,164.686v-20.438h39.962
	v7.966c-0.182-0.261-0.436-0.476-0.749-0.608l-2.441-1.033c-0.217-0.093-0.446-0.139-0.682-0.139c-0.705,0-1.338,0.419-1.612,1.068
	l-0.148,0.351c-1.093,0.016-2.177,0.268-3.166,0.733l-0.287-0.249c-0.139-0.121-0.296-0.219-0.466-0.29
	c-0.218-0.093-0.447-0.14-0.683-0.14c-0.507,0-0.988,0.221-1.321,0.604l-1.737,2.003c-0.306,0.354-0.456,0.805-0.424,1.271
	c0.033,0.467,0.246,0.892,0.6,1.197l0.286,0.249c-0.326,1.048-0.422,2.152-0.28,3.237l-0.325,0.196
	c-0.827,0.497-1.095,1.575-0.597,2.403l1.044,1.734h-26.855C130.072,164.803,130.019,164.75,130.019,164.686z"/>
</svg>
