<?xml version="1.0" encoding="utf-8"?>
<!-- Generator: Adobe Illustrator 16.0.0, SVG Export Plug-In . SVG Version: 6.00 Build 0)  -->
<!DOCTYPE svg PUBLIC "-//W3C//DTD SVG 1.1//EN" "http://www.w3.org/Graphics/SVG/1.1/DTD/svg11.dtd">
<svg version="1.1" id="Capa_1" xmlns="http://www.w3.org/2000/svg" xmlns:xlink="http://www.w3.org/1999/xlink" x="0px" y="0px"
	 width="47px" height="42.947px" viewBox="0 0 47 42.947" enable-background="new 0 0 47 42.947" xml:space="preserve">
<linearGradient id="SVGID_1_" gradientUnits="userSpaceOnUse" x1="0" y1="21.4734" x2="47.001" y2="21.4734">
	<stop  offset="0" style="stop-color:#47DD57"/>
	<stop  offset="1" style="stop-color:#A8E854"/>
</linearGradient>
<path fill="url(#SVGID_1_)" d="M46.768,37.31l-2.434-7.037c-0.24-0.692-0.893-1.157-1.625-1.157H42.34
	c1.344-0.426,2.328-1.671,2.328-3.156V3.326C44.668,1.492,43.176,0,41.342,0H5.658C3.825,0,2.332,1.492,2.332,3.326V25.96
	c0,1.484,0.984,2.73,2.329,3.156H4.292c-0.732,0-1.385,0.465-1.625,1.156L0.234,37.31c-0.45,1.298-0.243,2.732,0.554,3.853
	c0.798,1.119,2.087,1.784,3.46,1.784H42.75c1.375,0,2.664-0.665,3.461-1.784C47.01,40.044,47.217,38.608,46.768,37.31z
	 M23.501,0.767c0.463,0,0.84,0.376,0.84,0.84s-0.377,0.839-0.84,0.839c-0.464,0-0.841-0.376-0.841-0.839S23.038,0.767,23.501,0.767z
	 M5.658,3.214l35.795,0.111V26.07L5.546,25.96L5.658,3.214z M29.973,39.691c-0.09,0.131-0.236,0.208-0.393,0.208H17.423
	c-0.158,0-0.306-0.077-0.394-0.208c-0.086-0.13-0.104-0.295-0.045-0.439l1.172-2.9c0.239-0.589,0.81-0.974,1.444-0.974H27.4
	c0.633,0,1.205,0.386,1.443,0.974l1.172,2.9C30.074,39.396,30.059,39.561,29.973,39.691z M18.38,14.779
	c-0.25-0.306-0.556-0.55-0.916-0.731c0.18-0.16,0.336-0.337,0.469-0.531c0.281-0.414,0.423-0.888,0.423-1.403
	c0-0.61-0.153-1.166-0.456-1.653c-0.303-0.484-0.723-0.868-1.252-1.138c-0.52-0.266-1.119-0.399-1.78-0.399h-3.229
	c-0.295,0-0.559,0.104-0.764,0.304c-0.207,0.2-0.318,0.471-0.318,0.779v9.147c0,0.298,0.108,0.563,0.313,0.769
	c0.206,0.205,0.472,0.313,0.769,0.313h3.514c0.725,0,1.385-0.15,1.964-0.447c0.588-0.301,1.054-0.73,1.381-1.278
	c0.328-0.543,0.494-1.165,0.494-1.844C18.992,15.913,18.786,15.278,18.38,14.779z M16.433,17.775
	c-0.318,0.271-0.737,0.402-1.279,0.402h-2.432v-2.86h2.432c0.549,0,0.986,0.123,1.3,0.366c0.287,0.223,0.427,0.546,0.427,0.983
	C16.88,17.158,16.734,17.52,16.433,17.775z M12.722,10.98h2.146c0.439,0,0.79,0.101,1.039,0.301
	c0.227,0.183,0.337,0.455,0.337,0.832c0,0.379-0.11,0.653-0.34,0.841c-0.249,0.203-0.599,0.306-1.037,0.306h-2.146V10.98
	L12.722,10.98z M27.006,19.167c0,0.288-0.109,0.549-0.314,0.755c-0.205,0.205-0.471,0.313-0.77,0.313h-5
	c-0.3,0-0.563-0.11-0.766-0.318c-0.197-0.205-0.303-0.464-0.303-0.75c0-0.292,0.1-0.549,0.289-0.744l3.828-4.477
	c0.499-0.569,0.76-1.066,0.76-1.441c0-0.497-0.119-0.875-0.361-1.157c-0.229-0.266-0.539-0.396-0.948-0.396
	c-0.263,0-0.498,0.067-0.717,0.206c-0.224,0.14-0.395,0.326-0.521,0.565c-0.129,0.243-0.192,0.499-0.192,0.78
	c0,0.277-0.104,0.532-0.302,0.737c-0.202,0.208-0.467,0.318-0.768,0.318c-0.289,0-0.549-0.108-0.754-0.314
	c-0.205-0.205-0.313-0.462-0.313-0.742c0-0.668,0.157-1.282,0.47-1.824c0.311-0.542,0.742-0.976,1.28-1.287
	c0.538-0.313,1.149-0.471,1.819-0.471c0.667,0,1.264,0.149,1.776,0.442c0.52,0.298,0.922,0.725,1.203,1.271
	c0.273,0.534,0.414,1.164,0.414,1.87c0,0.458-0.133,0.936-0.391,1.417c-0.242,0.452-0.547,0.888-0.908,1.294l-2.538,2.881h2.942
	c0.299,0,0.563,0.108,0.77,0.314C26.896,18.617,27.006,18.878,27.006,19.167z M36.094,14.779c-0.248-0.306-0.555-0.55-0.914-0.731
	c0.18-0.16,0.336-0.337,0.467-0.531c0.283-0.414,0.426-0.887,0.426-1.403c0-0.61-0.152-1.166-0.455-1.653
	c-0.303-0.484-0.725-0.868-1.254-1.138c-0.52-0.266-1.117-0.399-1.779-0.399h-3.229c-0.295,0-0.559,0.104-0.764,0.304
	c-0.209,0.201-0.318,0.471-0.318,0.779v9.147c0,0.297,0.107,0.563,0.313,0.769c0.205,0.205,0.471,0.313,0.77,0.313h3.514
	c0.725,0,1.385-0.15,1.963-0.447c0.59-0.301,1.055-0.73,1.383-1.278c0.328-0.543,0.494-1.165,0.494-1.844
	C36.707,15.913,36.5,15.278,36.094,14.779z M34.146,17.775c-0.318,0.271-0.736,0.402-1.279,0.402h-2.432v-2.86h2.432
	c0.551,0,0.986,0.123,1.301,0.366c0.287,0.223,0.428,0.546,0.428,0.983C34.596,17.158,34.449,17.52,34.146,17.775z M30.438,10.98
	h2.146c0.439,0,0.789,0.101,1.039,0.301c0.227,0.183,0.336,0.455,0.336,0.832c0,0.379-0.109,0.653-0.338,0.841
	c-0.25,0.203-0.6,0.306-1.037,0.306h-2.146V10.98L30.438,10.98z"/>
</svg>
