<?xml version="1.0" encoding="utf-8"?>
<!-- Generator: Adobe Illustrator 16.0.0, SVG Export Plug-In . SVG Version: 6.00 Build 0)  -->
<!DOCTYPE svg PUBLIC "-//W3C//DTD SVG 1.1//EN" "http://www.w3.org/Graphics/SVG/1.1/DTD/svg11.dtd">
<svg version="1.1" id="Capa_1" xmlns="http://www.w3.org/2000/svg" xmlns:xlink="http://www.w3.org/1999/xlink" x="0px" y="0px"
	 width="53px" height="47.619px" viewBox="163.861 166.552 53 47.619" enable-background="new 163.861 166.552 53 47.619"
	 xml:space="preserve">
<linearGradient id="SVGID_1_" gradientUnits="userSpaceOnUse" x1="163.8606" y1="190.3611" x2="216.8606" y2="190.3611">
	<stop  offset="0" style="stop-color:#47DD57"/>
	<stop  offset="1" style="stop-color:#A8E854"/>
</linearGradient>
<path fill="url(#SVGID_1_)" d="M181.845,191.041c0.035-0.566,0.07-1.134,0.144-1.708c0.138-1.36,0.433-2.725,0.734-4.053
	c0.184-0.662,0.383-1.316,0.591-1.956c0.267-0.625,0.528-1.246,0.789-1.852c0.589-1.184,1.249-2.29,2.036-3.216
	c0.187-0.239,0.372-0.47,0.553-0.702c0.207-0.208,0.414-0.408,0.614-0.608c0.421-0.381,0.787-0.793,1.208-1.096
	c0.838-0.621,1.581-1.211,2.336-1.577c0.728-0.406,1.352-0.758,1.915-0.958c1.104-0.444,1.729-0.667,1.729-0.667
	s-0.534,0.424-1.467,1.111c-0.482,0.314-0.993,0.811-1.602,1.319c-0.634,0.485-1.208,1.181-1.891,1.848
	c-0.342,0.34-0.607,0.768-0.93,1.162c-0.157,0.2-0.317,0.403-0.483,0.608c-0.134,0.227-0.273,0.454-0.414,0.686
	c-0.603,0.893-1.053,1.941-1.522,3.004c-0.192,0.556-0.387,1.121-0.586,1.691c-0.136,0.593-0.287,1.192-0.451,1.789
	c-0.247,1.227-0.488,2.478-0.593,3.765c-0.073,0.467-0.107,0.938-0.151,1.411c10.223,0.002,18.135,0.008,29.208,0.008
	c0.037-0.485,0.058-0.977,0.058-1.471c0-9.324-6.795-17.004-15.538-18.021c0.564-0.528,0.922-1.277,0.922-2.11
	c0.003-1.601-1.294-2.897-2.893-2.897c-1.6,0-2.898,1.296-2.898,2.897c0,0.834,0.356,1.582,0.922,2.11
	c-8.743,1.018-15.536,8.697-15.536,18.021c0,0.493,0.018,0.978,0.054,1.461C179.782,191.041,180.824,191.041,181.845,191.041z
	 M175.461,192.12h41.4v3.652h-41.4V192.12z M199.865,198.365c-2.104,1.022-9.441,3.668-9.441,3.668l-8.673-0.543
	c0,0,4.961-1.38,6.884-1.812c1.927-0.431,1.089-2.603,0.023-2.603c-1.065,0-10.347,0.383-10.347,0.383l-6.163,2.22l1.631,10.324
	c0,0,1.269-2.173,2.535-2.173c1.27,0,12.274,0.293,13.768,0c1.495-0.296,10.598-6.523,11.688-7.249
	C202.855,199.857,201.977,197.341,199.865,198.365z M163.861,200.788v13.383l9.442-1.769l-2.362-12.859L163.861,200.788z"/>
</svg>
