<?xml version="1.0" encoding="utf-8"?>
<!-- Generator: Adobe Illustrator 16.0.0, SVG Export Plug-In . SVG Version: 6.00 Build 0)  -->
<!DOCTYPE svg PUBLIC "-//W3C//DTD SVG 1.1//EN" "http://www.w3.org/Graphics/SVG/1.1/DTD/svg11.dtd">
<svg version="1.1" id="Слой_1" xmlns="http://www.w3.org/2000/svg" xmlns:xlink="http://www.w3.org/1999/xlink" x="0px" y="0px"
	 width="41px" height="42.29px" viewBox="227.691 234.855 41 42.29" enable-background="new 227.691 234.855 41 42.29"
	 xml:space="preserve">
<linearGradient id="SVGID_1_" gradientUnits="userSpaceOnUse" x1="227.6907" y1="256.0002" x2="268.6912" y2="256.0002">
	<stop  offset="0" style="stop-color:#47DD57"/>
	<stop  offset="1" style="stop-color:#A8E854"/>
</linearGradient>
<path fill="url(#SVGID_1_)" d="M268.674,249.2c-0.699-4.141-2.842-7.727-5.858-10.276c-3.019-2.552-6.911-4.068-11.106-4.068v0.005
	c-0.682,0-1.234,0.553-1.234,1.234v15.889c-0.006,0.093-0.001,0.188,0.014,0.283c0.112,0.673,0.75,1.129,1.423,1.017l15.745-2.66
	C268.331,250.51,268.786,249.873,268.674,249.2z M234.704,270.114c-0.795,0.795-0.731,2.109,0.146,2.813
	c3.283,2.631,7.459,4.219,11.985,4.219v-0.005h0.013c4.36,0,8.72-1.48,12.262-4.44c0.714-0.598,0.766-1.676,0.108-2.334
	L247.952,259.1c-0.617-0.617-1.618-0.617-2.234,0L234.704,270.114z M265.895,256c-0.076-0.729-0.689-1.265-1.395-1.265
	c-0.085,0-0.171,0.008-0.258,0.024l-11.498,2.129c-1.25,0.231-1.729,1.771-0.829,2.671l8.768,8.768
	c0.724,0.725,1.929,0.575,2.467-0.296c1.026-1.661,1.805-3.491,2.286-5.438c0.008-0.031,0.016-0.063,0.023-0.095
	c0.092-0.38,0.174-0.764,0.242-1.149C266.012,259.617,266.087,257.821,265.895,256z M245.083,256.23l1.29-1.29
	c0.296-0.296,0.463-0.698,0.463-1.117v-13.508c0-0.78-0.634-1.404-1.4-1.404c-0.037,0-0.073,0.001-0.11,0.004
	c-9.867,0.77-17.634,9.021-17.634,19.086c0,3.683,1.04,7.122,2.842,10.041c0.534,0.865,1.739,0.999,2.458,0.28L245.083,256.23z"/>
</svg>
