<?xml version="1.0" encoding="utf-8"?>
<!-- Generator: Adobe Illustrator 16.0.0, SVG Export Plug-In . SVG Version: 6.00 Build 0)  -->
<!DOCTYPE svg PUBLIC "-//W3C//DTD SVG 1.1//EN" "http://www.w3.org/Graphics/SVG/1.1/DTD/svg11.dtd">
<svg version="1.1" id="Слой_1" xmlns="http://www.w3.org/2000/svg" xmlns:xlink="http://www.w3.org/1999/xlink" x="0px" y="0px"
	 width="49px" height="49.096px" viewBox="231.302 231.252 49 49.096" enable-background="new 231.302 231.252 49 49.096"
	 xml:space="preserve">
<linearGradient id="SVGID_1_" gradientUnits="userSpaceOnUse" x1="231.3025" y1="255.8" x2="280.3025" y2="255.8">
	<stop  offset="0" style="stop-color:#47DD57"/>
	<stop  offset="1" style="stop-color:#A8E854"/>
</linearGradient>
<path fill="url(#SVGID_1_)" d="M238.869,259.67h-6.13c-0.795,0-1.437,0.641-1.437,1.437v17.805c0,0.795,0.642,1.437,1.437,1.437
	h6.13c0.795,0,1.437-0.642,1.437-1.437v-17.805C240.306,260.311,239.664,259.67,238.869,259.67z M276.443,266.221l-17.145,4.473
	c-0.229,0.058-0.479,0.096-0.719,0.096c-1.369,0-3.955,0-8.112,0c-0.794,0-1.437-0.642-1.437-1.437s0.642-1.437,1.437-1.437h7.452
	c1.59,0,2.873-1.283,2.873-2.874c0-1.589-1.283-2.873-2.873-2.873h-14.74v16.129h16.655c0.335,0,0.671-0.058,0.987-0.182
	l17.315-6.397C281.969,270.225,280.284,265.197,276.443,266.221z M275.441,231.252h-25.928c-0.527,0-0.954,0.428-0.954,0.954v25.929
	c0,0.526,0.427,0.954,0.954,0.954h25.928c0.526,0,0.954-0.428,0.954-0.954v-25.929C276.395,231.68,275.968,231.252,275.441,231.252z
	 M253.887,232.684h17.179v8.033h-17.179V232.684z M271.902,257.061h-18.849v-11.89h18.849V257.061z M266.216,233.877h2.386v5.727
	h-2.386V233.877z M270.172,248.114h-15.39v-0.955h15.39V248.114z M270.172,251.454h-15.39v-0.955h15.39V251.454z M270.172,254.675
	h-15.39v-0.955h15.39V254.675z"/>
</svg>
