<?xml version="1.0" encoding="utf-8"?>
<!-- Generator: Adobe Illustrator 16.0.0, SVG Export Plug-In . SVG Version: 6.00 Build 0)  -->
<!DOCTYPE svg PUBLIC "-//W3C//DTD SVG 1.1//EN" "http://www.w3.org/Graphics/SVG/1.1/DTD/svg11.dtd">
<svg version="1.1" id="Capa_1" xmlns="http://www.w3.org/2000/svg" xmlns:xlink="http://www.w3.org/1999/xlink" x="0px" y="0px"
	 width="47px" height="47.07px" viewBox="126.501 126.465 47 47.07" enable-background="new 126.501 126.465 47 47.07"
	 xml:space="preserve">
<linearGradient id="SVGID_1_" gradientUnits="userSpaceOnUse" x1="126.5007" y1="150" x2="173.5007" y2="150">
	<stop  offset="0" style="stop-color:#47DD57"/>
	<stop  offset="1" style="stop-color:#A8E854"/>
</linearGradient>
<path fill="url(#SVGID_1_)" d="M132.776,135.095h34.518v10.983h3.139v-14.303c0-0.765-0.623-1.387-1.387-1.387h-24.057l-1.95-3.249
	c-0.25-0.416-0.705-0.674-1.189-0.674h-10.824c-0.765,0-1.387,0.622-1.387,1.387v18.226h3.138V135.095z M134.345,142.939h31.38
	v3.138h-31.38V142.939z M135.13,139.802h29.811v2.354H135.13V139.802z M135.914,136.664h28.242v2.354h-28.242V136.664z
	 M161.802,158.63h-13.336v7.845h13.336V158.63z M157.095,160.198h0.784c0.435,0,0.785,0.351,0.785,0.784
	c0,0.435-0.351,0.785-0.785,0.785h-0.784c-0.434,0-0.784-0.351-0.784-0.785C156.311,160.549,156.663,160.198,157.095,160.198z
	 M150.82,160.198h3.138c0.434,0,0.784,0.351,0.784,0.784c0,0.435-0.351,0.785-0.784,0.785h-3.138c-0.435,0-0.785-0.351-0.785-0.785
	C150.035,160.549,150.386,160.198,150.82,160.198z M159.449,164.905h-8.629c-0.435,0-0.785-0.351-0.785-0.784
	c0-0.435,0.351-0.785,0.785-0.785h8.629c0.434,0,0.784,0.351,0.784,0.785C160.233,164.555,159.883,164.905,159.449,164.905z
	 M173.26,147.994c-0.189-0.221-0.465-0.348-0.757-0.348h-45.005c-0.291,0-0.566,0.126-0.755,0.346c-0.19,0.219-0.275,0.51-0.231,0.8
	l3.858,23.897c0.076,0.49,0.491,0.846,0.986,0.846h37.29c0.496,0,0.91-0.355,0.986-0.849l3.857-23.891
	C173.533,148.508,173.451,148.216,173.26,147.994z M163.372,168.043h-16.475v-10.982h16.475V168.043z"/>
</svg>
