<?xml version="1.0" encoding="utf-8"?>
<!-- Generator: Adobe Illustrator 16.0.0, SVG Export Plug-In . SVG Version: 6.00 Build 0)  -->
<!DOCTYPE svg PUBLIC "-//W3C//DTD SVG 1.1//EN" "http://www.w3.org/Graphics/SVG/1.1/DTD/svg11.dtd">
<svg version="1.1" id="Слой_1" xmlns="http://www.w3.org/2000/svg" xmlns:xlink="http://www.w3.org/1999/xlink" x="0px" y="0px"
	 width="45px" height="45px" viewBox="233.5 233.5 45 45" enable-background="new 233.5 233.5 45 45" xml:space="preserve">
<linearGradient id="surface1_1_" gradientUnits="userSpaceOnUse" x1="233.4998" y1="256.0002" x2="278.4998" y2="256.0002">
	<stop  offset="0" style="stop-color:#47DD57"/>
	<stop  offset="1" style="stop-color:#A8E854"/>
</linearGradient>
<path id="surface1" fill="url(#surface1_1_)" d="M240.277,268.803h-1.929c-2.673,0-4.848,2.175-4.848,4.849v3.53
	c0,0.729,0.59,1.318,1.318,1.318h5.686c-0.146-0.413-0.227-0.856-0.227-1.318V268.803z M249.691,261.742h-1.928
	c-2.673,0-4.849,2.175-4.849,4.849v10.591c0,0.729,0.59,1.318,1.318,1.318h5.686c-0.146-0.413-0.227-0.856-0.227-1.318V261.742z
	 M278.241,246.743l-9.414-12.709c-0.249-0.335-0.642-0.534-1.06-0.534s-0.812,0.198-1.06,0.534l-9.414,12.709
	c-0.296,0.4-0.342,0.933-0.118,1.378c0.225,0.444,0.68,0.725,1.178,0.725h3.389v28.336c0,0.729,0.59,1.318,1.318,1.318h9.414
	c0.728,0,1.318-0.59,1.318-1.318v-28.336h3.389c0.498,0,0.953-0.281,1.177-0.725C278.583,247.676,278.537,247.143,278.241,246.743z
	 M259.105,254.682h-1.929c-2.674,0-4.849,2.175-4.849,4.849v17.651c0,0.729,0.591,1.318,1.318,1.318h5.686
	c-0.146-0.413-0.227-0.856-0.227-1.318V254.682z"/>
</svg>
