<?xml version="1.0" encoding="utf-8"?>
<!-- Generator: Adobe Illustrator 16.0.0, SVG Export Plug-In . SVG Version: 6.00 Build 0)  -->
<!DOCTYPE svg PUBLIC "-//W3C//DTD SVG 1.1//EN" "http://www.w3.org/Graphics/SVG/1.1/DTD/svg11.dtd">
<svg version="1.1" id="Capa_1" xmlns="http://www.w3.org/2000/svg" xmlns:xlink="http://www.w3.org/1999/xlink" x="0px" y="0px"
	 width="50px" height="36.148px" viewBox="125 131.926 50 36.148" enable-background="new 125 131.926 50 36.148"
	 xml:space="preserve">
<g>
	<linearGradient id="SVGID_1_" gradientUnits="userSpaceOnUse" x1="124.9998" y1="150" x2="174.9998" y2="150">
		<stop  offset="0" style="stop-color:#47DD57"/>
		<stop  offset="1" style="stop-color:#A8E854"/>
	</linearGradient>
	<path fill="url(#SVGID_1_)" d="M175,136.409v15.135c0,0-3.239,0.639-3.906,0.723c-0.666,0.084-2.756,0.759-4.271-0.697
		c-2.336-2.24-10.638-10.495-10.638-10.495s-1.431-1.405-3.729-0.191c-2.109,1.112-5.237,2.742-6.543,3.376
		c-2.47,1.314-4.516-0.771-4.516-2.359c0-1.232,0.769-2.068,1.868-2.683c2.979-1.806,9.257-5.329,11.871-6.719
		c1.59-0.845,2.734-0.917,4.916,0.92c2.688,2.26,5.079,4.32,5.079,4.32s0.78,0.651,2.024,0.389
		C170.209,137.482,175,136.409,175,136.409z M141.958,162.055c0.402-1.033,0.268-2.188-0.503-2.98
		c-0.692-0.709-1.704-0.896-2.667-0.675c0.27-0.957,0.121-1.975-0.576-2.692c-0.695-0.707-1.704-0.898-2.668-0.675
		c0.268-0.955,0.119-1.973-0.578-2.689c-1.091-1.118-2.978-1.07-4.218,0.111c-1.233,1.183-2.023,3.327-0.922,4.589
		c1.099,1.255,2.361,0.491,3.324,0.272c-0.268,0.954-1.07,1.843-0.082,3.093c0.987,1.25,2.361,0.491,3.324,0.274
		c-0.269,0.951-1.036,1.929-0.085,3.087c0.958,1.163,2.528,0.543,3.565,0.222c-0.4,1.028-1.257,2.138-0.156,3.381
		c1.099,1.252,3.638,0.673,4.878-0.511c1.237-1.184,1.356-3.059,0.268-4.182C144.111,161.91,142.991,161.73,141.958,162.055z
		 M164.591,154.18c-8.967-8.966-4.749-4.747-9.574-9.583c0,0-1.45-1.444-3.361-0.605c-1.342,0.588-3.069,1.39-4.369,2.001
		c-1.428,0.749-2.457,0.98-2.939,0.978c-2.761-0.018-5.001-2.238-5.001-4.996c0-1.79,0.95-3.347,2.367-4.231
		c1.992-1.379,6.579-3.818,6.579-3.818s-1.397-1.771-4.458-1.771c-3.06,0-9.452,4.188-9.452,4.188s-1.813,1.162-4.399,0.115
		L125,134.723v17.319c0,0,1.423,0.412,2.701,0.934c0.289-0.823,0.754-1.584,1.401-2.212c2.121-2.02,5.636-2.041,7.566-0.054
		c0.581,0.604,0.987,1.324,1.194,2.121c0.777,0.24,1.482,0.665,2.048,1.248c0.583,0.6,0.987,1.324,1.196,2.117
		c0.776,0.24,1.48,0.667,2.048,1.25c0.639,0.659,1.065,1.456,1.264,2.319c0.812,0.236,1.545,0.677,2.137,1.28
		c1.159,1.191,1.571,2.808,1.322,4.366c0.002,0,0.006,0,0.007,0.004c0.019,0.024,0.719,0.805,1.155,1.244
		c0.855,0.855,2.251,0.855,3.108,0c0.852-0.855,0.855-2.249,0-3.108c-0.03-0.03-3.084-3.225-2.838-3.472
		c0.244-0.246,4.134,3.802,4.207,3.876c0.854,0.854,2.249,0.854,3.106,0c0.855-0.855,0.854-2.249,0-3.106
		c-0.042-0.04-0.217-0.208-0.282-0.274c0,0-3.856-3.437-3.563-3.729c0.297-0.296,5.089,4.176,5.096,4.176
		c0.861,0.775,2.188,0.77,3.017-0.06c0.807-0.806,0.823-2.081,0.109-2.94c-0.016-0.046-3.651-3.846-3.368-4.132
		c0.288-0.289,3.887,3.415,3.894,3.423c0.853,0.854,2.249,0.854,3.106,0c0.854-0.854,0.854-2.248,0-3.11
		C164.617,154.195,164.602,154.188,164.591,154.18z"/>
</g>
</svg>
