<?xml version="1.0" encoding="utf-8"?>
<!-- Generator: Adobe Illustrator 16.0.0, SVG Export Plug-In . SVG Version: 6.00 Build 0)  -->
<!DOCTYPE svg PUBLIC "-//W3C//DTD SVG 1.1//EN" "http://www.w3.org/Graphics/SVG/1.1/DTD/svg11.dtd">
<svg version="1.1" id="Capa_1" xmlns="http://www.w3.org/2000/svg" xmlns:xlink="http://www.w3.org/1999/xlink" x="0px" y="0px"
	 width="59px" height="43.701px" viewBox="319.123 234.15 59 43.701" enable-background="new 319.123 234.15 59 43.701"
	 xml:space="preserve">
<linearGradient id="SVGID_1_" gradientUnits="userSpaceOnUse" x1="319.1228" y1="256.0002" x2="378.1228" y2="256.0002">
	<stop  offset="0" style="stop-color:#47DD57"/>
	<stop  offset="1" style="stop-color:#A8E854"/>
</linearGradient>
<path fill="url(#SVGID_1_)" d="M329.621,243.777v-3.469c0-0.567,0.458-1.026,1.024-1.026h12.632c0.565,0,1.024,0.459,1.024,1.026
	v3.536c1.832,0.72,3.554,1.708,5.122,2.946v-7.508c0-2.834-2.293-5.131-5.122-5.131h-14.681c-2.828,0-5.121,2.297-5.121,5.131v7.375
	C326.07,245.443,327.793,244.476,329.621,243.777z M336.876,245.011c-9.813,0-17.753,7.955-17.753,17.788
	c0,5.984,2.976,11.532,7.96,14.839c0.209,0.139,0.456,0.213,0.707,0.213h18.173c0.251,0,0.498-0.074,0.707-0.213
	c4.984-3.307,7.96-8.854,7.96-14.839C354.63,252.968,346.69,245.011,336.876,245.011z M335.564,265.57c0.5,0.501,0.5,1.313,0,1.814
	s-1.311,0.501-1.811,0l-2.511-2.516v1.608c0,0.709-0.573,1.283-1.28,1.283s-1.28-0.574-1.28-1.283v-9.236
	c0-0.708,0.573-1.282,1.28-1.282s1.28,0.574,1.28,1.282v1.608l2.511-2.515c0.5-0.501,1.311-0.501,1.811,0c0.5,0.5,0.5,1.313,0,1.814
	l-3.704,3.711L335.564,265.57z M345.07,266.477c0,0.709-0.573,1.283-1.28,1.283c-0.408,0-0.771-0.192-1.005-0.491
	c-2.834,1.496-6.25-0.58-6.25-3.785v-3.25c0-2.357,1.915-4.276,4.268-4.276c1.605,0,3.06,0.889,3.796,2.32
	c0.324,0.63,0.077,1.403-0.552,1.728c-0.629,0.324-1.401,0.077-1.725-0.553c-0.816-1.587-3.227-1.008-3.227,0.781v3.25
	c0,0.943,0.766,1.71,1.707,1.71c0.884,0,1.613-0.676,1.699-1.539h-0.589c-0.707,0-1.28-0.574-1.28-1.282
	c0-0.709,0.573-1.283,1.28-1.283h1.877c0.707,0,1.28,0.574,1.28,1.283V266.477z M378.009,252.794
	c-0.207-0.457-0.662-0.749-1.163-0.749h-5.113v-16.617c0-0.706-0.572-1.278-1.278-1.278h-5.113c-0.705,0-1.277,0.573-1.277,1.278
	v16.617h-5.113c-0.501,0-0.956,0.294-1.163,0.749c-0.21,0.458-0.128,0.992,0.202,1.371l8.947,10.226
	c0.243,0.278,0.593,0.437,0.961,0.437s0.719-0.161,0.962-0.437l8.947-10.226C378.138,253.789,378.216,253.252,378.009,252.794z"/>
</svg>
