<?xml version="1.0" encoding="utf-8"?>
<!-- Generator: Adobe Illustrator 16.0.0, SVG Export Plug-In . SVG Version: 6.00 Build 0)  -->
<!DOCTYPE svg PUBLIC "-//W3C//DTD SVG 1.1//EN" "http://www.w3.org/Graphics/SVG/1.1/DTD/svg11.dtd">
<svg version="1.1" id="Layer_1" xmlns="http://www.w3.org/2000/svg" xmlns:xlink="http://www.w3.org/1999/xlink" x="0px" y="0px"
	 width="45px" height="45px" viewBox="127.5 127.5 45 45" enable-background="new 127.5 127.5 45 45" xml:space="preserve">
<linearGradient id="SVGID_1_" gradientUnits="userSpaceOnUse" x1="127.4998" y1="150" x2="172.4998" y2="150">
	<stop  offset="0" style="stop-color:#47DD57"/>
	<stop  offset="1" style="stop-color:#A8E854"/>
</linearGradient>
<path fill="url(#SVGID_1_)" d="M150,127.5c-12.358,0-22.5,10.142-22.5,22.5s10.142,22.5,22.5,22.5s22.5-10.142,22.5-22.5
	S162.358,127.5,150,127.5z M136.035,159.928c-2.077-2.913-3.174-6.348-3.174-9.928c0-9.45,7.688-17.139,17.139-17.139
	c3.58,0,7.015,1.097,9.928,3.173c0.061,0.043,0.428,0.377,0.479,0.428l-23.775,24.144
	C136.58,160.556,136.078,159.988,136.035,159.928z M150,167.139c-3.581,0-7.014-1.097-9.928-3.174
	c-0.061-0.043-0.311-0.278-0.361-0.329l23.808-24.167c0.052,0.051,0.403,0.543,0.446,0.604c2.077,2.914,3.174,6.347,3.174,9.928
	C167.138,159.45,159.45,167.139,150,167.139z M153.07,157.962h-5.516c-0.245,0-0.459,0.093-0.644,0.276
	c-0.184,0.184-0.276,0.397-0.276,0.643v5.517c0,0.245,0.092,0.46,0.276,0.644c0.184,0.184,0.398,0.275,0.644,0.275h5.516
	c0.245,0,0.46-0.092,0.643-0.275c0.185-0.184,0.277-0.398,0.277-0.644v-5.517c0-0.245-0.092-0.459-0.277-0.643
	C153.53,158.054,153.315,157.962,153.07,157.962z M160.31,141.45c-0.629-1.157-1.44-2.134-2.437-2.931
	c-0.995-0.797-2.115-1.433-3.355-1.908c-1.241-0.475-2.475-0.712-3.7-0.712c-4.658,0-8.212,2.038-10.664,6.113
	c-0.123,0.199-0.165,0.414-0.126,0.644c0.039,0.229,0.157,0.421,0.356,0.575l3.77,2.873c0.199,0.123,0.391,0.184,0.575,0.184
	c0.276,0,0.513-0.123,0.712-0.368c1.103-1.379,1.923-2.26,2.459-2.643c0.659-0.444,1.486-0.666,2.482-0.666
	c0.935,0,1.758,0.245,2.471,0.735c0.712,0.491,1.068,1.058,1.068,1.701c0,0.72-0.191,1.302-0.574,1.747
	c-0.384,0.444-1.027,0.873-1.932,1.287c-1.194,0.537-2.291,1.368-3.286,2.494c-0.996,1.127-1.494,2.325-1.494,3.597v1.035
	c0,0.291,0.08,0.578,0.241,0.861c0.161,0.284,0.356,0.426,0.586,0.426h5.516c0.245,0,0.459-0.119,0.644-0.357
	c0.184-0.236,0.275-0.485,0.275-0.746c0-0.383,0.211-0.896,0.632-1.54c0.422-0.643,0.946-1.142,1.575-1.494
	c0.597-0.337,1.063-0.608,1.401-0.815s0.778-0.541,1.322-1c0.544-0.459,0.965-0.916,1.264-1.368
	c0.299-0.452,0.567-1.038,0.805-1.758c0.237-0.72,0.356-1.494,0.356-2.321C161.253,143.82,160.938,142.606,160.31,141.45z"/>
</svg>
