<?xml version="1.0" encoding="utf-8"?>
<!-- Generator: Adobe Illustrator 16.0.0, SVG Export Plug-In . SVG Version: 6.00 Build 0)  -->
<!DOCTYPE svg PUBLIC "-//W3C//DTD SVG 1.1//EN" "http://www.w3.org/Graphics/SVG/1.1/DTD/svg11.dtd">
<svg version="1.1" id="Слой_1" xmlns="http://www.w3.org/2000/svg" xmlns:xlink="http://www.w3.org/1999/xlink" x="0px" y="0px"
	 width="428px" height="299.93px" viewBox="0 0 428 299.93" enable-background="new 0 0 428 299.93" xml:space="preserve">
<linearGradient id="SVGID_1_" gradientUnits="userSpaceOnUse" x1="-2.441406e-004" y1="149.9651" x2="427.9998" y2="149.9651">
	<stop  offset="0" style="stop-color:#47DD57"/>
	<stop  offset="1" style="stop-color:#A8E854"/>
</linearGradient>
<path fill="url(#SVGID_1_)" d="M317.922,187.93H110.078c-11.871,0-21.5,9.625-21.5,21.5s9.629,21.5,21.5,21.5h207.844
	c11.871,0,21.5-9.625,21.5-21.5S329.793,187.93,317.922,187.93z M148,214.93c0,3.313-2.688,6-6,6h-11c-3.313,0-6-2.688-6-6v-11
	c0-3.313,2.688-6,6-6h11c3.313,0,6,2.688,6,6V214.93z M303,214.93c0,3.313-2.688,6-6,6h-11c-3.313,0-6-2.688-6-6v-11
	c0-3.313,2.688-6,6-6h11c3.313,0,6,2.688,6,6V214.93z M53.758,234.93c-3.055-10.16-4.656-20.699-4.758-31.309v-21.574
	c0.117-6.754,0.82-13.484,2.094-20.117h-14.98C16.199,161.93,0,178.516,0,198.43s16.199,36.5,36.113,36.5H53.758z M391.886,161.93
	h-14.98c1.273,6.633,1.977,13.363,2.094,20.117v21.574c-0.102,10.609-1.703,21.148-4.758,31.309h17.645
	c19.914,0,36.113-16.586,36.113-36.5S411.801,161.93,391.886,161.93z M366,182.164c0-53.148-43.086-96.234-96.234-96.234H157.234
	C104.086,85.93,61,129.016,61,182.164v21.527c0,53.152,43.086,96.238,96.234,96.238h112.531c53.148,0,96.234-43.086,96.234-96.238
	V182.164z M317.922,242.93H110.078c-18.5,0-33.5-15-33.5-33.5c0-18.504,15-33.5,33.5-33.5h207.844c18.5,0,33.5,14.996,33.5,33.5
	C351.422,227.93,336.422,242.93,317.922,242.93z M353.91,28.11c-0.137,13.254,9.117,24.754,22.09,27.461V155.93h12V55.571
	c12.98-2.703,22.246-14.199,22.129-27.461C410.129,12.586,397.543,0,382.019,0S353.91,12.586,353.91,28.11z"/>
</svg>
