<?xml version="1.0" encoding="utf-8"?>
<!-- Generator: Adobe Illustrator 16.0.0, SVG Export Plug-In . SVG Version: 6.00 Build 0)  -->
<!DOCTYPE svg PUBLIC "-//W3C//DTD SVG 1.1//EN" "http://www.w3.org/Graphics/SVG/1.1/DTD/svg11.dtd">
<svg version="1.1" id="Слой_1" xmlns="http://www.w3.org/2000/svg" xmlns:xlink="http://www.w3.org/1999/xlink" x="0px" y="0px"
	 width="48px" height="49.344px" viewBox="126 125.328 48 49.344" enable-background="new 126 125.328 48 49.344"
	 xml:space="preserve">
<linearGradient id="SVGID_1_" gradientUnits="userSpaceOnUse" x1="126.0002" y1="150" x2="173.9998" y2="150">
	<stop  offset="0" style="stop-color:#47DD57"/>
	<stop  offset="1" style="stop-color:#A8E854"/>
</linearGradient>
<path fill="url(#SVGID_1_)" d="M167.184,171.264c0,1.879,1.528,3.408,3.408,3.408c1.879,0,3.407-1.528,3.407-3.408
	c0-1.879-1.528-3.408-3.407-3.408C168.713,167.855,167.184,169.385,167.184,171.264z M163.056,138.384
	c0-7.199-5.857-13.056-13.056-13.056c-7.199,0-13.056,5.857-13.056,13.056c0,7.199,5.857,13.056,13.056,13.056
	C157.199,151.44,163.056,145.583,163.056,138.384z M147.082,142.935c-0.417,0-0.835-0.159-1.154-0.478
	c-0.637-0.637-0.637-1.671,0-2.308l2.441-2.44v-8.079c0-0.901,0.73-1.632,1.632-1.632c0.901,0,1.632,0.73,1.632,1.632v8.755
	c0,0.433-0.172,0.848-0.479,1.154l-2.918,2.918C147.917,142.775,147.499,142.935,147.082,142.935z M126,171.264
	c0,1.879,1.529,3.408,3.408,3.408c1.879,0,3.408-1.528,3.408-3.408c0-1.879-1.529-3.408-3.408-3.408
	C127.529,167.855,126,169.385,126,171.264z M146.592,171.264c0,1.879,1.529,3.408,3.408,3.408s3.408-1.528,3.408-3.408
	c0-1.879-1.528-3.408-3.408-3.408S146.592,169.385,146.592,171.264z M129.408,165.168c0.607,0,1.194,0.091,1.749,0.257v-2.179h17.21
	v2.146c0.52-0.145,1.067-0.224,1.632-0.224c0.565,0,1.112,0.079,1.633,0.224v-2.146h17.21v2.179
	c0.555-0.166,1.142-0.257,1.749-0.257c0.523,0,1.03,0.066,1.516,0.19v-3.745c0-0.901-0.731-1.632-1.633-1.632h-18.842v-5.552
	c-0.537,0.054-1.082,0.082-1.632,0.082c-0.551,0-1.095-0.028-1.632-0.082v5.552h-18.843c-0.901,0-1.632,0.73-1.632,1.632v3.745
	C128.378,165.234,128.885,165.168,129.408,165.168z"/>
</svg>
