<svg height="480pt" viewBox="0 -8 480 480" width="480pt" xmlns="http://www.w3.org/2000/svg"><path d="m214.054688 353.414062c-3.558594-.890624-6.054688-4.089843-6.054688-7.757812v-35.3125c0-3.667969 2.496094-6.867188 6.054688-7.757812l25.097656-6.273438c2.09375-6.929688 4.878906-13.628906 8.3125-20l-13.3125-22.183594c-1.890625-3.148437-1.398438-7.179687 1.199218-9.777344l24.96875-24.96875c2.59375-2.589843 6.621094-3.085937 9.769532-1.199218l22.191406 13.3125c6.371094-3.429688 13.070312-6.214844 20-8.3125l6.269531-25.085938c.890625-3.5625 4.089844-6.066406 7.761719-6.066406h35.3125c3.671875 0 6.871094 2.503906 7.757812 6.066406l6.273438 25.085938c3.804688 1.144531 7.542969 2.496094 11.199219 4.046875 3.007812 1.296875 5.96875 2.714843 8.855469 4.265625l.113281-.070313c2.78125-12.957031 4.183593-26.171875 4.175781-39.425781.019531-50.105469-19.613281-98.21875-54.679688-134.007812l-75.664062 75.664062-11.3125-11.3125 75.320312-75.320312c-32.761718-28.523438-74.261718-45.039063-117.664062-46.824219v191.800781c0 2.121094-.84375 4.15625-2.34375 5.65625l-135.664062 135.664062c35.359374 32.734376 81.820312 50.847657 130.007812 50.679688 13.242188.007812 26.445312-1.390625 39.390625-4.167969l.074219-.113281c-3.433594-6.371094-6.21875-13.070312-8.3125-20zm0 0"/><path d="m392 328c0 26.507812-21.492188 48-48 48s-48-21.492188-48-48 21.492188-48 48-48 48 21.492188 48 48zm0 0"/><path d="m200 .167969c-66.460938 2.707031-126.769531 39.652343-159.371094 97.628906-32.605468 57.976563-32.839844 128.707031-.628906 186.898437l42.351562-42.351562 11.3125 11.3125-45.097656 45.085938c5.441406 8.199218 11.5 15.972656 18.121094 23.25l133.3125-133.304688zm0 0"/><path d="m440.457031 310.703125c-2.859375-.710937-5.09375-2.9375-5.816406-5.792969-2.203125-8.667968-5.652344-16.972656-10.234375-24.652344-1.507812-2.53125-1.507812-5.683593 0-8.210937l12.496094-20.800781-16.101563-16.167969-20.800781 12.496094c-2.53125 1.515625-5.6875 1.515625-8.214844 0-3.589844-2.132813-7.3125-4.027344-11.152344-5.671875-4.378906-1.859375-8.894531-3.382813-13.503906-4.550782-2.855468-.726562-5.082031-2.964843-5.792968-5.824218l-5.929688-23.527344h-22.8125l-5.890625 23.542969c-.710937 2.859375-2.933594 5.097656-5.792969 5.824219-8.667968 2.207031-16.976562 5.648437-24.664062 10.226562-2.527344 1.507812-5.679688 1.507812-8.207032 0l-20.800781-12.496094-16.160156 16.101563 12.496094 20.800781c1.511719 2.527344 1.511719 5.679688 0 8.207031-4.582031 7.683594-8.027344 15.988281-10.230469 24.65625-.726562 2.855469-2.957031 5.078125-5.816406 5.792969l-23.527344 5.9375v22.8125l23.542969 5.890625c2.859375.710937 5.09375 2.9375 5.816406 5.792969 2.203125 8.667968 5.652344 16.972656 10.234375 24.652344 1.507812 2.53125 1.507812 5.683593 0 8.210937l-12.496094 20.800781 16.101563 16.167969 20.800781-12.496094c2.527344-1.511719 5.679688-1.511719 8.207031 0 7.6875 4.574219 15.996094 8.019531 24.664063 10.222657 2.855468.726562 5.082031 2.964843 5.792968 5.824218l5.929688 23.527344h22.8125l5.890625-23.542969c.710937-2.859375 2.933594-5.097656 5.792969-5.824219 8.667968-2.207031 16.976562-5.648437 24.664062-10.226562 2.527344-1.507812 5.679688-1.507812 8.207032 0l20.800781 12.496094 16.160156-16.101563-12.496094-20.800781c-1.511719-2.527344-1.511719-5.679688 0-8.207031 4.582031-7.683594 8.027344-15.988281 10.230469-24.65625.726562-2.855469 2.957031-5.078125 5.816406-5.792969l23.527344-5.9375v-22.8125zm-96.457031 81.296875c-35.347656 0-64-28.652344-64-64s28.652344-64 64-64 64 28.652344 64 64c-.039062 35.328125-28.671875 63.960938-64 64zm0 0"/><path d="m28.136719 296.550781-25.792969 25.792969c-1.5 1.5-2.34375 3.535156-2.34375 5.65625v104h16v-100.6875l20.960938-20.960938zm0 0"/><path d="m356.625 46.6875 30.6875-30.6875h60.6875v-16h-64c-2.121094 0-4.15625.84375-5.65625 2.34375l-33.34375 33.34375zm0 0"/><path d="m464 0h16v16h-16zm0 0"/><path d="m400 32h80v16h-80zm0 0"/><path d="m400 64h80v16h-80zm0 0"/><path d="m424 96h56v16h-56zm0 0"/><path d="m0 448h16v16h-16zm0 0"/><path d="m32 416h88v16h-88zm0 0"/><path d="m32 384h48v16h-48zm0 0"/><path d="m32 448h88v16h-88zm0 0"/></svg>