<?xml version="1.0" encoding="utf-8"?>
<!-- Generator: Adobe Illustrator 16.0.0, SVG Export Plug-In . SVG Version: 6.00 Build 0)  -->
<!DOCTYPE svg PUBLIC "-//W3C//DTD SVG 1.1//EN" "http://www.w3.org/Graphics/SVG/1.1/DTD/svg11.dtd">
<svg version="1.1" id="Слой_1" xmlns="http://www.w3.org/2000/svg" xmlns:xlink="http://www.w3.org/1999/xlink" x="0px" y="0px"
	 width="241.193px" height="48.801px" viewBox="0 0 241.193 48.801" enable-background="new 0 0 241.193 48.801"
	 xml:space="preserve">
<g>
	<path fill="#00CC00" d="M13.112,27.51c0.001-0.593-0.22-1.192-0.676-1.641c-0.85-0.851-2.203-0.905-3.119-0.163
		c-0.059,0.057-0.114,0.104-0.171,0.162L5.97,29.043c-0.905,0.905-0.905,2.385,0,3.292c0.896,0.896,2.346,0.904,3.262,0.026
		l3.205-3.202C12.893,28.701,13.112,28.109,13.112,27.51z"/>
	<path fill="#00CC00" d="M18.496,32.894c0-0.592-0.219-1.193-0.677-1.643c-0.848-0.849-2.202-0.904-3.119-0.161
		c-0.057,0.058-0.112,0.104-0.17,0.161l-3.176,3.176c-0.906,0.906-0.907,2.385-0.001,3.291c0.896,0.896,2.346,0.905,3.262,0.028
		l3.204-3.205C18.276,34.084,18.496,33.493,18.496,32.894z"/>
	<path fill="#00CC00" d="M23.651,38.048c0-0.592-0.219-1.192-0.677-1.643c-0.849-0.847-2.201-0.902-3.118-0.159
		c-0.059,0.057-0.112,0.104-0.171,0.159l-3.177,3.178c-0.905,0.904-0.906,2.384-0.001,3.289c0.896,0.897,2.347,0.907,3.263,0.029
		l3.204-3.206C23.433,39.24,23.651,38.648,23.651,38.048z"/>
	<path fill="#00CC00" d="M25.105,41.493c-0.059,0.058-0.114,0.104-0.172,0.161l-3.176,3.176c-0.905,0.906-0.906,2.387-0.001,3.292
		c0.896,0.896,2.348,0.903,3.263,0.026l3.203-3.204c0.458-0.456,0.679-1.048,0.678-1.647c0-0.591-0.219-1.193-0.678-1.643
		C27.375,40.807,26.021,40.75,25.105,41.493z"/>
	<path fill="#00CC00" d="M43.275,25.778l-4.226-4.226l-5.045-5.054c-0.01-0.01-0.027-0.02-0.048-0.039l-1.7-1.696l-6.278,6.279
		c-1.862,1.862-4.88,1.862-6.743,0c-1.862-1.862-1.862-4.88,0-6.743l6.277-6.275c0,0-2.963-1.438-5.791-1.655l0.733-0.735
		c0.488-0.488,0.451-1.316-0.082-1.852l-1.936-1.936L17.471,0.88L0,18.35l0.968,0.966l1.937,1.937
		c0.533,0.535,1.362,0.571,1.852,0.083l2.013-2.012c0.264,2.692,1.784,4.35,1.784,4.35c0.65-0.548,2.015-0.889,2.674-0.889
		c1.086,0,2.174,0.409,3.004,1.24c1.21,1.199,1.544,2.955,0.98,4.461c0.468-0.17,0.964-0.257,1.459-0.257
		c1.099,0,2.186,0.411,3.015,1.25c1.077,1.077,1.46,2.593,1.135,3.985c0.313-0.086,0.647-0.124,0.973-0.124
		c0.124,0,0.257,0.009,0.382,0.021c0.678,0.058,1.345,0.275,1.937,0.666l1.229,1.229l5.16,5.159
		c0.145,0.144,0.306,0.258,0.467,0.362l3.7,3.699c0.915,0.907,2.384,0.907,3.29,0c0.905-0.905,0.905-2.374,0-3.289l-2.308-2.308
		c-0.059-0.039-0.115-0.059-0.173-0.114l-8.345-8.345c-0.532-0.533-0.532-1.393,0-1.917c0.524-0.533,1.384-0.533,1.918,0
		l2.938,2.938l2.47,2.472l2.938,2.936c0.037,0.038,0.047,0.086,0.075,0.125l0.027-0.028l2.251,2.24c0.907,0.906,2.375,0.906,3.281,0
		c0.905-0.906,0.905-2.374,0-3.291l-2.241-2.24l0.019-0.019c-0.026-0.037-0.075-0.048-0.112-0.086l-2.938-2.938l-2.471-2.47
		l-2.937-2.938c-0.534-0.534-0.534-1.393,0-1.917c0.523-0.533,1.382-0.533,1.917,0l8.345,8.345c0.037,0.038,0.056,0.086,0.085,0.135
		l2.346,2.345c0.906,0.906,2.374,0.906,3.29,0c0.906-0.904,0.906-2.384,0-3.29L43.275,25.778z"/>
	<path fill="#00CC00" d="M35.031,0l-0.967,0.968l-1.937,1.935c-0.533,0.534-0.571,1.362-0.084,1.852L33.79,6.5l-0.11,0.26
		c-0.025-0.027-0.045-0.062-0.072-0.088c-0.906-0.906-2.379-0.906-3.287,0l-9.271,9.271c-0.906,0.907-0.906,2.379,0,3.287
		c0.908,0.908,2.382,0.907,3.287,0l6.111-6.109c0,0,2.06-1.831,4.223,0.168c2.057,1.899,11.025,10.749,11.025,10.749
		s0.724-1.379,0.421-4.772c-0.016-0.177-0.069-0.376-0.146-0.586l1.776,1.776c0.488,0.487,1.317,0.449,1.853-0.083l1.936-1.937
		l0.968-0.968L35.031,0z"/>
</g>
<g>
	<path fill="#FFFFFF" d="M169.525,29.104c0,1.42-0.506,2.563-1.517,3.428c-0.967,0.806-2.176,1.207-3.625,1.207h-11.446v-2.612
		h11.446c0.718,0,1.341-0.162,1.867-0.484c0.603-0.395,0.9-0.93,0.9-1.604c0-0.675-0.308-1.193-0.922-1.562
		c-0.515-0.307-1.129-0.461-1.847-0.461h-7.073c-1.306,0-2.396-0.359-3.273-1.076c-0.938-0.776-1.406-1.803-1.406-3.076
		c0-1.26,0.47-2.276,1.406-3.055c0.879-0.717,1.969-1.076,3.273-1.076h11.313v2.615h-11.313c-0.498,0-0.925,0.139-1.275,0.418
		c-0.352,0.277-0.527,0.65-0.527,1.119c0,0.484,0.177,0.857,0.527,1.121s0.777,0.395,1.275,0.395h7.073
		c1.449,0,2.658,0.418,3.625,1.254C169.02,26.533,169.525,27.682,169.525,29.104z"/>
	<path fill="#FFFFFF" d="M185.322,21.348h-5.91v12.391h-2.592V21.348h-5.934v-2.615h14.436V21.348z"/>
	<path fill="#FFFFFF" d="M206.063,26.07c0,2.214-0.711,4.043-2.131,5.494c-1.422,1.449-3.23,2.174-5.429,2.174h-4.194
		c-2.185,0-3.988-0.725-5.416-2.174c-1.429-1.451-2.144-3.28-2.144-5.494c0-2.196,0.707-3.969,2.121-5.315
		c1.412-1.349,3.226-2.021,5.438-2.021h4.194c2.228,0,4.043,0.674,5.449,2.021C205.359,22.101,206.063,23.873,206.063,26.07z
		 M203.471,26.291c0-1.451-0.466-2.638-1.396-3.56c-0.93-0.924-2.119-1.385-3.57-1.385h-4.194c-1.437,0-2.619,0.461-3.549,1.385
		c-0.931,0.922-1.396,2.107-1.396,3.56c0,1.436,0.465,2.6,1.396,3.492c0.93,0.895,2.112,1.342,3.549,1.342h4.194
		c1.451,0,2.642-0.447,3.57-1.342C203.006,28.891,203.471,27.727,203.471,26.291z"/>
	<path fill="#FFFFFF" d="M225.814,33.738h-3.867l-4.195-4.219h-5.646v-2.592h7.028c0.968,0,1.781-0.213,2.439-0.637
		c0.748-0.498,1.121-1.209,1.121-2.131c0-1.875-1.188-2.813-3.562-2.813h-8.567v12.391h-2.613V18.732h10.767
		c1.934,0,3.491,0.418,4.68,1.252c1.36,0.953,2.043,2.353,2.043,4.197c0,1.26-0.396,2.344-1.188,3.252
		c-0.731,0.851-1.729,1.443-2.985,1.779L225.814,33.738z"/>
	<path fill="#FFFFFF" d="M241.193,33.738H228.23V18.732h12.963v2.615h-10.348v9.777h10.348V33.738z M240.512,27.434h-8.568v-2.615
		h8.568V27.434z"/>
</g>
<g>
	<path fill="#00A800" d="M89.632,27.594c0,0.996-0.25,1.936-0.748,2.818c-1.493,2.604-4.325,3.907-8.492,3.907H63.743V11.115H80.39
		c3.963,0,6.737,1.234,8.322,3.703c0.612,0.996,0.918,2.062,0.918,3.193c0,1.926-0.814,3.545-2.445,4.859
		C88.816,24.139,89.632,25.713,89.632,27.594z M85.725,17.979c0-0.975-0.566-1.721-1.699-2.242
		c-0.883-0.385-1.892-0.577-3.023-0.577H67.786v15.118h13.216c1.109,0,2.096-0.17,2.956-0.51c1.177-0.498,1.768-1.211,1.768-2.141
		c0-0.951-0.591-1.676-1.768-2.174c-0.884-0.363-1.869-0.545-2.956-0.545H70.164v-4.044h10.838c1.133,0,2.142-0.202,3.023-0.61
		C85.158,19.734,85.725,18.975,85.725,17.979z"/>
	<path fill="#00A800" d="M117.186,17.537c0,1.971-0.727,3.555-2.175,4.756c-1.359,1.108-3.048,1.664-5.063,1.664h-8.357
		c-1.088,0-2.039,0.227-2.854,0.68c-0.951,0.566-1.427,1.348-1.427,2.344v3.33h19.365v4.043H93.641V26.98
		c0-2.127,0.804-3.86,2.412-5.196c1.494-1.246,3.341-1.869,5.537-1.869h8.357c0.77,0,1.427-0.203,1.971-0.611
		s0.815-0.984,0.815-1.732c0-0.725-0.271-1.303-0.815-1.731s-1.201-0.646-1.971-0.646H94.015V11.15h15.934
		c2.016,0,3.703,0.558,5.063,1.666C116.46,14.016,117.186,15.588,117.186,17.537z"/>
	<path fill="#00A800" d="M147.83,27.594c0,0.996-0.25,1.936-0.748,2.818c-1.494,2.604-4.326,3.907-8.493,3.907h-16.646V11.115
		h16.646c3.964,0,6.738,1.234,8.323,3.703c0.612,0.996,0.918,2.062,0.918,3.193c0,1.926-0.814,3.545-2.446,4.859
		C147.015,24.139,147.83,25.713,147.83,27.594z M143.923,17.979c0-0.975-0.565-1.721-1.698-2.242
		c-0.884-0.385-1.892-0.577-3.023-0.577h-13.216v15.118H139.2c1.109,0,2.095-0.17,2.956-0.51c1.177-0.498,1.767-1.211,1.767-2.141
		c0-0.951-0.59-1.676-1.767-2.174c-0.884-0.363-1.869-0.545-2.956-0.545h-10.838v-4.044H139.2c1.133,0,2.141-0.202,3.023-0.61
		C143.356,19.734,143.923,18.975,143.923,17.979z"/>
</g>
</svg>
