<?xml version="1.0" encoding="utf-8"?>
<!-- Generator: Adobe Illustrator 16.0.0, SVG Export Plug-In . SVG Version: 6.00 Build 0)  -->
<!DOCTYPE svg PUBLIC "-//W3C//DTD SVG 1.1//EN" "http://www.w3.org/Graphics/SVG/1.1/DTD/svg11.dtd">
<svg version="1.1" id="Capa_1" xmlns="http://www.w3.org/2000/svg" xmlns:xlink="http://www.w3.org/1999/xlink" x="0px" y="0px"
	 width="585.938px" height="585.938px" viewBox="0 0 585.938 585.938" enable-background="new 0 0 585.938 585.938"
	 xml:space="preserve">
<path d="M583.032,490.401l-30.341-87.732c-2.995-8.627-11.114-14.42-20.251-14.42h-4.616c16.768-5.313,29.031-20.836,29.031-39.344
	V66.721c0-22.862-18.604-41.457-41.457-41.457H70.534c-22.851,0-41.457,18.595-41.457,41.457v282.182
	c0,18.507,12.269,34.031,29.033,39.344h-4.598c-9.135,0-17.256,5.791-20.249,14.42L2.92,490.401
	c-5.616,16.189-3.033,34.078,6.905,48.037c9.938,13.949,26.002,22.236,43.14,22.236H532.97c17.139,0,33.199-8.287,43.139-22.236
	C586.047,524.489,588.629,506.59,583.032,490.401z M292.978,34.832c5.771,0,10.468,4.695,10.468,10.467
	c0,5.782-4.696,10.467-10.468,10.467c-5.772,0-10.469-4.686-10.469-10.467C282.508,39.528,287.204,34.832,292.978,34.832z
	 M70.534,65.332l446.256,1.389V350.27l-447.646-1.367L70.534,65.332z M373.642,520.088c-1.098,1.625-2.937,2.594-4.893,2.594
	H217.208c-1.958,0-3.796-0.969-4.893-2.594c-1.074-1.621-1.292-3.679-0.566-5.484l14.614-36.166
	c2.975-7.326,10.095-12.129,17.999-12.129h97.235c7.902,0,15.023,4.803,17.996,12.129l14.615,36.166
	C374.931,516.41,374.717,518.465,373.642,520.088z"/>
<g>
	<path stroke="#000000" stroke-width="9.476" stroke-miterlimit="10" d="M205.413,145.709c5.838,2.977,10.415,7.133,13.729,12.465
		c3.311,5.335,4.969,11.371,4.969,18.108c0,5.504-1.49,10.444-4.464,14.824c-2.977,4.38-7.049,7.917-12.213,10.612
		c7.636,1.798,13.645,5.391,18.024,10.781c4.38,5.39,6.569,12.241,6.569,20.551c0,7.638-1.827,14.487-5.475,20.551
		c-3.65,6.064-8.759,10.781-15.329,14.15c-6.57,3.369-14.011,5.054-22.32,5.054h-43.797c-2.472,0-4.548-0.842-6.232-2.527
		c-1.685-1.685-2.527-3.761-2.527-6.232V150.005c0-2.582,0.842-4.688,2.527-6.317c1.684-1.626,3.761-2.442,6.232-2.442h40.26
		C192.89,141.245,199.573,142.735,205.413,145.709z M201.286,190.433c3.985-3.256,5.98-7.972,5.98-14.15
		c0-6.175-1.995-10.865-5.98-14.065c-3.987-3.201-9.293-4.801-15.918-4.801h-31.5v37.901h31.5
		C191.992,195.318,197.299,193.692,201.286,190.433z M207.94,250.486c4.827-4.098,7.244-9.91,7.244-17.435
		c0-6.962-2.387-12.297-7.159-16.003c-4.774-3.706-11.147-5.559-19.119-5.559h-35.038v45.145h35.038
		C196.764,256.634,203.11,254.586,207.94,250.486z"/>
	<path stroke="#000000" stroke-width="9.476" stroke-miterlimit="10" d="M329.391,258.15c1.686,1.685,2.527,3.706,2.527,6.064
		c0,2.358-0.842,4.379-2.527,6.064c-1.684,1.685-3.764,2.527-6.232,2.527h-62.326c-2.472,0-4.522-0.842-6.149-2.527
		c-1.629-1.685-2.442-3.706-2.442-6.064c0-2.469,0.785-4.49,2.358-6.064l47.84-55.926c7.074-8.085,10.611-15.103,10.611-21.056
		c0-7.299-1.881-13.139-5.643-17.519c-3.764-4.379-8.9-6.569-15.413-6.569c-4.156,0-7.975,1.095-11.455,3.285
		c-3.482,2.19-6.207,5.138-8.17,8.844c-1.966,3.706-2.948,7.693-2.948,11.96c0,2.248-0.816,4.211-2.442,5.896
		c-1.629,1.684-3.68,2.526-6.148,2.526c-2.358,0-4.38-0.842-6.064-2.526c-1.685-1.685-2.527-3.648-2.527-5.896
		c0-7.522,1.74-14.318,5.222-20.382c3.479-6.064,8.225-10.836,14.234-14.318c6.006-3.48,12.773-5.222,20.298-5.222
		c7.522,0,14.12,1.629,19.794,4.885c5.668,3.258,10.049,7.891,13.139,13.897c3.088,6.009,4.633,13.055,4.633,21.141
		c0,4.943-1.434,10.081-4.297,15.413c-2.863,5.335-6.43,10.418-10.695,15.245l-38.576,43.797h47.166
		C325.627,255.623,327.707,256.466,329.391,258.15z"/>
	<path stroke="#000000" stroke-width="9.476" stroke-miterlimit="10" d="M426.25,145.709c5.838,2.977,10.415,7.133,13.729,12.465
		c3.312,5.335,4.97,11.371,4.97,18.108c0,5.504-1.49,10.444-4.465,14.824c-2.977,4.38-7.048,7.917-12.212,10.612
		c7.635,1.798,13.645,5.391,18.023,10.781c4.38,5.39,6.57,12.241,6.57,20.551c0,7.638-1.827,14.487-5.475,20.551
		c-3.651,6.064-8.76,10.781-15.329,14.15c-6.569,3.369-14.011,5.054-22.32,5.054h-43.797c-2.472,0-4.548-0.842-6.232-2.527
		s-2.527-3.761-2.527-6.232V150.005c0-2.582,0.843-4.688,2.527-6.317c1.685-1.626,3.761-2.442,6.232-2.442h40.26
		C413.727,141.245,420.409,142.735,426.25,145.709z M422.123,190.433c3.984-3.256,5.979-7.972,5.979-14.15
		c0-6.175-1.995-10.865-5.979-14.065c-3.988-3.201-9.294-4.801-15.919-4.801h-31.5v37.901h31.5
		C412.829,195.318,418.135,193.692,422.123,190.433z M428.777,250.486c4.827-4.098,7.243-9.91,7.243-17.435
		c0-6.962-2.387-12.297-7.159-16.003c-4.774-3.706-11.146-5.559-19.119-5.559h-35.037v45.145h35.037
		C417.601,256.634,423.947,254.586,428.777,250.486z"/>
</g>
</svg>
