<?xml version="1.0" encoding="utf-8"?>
<!-- Generator: Adobe Illustrator 16.0.0, SVG Export Plug-In . SVG Version: 6.00 Build 0)  -->
<!DOCTYPE svg PUBLIC "-//W3C//DTD SVG 1.1//EN" "http://www.w3.org/Graphics/SVG/1.1/DTD/svg11.dtd">
<svg version="1.1" id="Capa_1" xmlns="http://www.w3.org/2000/svg" xmlns:xlink="http://www.w3.org/1999/xlink" x="0px" y="0px"
	 width="102px" height="89.423px" viewBox="99 105.289 102 89.423" enable-background="new 99 105.289 102 89.423"
	 xml:space="preserve">
<linearGradient id="SVGID_1_" gradientUnits="userSpaceOnUse" x1="98.9998" y1="150.0005" x2="200.9998" y2="150.0005">
	<stop  offset="0" style="stop-color:#47DD57"/>
	<stop  offset="1" style="stop-color:#A8E854"/>
</linearGradient>
<path fill="url(#SVGID_1_)" d="M182.552,154.353v19.875l-32.636,9.822v-68.042l8.92,2.687c1.238-2.98,3.043-5.667,5.247-7.976
	l-17.399-5.226c-0.084-0.021-0.168-0.042-0.252-0.063c-0.084-0.021-0.168-0.042-0.252-0.063c-0.545-0.104-1.091-0.104-1.637,0
	c-0.084,0.021-0.168,0.042-0.252,0.063c-0.084,0.021-0.168,0.021-0.252,0.063l-9.36,2.813l-9.277,2.792v23.38l-10.326,1.952v-22.247
	l-9.024,2.708l0,0l-3.799,1.133c-1.931,0.588-3.253,2.351-3.253,4.366v55.197c0,2.015,1.322,3.799,3.253,4.365l41.765,12.571
	c0.42,0.127,0.881,0.189,1.322,0.189s0.881-0.063,1.322-0.189l41.766-12.571c1.931-0.587,3.253-2.351,3.253-4.365v-24.912
	c-2.813,1.07-5.855,1.679-9.046,1.679C182.594,154.353,182.573,154.353,182.552,154.353z M182.635,110.195
	c-10.158,0-18.364,8.227-18.364,18.364c0,10.158,8.228,18.364,18.364,18.364S201,138.696,201,128.559
	C201,118.422,192.772,110.195,182.635,110.195z M183.79,132.588l-3.525,3.505l-3.505-3.526l-3.38-3.4l3.526-3.505l3.379,3.4
	l8.102-8.059l3.505,3.526L183.79,132.588z"/>
</svg>
