<?xml version="1.0" encoding="utf-8"?>
<!-- Generator: Adobe Illustrator 16.0.0, SVG Export Plug-In . SVG Version: 6.00 Build 0)  -->
<!DOCTYPE svg PUBLIC "-//W3C//DTD SVG 1.1//EN" "http://www.w3.org/Graphics/SVG/1.1/DTD/svg11.dtd">
<svg version="1.1" id="Capa_1" xmlns="http://www.w3.org/2000/svg" xmlns:xlink="http://www.w3.org/1999/xlink" x="0px" y="0px"
	 width="110px" height="99.762px" viewBox="95 100.12 110 99.762" enable-background="new 95 100.12 110 99.762"
	 xml:space="preserve">
<linearGradient id="XMLID_2_" gradientUnits="userSpaceOnUse" x1="95.0002" y1="150.001" x2="204.9998" y2="150.001">
	<stop  offset="0" style="stop-color:#47DD57"/>
	<stop  offset="1" style="stop-color:#A8E854"/>
</linearGradient>
<path id="XMLID_146_" fill="url(#XMLID_2_)" d="M114.408,138.933c0.417,0,0.807-0.096,1.217-0.122l-5.796-3.551
	c-2.605-1.596-4.193-4.428-4.197-7.479l-0.011-6.755c-0.007-4.854,3.918-8.796,8.772-8.803c0.004,0,0.012,0,0.016,0
	c4.846,0,8.78,3.925,8.787,8.773l0.004,1.843l8.556,5.241c1.279-2.59,2.064-5.466,2.064-8.55c0-10.727-8.689-19.409-19.411-19.409
	c-10.721,0-19.408,8.683-19.408,19.409C95,130.246,103.687,138.933,114.408,138.933z M201.469,154.144
	c-2.891-1.179-6.188,0.224-7.365,3.114L181.4,188.575h-10.83h-17.456c-0.873,0-1.688,0.213-2.428,0.566
	c-1.898,0.911-3.225,2.836-3.225,5.087c0,3.123,2.531,5.653,5.653,5.653h32.093c2.302,0,4.373-1.395,5.241-3.529l14.137-34.845
	C205.757,158.615,204.364,155.317,201.469,154.144z M118.804,121.002c-0.004-2.425-1.971-4.387-4.396-4.387
	c-0.004,0-0.004,0-0.008,0c-2.424,0.004-4.392,1.975-4.387,4.402l0.01,6.755c0.004,1.526,0.801,2.941,2.099,3.739l18.785,11.51
	c0.718,0.439,1.508,0.649,2.294,0.649c1.479,0,2.921-0.747,3.75-2.101c1.27-2.068,0.62-4.775-1.449-6.042l-16.695-10.228
	L118.804,121.002z M174.081,176.419c0-3.903-3.165-7.066-7.069-7.066h-25.489l-17.451-16.829l7.561,4.755
	c-0.308-7.588-6.513-13.657-14.175-13.657h-6.075c-7.86,0-14.23,6.371-14.23,14.229v37.926c0,2.268,1.836,4.104,4.103,4.104h26.33
	c2.268,0,4.103-1.837,4.103-4.104v-8.349c-0.701-0.533-1.348-1.133-1.846-1.853l-15.583-22.878l19.504,18.809
	c1.318,1.271,3.079,1.98,4.907,1.98h28.342C170.916,183.486,174.081,180.323,174.081,176.419z"/>
</svg>
