<?xml version="1.0" encoding="utf-8"?>
<!-- Generator: Adobe Illustrator 16.0.0, SVG Export Plug-In . SVG Version: 6.00 Build 0)  -->
<!DOCTYPE svg PUBLIC "-//W3C//DTD SVG 1.1//EN" "http://www.w3.org/Graphics/SVG/1.1/DTD/svg11.dtd">
<svg version="1.1" id="Layer_1" xmlns="http://www.w3.org/2000/svg" xmlns:xlink="http://www.w3.org/1999/xlink" x="0px" y="0px"
	 width="85.285px" height="97px" viewBox="182.438 207.5 85.285 97" enable-background="new 182.438 207.5 85.285 97"
	 xml:space="preserve">
<g>
	<linearGradient id="SVGID_1_" gradientUnits="userSpaceOnUse" x1="182.7712" y1="259.5276" x2="268.0207" y2="259.5276">
		<stop  offset="0" style="stop-color:#47DD57"/>
		<stop  offset="1" style="stop-color:#A8E854"/>
	</linearGradient>
	<path fill="url(#SVGID_1_)" d="M236.287,246.516c-1.979,0-3.839,0.771-5.238,2.169l-11.208,11.208
		c-2.888,2.888-2.888,7.587,0,10.476c1.399,1.399,3.259,2.17,5.238,2.17c1.979,0,3.84-0.771,5.238-2.17l11.207-11.207
		c2.889-2.888,2.889-7.587,0-10.477C240.126,247.287,238.265,246.516,236.287,246.516z"/>
	<linearGradient id="SVGID_2_" gradientUnits="userSpaceOnUse" x1="182.7712" y1="256.0002" x2="268.0549" y2="256.0002">
		<stop  offset="0" style="stop-color:#47DD57"/>
		<stop  offset="1" style="stop-color:#A8E854"/>
	</linearGradient>
	<path fill="url(#SVGID_2_)" d="M259.879,236.641c1.748,0,3.394-0.765,4.512-2.099l1.957-2.332c2.086-2.486,1.761-6.206-0.726-8.292
		l-6.996-5.87c-1.056-0.885-2.397-1.373-3.778-1.373c-1.749,0-3.394,0.765-4.513,2.099l-1.956,2.332
		c-1.009,1.202-1.488,2.728-1.352,4.296c0.049,0.559,0.176,1.099,0.371,1.607l-3.146,3.75c-3.61-2.022-7.57-3.491-11.765-4.293
		v-4.15h0.202c3.245,0,5.886-2.641,5.886-5.886v-3.044c0-3.245-2.641-5.885-5.886-5.885h-15.22c-3.245,0-5.885,2.64-5.885,5.885
		v3.044c0,3.246,2.641,5.886,5.885,5.886h0.202v4.149c-4.194,0.802-8.154,2.271-11.765,4.293l-3.146-3.75
		c0.743-1.935,0.444-4.206-0.98-5.903l-1.957-2.332c-1.119-1.333-2.764-2.099-4.512-2.099c-1.381,0-2.724,0.488-3.779,1.373
		l-6.996,5.871c-1.202,1.008-1.938,2.427-2.076,3.996c-0.137,1.568,0.343,3.094,1.351,4.296l1.957,2.332
		c1.119,1.334,2.764,2.1,4.513,2.1c0.382,0,0.76-0.039,1.13-0.111l3.154,3.758c-5.531,6.781-8.853,15.431-8.853,24.844
		c0,21.707,17.661,39.368,39.368,39.368s39.369-17.661,39.369-39.368c0-9.413-3.322-18.063-8.853-24.844l3.153-3.758
		C259.119,236.603,259.497,236.641,259.879,236.641z M225.079,295.368c-16.672,0-30.237-13.563-30.237-30.236
		c0-16.673,13.564-30.237,30.237-30.237c16.673,0,30.237,13.564,30.237,30.237S241.753,295.368,225.079,295.368z"/>
</g>
</svg>
