<?xml version="1.0" encoding="utf-8"?>
<!-- Generator: Adobe Illustrator 16.0.0, SVG Export Plug-In . SVG Version: 6.00 Build 0)  -->
<!DOCTYPE svg PUBLIC "-//W3C//DTD SVG 1.1//EN" "http://www.w3.org/Graphics/SVG/1.1/DTD/svg11.dtd">
<svg version="1.1" id="Capa_1" xmlns="http://www.w3.org/2000/svg" xmlns:xlink="http://www.w3.org/1999/xlink" x="0px" y="0px"
	 width="102px" height="128.111px" viewBox="342.534 329.479 102 128.111" enable-background="new 342.534 329.479 102 128.111"
	 xml:space="preserve">
<linearGradient id="SVGID_1_" gradientUnits="userSpaceOnUse" x1="342.5339" y1="393.5344" x2="444.5334" y2="393.5344">
	<stop  offset="0" style="stop-color:#47DD57"/>
	<stop  offset="1" style="stop-color:#A8E854"/>
</linearGradient>
<path fill="url(#SVGID_1_)" d="M367.349,345.881h10.122v39.087h-10.122V345.881z M365.437,449.178c0-1.379,0.251-2.698,0.708-3.919
	h-19.236v-30.16h29.449v22.87c0.098-0.002,0.197-0.007,0.296-0.007h4.079v-25.627c0-1.278-1.036-2.314-2.314-2.314h-33.571
	c-1.278,0-2.313,1.036-2.313,2.314v38.084c0,1.278,1.036,2.314,2.313,2.314h21.171C365.644,451.615,365.437,450.42,365.437,449.178z
	 M410.548,374.198v-20.747h-10.121v23.49C403.444,375.274,406.887,374.289,410.548,374.198z M427.087,381.016v-19.995h-10.121
	v13.958C420.875,376.052,424.357,378.171,427.087,381.016z M436.122,329.479h-79.058c-4.646,0-8.412,3.766-8.412,8.412v55.093
	c0,4.646,3.766,8.412,8.412,8.412h32.466c-0.379-1.622-0.583-3.311-0.583-5.047c0-0.854,0.05-1.695,0.145-2.523h-31.196v-56.776
	h77.392v56.776h-2.17c0.095,0.829,0.145,1.67,0.145,2.524c0,1.736-0.202,3.425-0.582,5.047h3.44c4.646,0,8.411-3.767,8.411-8.412
	v-55.093C444.533,333.245,440.768,329.479,436.122,329.479z M434.651,441.289v-15.487c0-4.646-3.767-8.412-8.412-8.412h-30.264
	c-4.646,0-8.412,3.767-8.412,8.412v14.965h-10.91c-4.646,0-8.412,3.766-8.412,8.411s3.766,8.412,8.412,8.412h55.071
	c4.646,0,8.412-3.767,8.412-8.412C440.136,445.561,437.853,442.478,434.651,441.289z M411.107,376.995
	c10.688,0,19.354,8.665,19.354,19.354c0,10.688-8.666,19.354-19.354,19.354s-19.354-8.666-19.354-19.354
	C391.753,385.66,400.418,376.995,411.107,376.995z M394.01,382.224v-16.799h-10.122v19.544h8.183
	C392.648,384.004,393.296,383.086,394.01,382.224z"/>
</svg>
