<svg xmlns="http://www.w3.org/2000/svg" height="903pt" version="1.1" viewBox="-46 0 903 903.75225" width="903pt">
<g id="surface1">
<path d="M 542.363281 226.351562 C 535.234375 224.773438 530.160156 218.449219 530.160156 211.144531 L 530.160156 140.234375 L 405.503906 140.234375 L 405.503906 211.144531 C 405.503906 218.449219 400.425781 224.773438 393.300781 226.351562 C 222.671875 264.355469 107.964844 424.675781 127.085938 598.449219 C 146.203125 772.214844 293.011719 903.753906 467.828125 903.753906 C 642.644531 903.753906 789.453125 772.214844 808.578125 598.449219 C 827.695312 424.675781 712.992188 264.355469 542.363281 226.351562 Z M 513.546875 701.183594 L 483.410156 701.183594 L 483.410156 732.347656 L 452.253906 732.347656 L 452.253906 701.183594 L 374.339844 701.183594 L 374.339844 670.019531 L 513.546875 670.019531 C 539.363281 670.019531 560.292969 649.089844 560.292969 623.269531 C 560.292969 597.457031 539.363281 576.527344 513.546875 576.527344 L 422.113281 576.527344 C 379.085938 576.527344 344.199219 541.640625 344.199219 498.613281 C 344.199219 455.582031 379.085938 420.707031 422.113281 420.707031 L 452.253906 420.707031 L 452.253906 389.542969 L 483.410156 389.542969 L 483.410156 420.707031 L 561.324219 420.707031 L 561.324219 451.875 L 422.113281 451.875 C 396.300781 451.875 375.363281 472.800781 375.363281 498.613281 C 375.363281 524.4375 396.300781 545.363281 422.113281 545.363281 L 513.546875 545.363281 C 556.566406 545.363281 591.453125 580.246094 591.453125 623.269531 C 591.453125 666.296875 556.566406 701.183594 513.546875 701.183594 Z M 513.546875 701.183594 " style=" stroke:none;fill-rule:nonzero;fill:rgb(0%,0%,0%);fill-opacity:1;" />
<path d="M 78.285156 0 L 109.449219 0 L 109.449219 46.75 L 78.285156 46.75 Z M 78.285156 0 " style=" stroke:none;fill-rule:nonzero;fill:rgb(0%,0%,0%);fill-opacity:1;" />
<path d="M 0.375 77.90625 L 47.125 77.90625 L 47.125 109.070312 L 0.375 109.070312 Z M 0.375 77.90625 " style=" stroke:none;fill-rule:nonzero;fill:rgb(0%,0%,0%);fill-opacity:1;" />
<path d="M 140.613281 77.90625 L 187.355469 77.90625 L 187.355469 109.070312 L 140.613281 109.070312 Z M 140.613281 77.90625 " style=" stroke:none;fill-rule:nonzero;fill:rgb(0%,0%,0%);fill-opacity:1;" />
<path d="M 4.9375 26.597656 L 26.972656 4.566406 L 58.136719 35.71875 L 36.097656 57.761719 Z M 4.9375 26.597656 " style=" stroke:none;fill-rule:nonzero;fill:rgb(0%,0%,0%);fill-opacity:1;" />
<path d="M 129.59375 35.726562 L 160.753906 4.566406 L 182.789062 26.601562 L 151.628906 57.761719 Z M 129.59375 35.726562 " style=" stroke:none;fill-rule:nonzero;fill:rgb(0%,0%,0%);fill-opacity:1;" />
<path d="M 4.9375 160.375 L 36.097656 129.222656 L 58.128906 151.25 L 26.972656 182.410156 Z M 4.9375 160.375 " style=" stroke:none;fill-rule:nonzero;fill:rgb(0%,0%,0%);fill-opacity:1;" />
<path d="M 452.253906 109.070312 L 483.410156 109.070312 C 483.410156 48.832031 434.582031 0 374.339844 0 C 314.097656 0 265.269531 48.832031 265.269531 109.070312 C 265.269531 152.097656 230.382812 186.984375 187.355469 186.984375 C 144.332031 186.984375 109.449219 152.097656 109.449219 109.070312 L 109.449219 93.488281 L 78.285156 93.488281 L 78.285156 109.070312 C 78.285156 169.308594 127.113281 218.144531 187.355469 218.144531 C 247.601562 218.144531 296.433594 169.308594 296.433594 109.070312 C 296.433594 66.039062 331.316406 31.164062 374.339844 31.164062 C 417.367188 31.164062 452.253906 66.039062 452.253906 109.070312 Z M 452.253906 109.070312 " style=" stroke:none;fill-rule:nonzero;fill:rgb(0%,0%,0%);fill-opacity:1;" />
</g>
</svg>