<?xml version="1.0" encoding="utf-8"?>
<!-- Generator: Adobe Illustrator 16.0.0, SVG Export Plug-In . SVG Version: 6.00 Build 0)  -->
<!DOCTYPE svg PUBLIC "-//W3C//DTD SVG 1.1//EN" "http://www.w3.org/Graphics/SVG/1.1/DTD/svg11.dtd">
<svg version="1.1" id="Слой_1" xmlns="http://www.w3.org/2000/svg" xmlns:xlink="http://www.w3.org/1999/xlink" x="0px" y="0px"
	 width="50px" height="55.768px" viewBox="380.516 423.617 50 55.768" enable-background="new 380.516 423.617 50 55.768"
	 xml:space="preserve">
<linearGradient id="surface1_1_" gradientUnits="userSpaceOnUse" x1="380.5159" y1="451.5012" x2="430.5159" y2="451.5012">
	<stop  offset="0" style="stop-color:#47DD57"/>
	<stop  offset="1" style="stop-color:#A8E854"/>
</linearGradient>
<path id="surface1" fill="url(#surface1_1_)" d="M413.96,437.584c-0.44-0.097-0.753-0.488-0.753-0.938v-4.375h-7.692v4.375
	c0,0.451-0.313,0.841-0.753,0.938c-10.529,2.345-17.607,12.238-16.427,22.961s10.239,18.84,21.026,18.84
	c10.787,0,19.846-8.117,21.026-18.84C431.567,449.823,424.489,439.929,413.96,437.584z M412.182,466.885h-1.859v1.923H408.4v-1.923
	h-4.808v-1.924h8.59c1.593,0,2.885-1.291,2.885-2.885c0-1.593-1.292-2.884-2.885-2.884h-5.642c-2.655,0-4.808-2.153-4.808-4.808
	c0-2.656,2.153-4.808,4.808-4.808h1.86v-1.923h1.923v1.923h4.808v1.923h-8.59c-1.593,0-2.885,1.292-2.885,2.884
	s1.292,2.885,2.885,2.885h5.642c2.655,0,4.808,2.152,4.808,4.807C416.99,464.732,414.837,466.885,412.182,466.885z M385.323,423.617
	h1.923v2.885h-1.923V423.617z M380.516,428.424h2.885v1.923h-2.885V428.424z M389.17,428.424h2.884v1.923h-2.884V428.424z
	 M380.797,425.258l1.36-1.359l1.923,1.922l-1.36,1.36L380.797,425.258z M388.49,425.822l1.923-1.923l1.36,1.359l-1.923,1.923
	L388.49,425.822z M380.797,433.513l1.923-1.922l1.359,1.359l-1.922,1.923L380.797,433.513z M408.4,430.347h1.923
	c0-3.717-3.013-6.73-6.73-6.73s-6.73,3.013-6.73,6.73c0,2.655-2.153,4.808-4.808,4.808c-2.655,0-4.808-2.153-4.808-4.808v-0.962
	h-1.923v0.962c0,3.717,3.013,6.73,6.73,6.73c3.717,0,6.73-3.014,6.73-6.73c0-2.656,2.153-4.808,4.808-4.808
	S408.4,427.692,408.4,430.347z"/>
</svg>
