<?xml version="1.0" encoding="utf-8"?>
<!-- Generator: Adobe Illustrator 16.0.0, SVG Export Plug-In . SVG Version: 6.00 Build 0)  -->
<!DOCTYPE svg PUBLIC "-//W3C//DTD SVG 1.1//EN" "http://www.w3.org/Graphics/SVG/1.1/DTD/svg11.dtd">
<svg version="1.1" id="Capa_1" xmlns="http://www.w3.org/2000/svg" xmlns:xlink="http://www.w3.org/1999/xlink" x="0px" y="0px"
	 width="454.792px" height="432.339px" viewBox="22.626 33.852 454.792 432.339"
	 enable-background="new 22.626 33.852 454.792 432.339" xml:space="preserve">
<g>
	<path d="M460.799,396.731c-3.195-3.518-9.381-3.104-13.805,0.914c-12.275,11.148-35.607,32.338-47.875,43.48
		c-4.426,4.018-5.422,10.129-2.221,13.652c3.195,3.52,9.363,3.1,13.787-0.918c12.26-11.135,35.592-32.326,47.881-43.486
		C462.985,406.362,463.992,400.248,460.799,396.731z"/>
	<path d="M31.242,131.897c-4.753,0-8.616,4.857-8.616,10.834c0,16.602,0,48.071,0.01,64.653c0,5.977,3.854,10.824,8.606,10.844
		c4.753,0,8.597-4.848,8.597-10.824c0-16.571,0-48.08,0.01-64.682C39.847,136.755,35.995,131.897,31.242,131.897z"/>
	<path d="M137.193,33.852c-15.854,0-28.716,14.544-28.716,32.475c0,54.354,0.01,163.137,0.021,217.47
		c0,17.93,12.842,32.473,28.696,32.473c15.855,0,28.717-14.553,28.717-32.473c0-21.316,0-51.044,0-82.544
		c16.553,0,164.712,0,208.873,0c0,31.51,0,61.228,0,82.554c0,17.92,12.861,32.463,28.719,32.463
		c15.854,0,28.695-14.553,28.695-32.473c0-54.354,0-163.136,0-217.47c0-17.939-12.844-32.475-28.695-32.475
		c-15.855,0-28.719,14.525-28.719,32.475c0,21.314,0,51.034,0,82.543c-44.178,0-192.32,0-208.873,0c0-31.509,0-61.229,0-82.554
		C165.911,48.379,153.058,33.852,137.193,33.852z"/>
	<path d="M471.791,327.52c-0.631-0.695-1.254-1.381-1.891-2.08c-8.029-8.844-21.705-9.521-30.561-1.479
		c-27.869,25.311-84.953,77.156-112.82,102.465c-8.85,8.037-9.51,21.734-1.473,30.582c0.631,0.693,1.268,1.395,1.891,2.082
		c8.035,8.848,21.711,9.525,30.566,1.482c27.861-25.305,84.953-77.156,112.816-102.473
		C479.182,350.067,479.828,336.369,471.791,327.52z"/>
	<path d="M74.742,77.228c-0.938,0-1.885,0-2.821,0c-11.953,0-21.641,9.668-21.641,21.63c0,37.647,0,114.761,0,152.406
		c0,11.963,9.688,21.65,21.641,21.65c0.937,0,1.884,0,2.811,0c11.953,0,21.641-9.668,21.641-21.631c0-37.637,0-114.759,0-152.407
		C96.382,86.916,86.694,77.228,74.742,77.228z"/>
</g>
</svg>
