<?xml version="1.0" encoding="utf-8"?>
<!-- Generator: Adobe Illustrator 16.0.0, SVG Export Plug-In . SVG Version: 6.00 Build 0)  -->
<!DOCTYPE svg PUBLIC "-//W3C//DTD SVG 1.1//EN" "http://www.w3.org/Graphics/SVG/1.1/DTD/svg11.dtd">
<svg version="1.1" id="Слой_1" xmlns="http://www.w3.org/2000/svg" xmlns:xlink="http://www.w3.org/1999/xlink" x="0px" y="0px"
	 width="512px" height="512px" viewBox="0 0 512 512" enable-background="new 0 0 512 512" xml:space="preserve">
<path d="M79.349,296.125H15.475c-8.285,0-14.973,6.684-14.973,14.969v185.537c0,8.281,6.688,14.969,14.973,14.969h63.874
	c8.285,0,14.973-6.688,14.973-14.969V311.094C94.322,302.809,87.635,296.125,79.349,296.125z"/>
<path d="M79.349,511.998H15.475c-8.484,0-15.469-6.984-15.469-15.469V311.094c0-8.484,6.984-15.469,15.469-15.469h63.874
	c8.484,0,15.469,6.984,15.469,15.469v185.537C94.818,505.112,87.931,511.998,79.349,511.998z M15.475,296.621
	c-7.984,0-14.473,6.488-14.473,14.473v185.537c0,7.984,6.488,14.473,14.473,14.473h63.874c7.984,0,14.473-6.488,14.473-14.473
	V311.094c0-7.984-6.488-14.473-14.473-14.473H15.475z"/>
<path d="M470.881,364.391l-178.65,46.608c-2.395,0.598-4.988,0.996-7.484,0.996c-14.273,0-41.219,0-84.534,0
	c-8.281,0-14.969-6.688-14.969-14.969c0-8.285,6.688-14.973,14.969-14.973h77.647c16.57,0,29.941-13.37,29.941-29.94
	c0-16.566-13.371-29.941-29.941-29.941H124.263v168.072H297.82c3.492,0,6.988-0.602,10.281-1.898l180.443-66.667
	C528.466,406.109,510.904,353.711,470.881,364.391z"/>
<path d="M195.024,490.74c-29.246,0-56.69,0-70.761,0h-0.5V321.574h153.998c16.766,0,30.438,13.672,30.438,30.441
	c0,16.766-13.672,30.437-30.438,30.437h-77.647c-7.984,0-14.473,6.488-14.473,14.473s6.488,14.473,14.473,14.473h84.534
	c2.492,0,4.988-0.301,7.383-1l178.65-46.604c21.059-5.59,35.133,5.988,39.422,19.062c4.293,13.172-0.598,31.039-21.355,39.121
	l-180.447,66.671c-3.395,1.195-6.887,1.895-10.48,1.895C282.453,490.643,236.84,490.74,195.024,490.74z M124.76,489.643H297.82
	c3.492,0,6.887-0.598,10.082-1.797l180.443-66.667c20.16-7.785,24.953-25.152,20.762-37.828
	c-4.094-12.671-17.867-23.851-38.227-18.46l-178.65,46.608c-2.492,0.598-5.09,0.996-7.582,0.996c-14.176,0-40.023,0-84.534,0
	c-8.484,0-15.473-6.887-15.473-15.469c0-8.484,6.887-15.473,15.473-15.473h77.647c16.266,0,29.441-13.171,29.441-29.44
	c0-16.266-13.176-29.441-29.441-29.441H124.76V489.643z"/>
<g>
	<path d="M460.443,0H190.261c-5.49,0-9.945,4.455-9.945,9.945v270.181c0,5.487,4.455,9.945,9.945,9.945h270.182
		c5.486,0,9.943-4.458,9.943-9.945V9.945C470.386,4.455,465.928,0,460.443,0z M235.844,14.923h179.014v83.704H235.844V14.923z
		 M423.565,268.938H227.148V145.036h196.417V268.938z M364.307,27.354h24.867v59.676h-24.867V27.354z M405.535,175.701H245.168
		v-9.945h160.367V175.701z M405.535,210.509H245.168v-9.944h160.367V210.509z M405.535,244.075H245.168v-9.945h160.367V244.075z"/>
</g>
</svg>
