<?xml version="1.0" encoding="utf-8"?>
<!-- Generator: Adobe Illustrator 16.0.0, SVG Export Plug-In . SVG Version: 6.00 Build 0)  -->
<!DOCTYPE svg PUBLIC "-//W3C//DTD SVG 1.1//EN" "http://www.w3.org/Graphics/SVG/1.1/DTD/svg11.dtd">
<svg version="1.1" id="Capa_1" xmlns="http://www.w3.org/2000/svg" xmlns:xlink="http://www.w3.org/1999/xlink" x="0px" y="0px"
	 width="511.628px" height="401.989px" viewBox="0 54.82 511.628 401.989" enable-background="new 0 54.82 511.628 401.989"
	 xml:space="preserve" fill="#fff">
<g>
	<g>
		<path d="M49.106,178.729c6.472,4.566,25.98,18.131,58.527,40.685c32.549,22.555,57.482,39.92,74.804,52.1
			c1.902,1.335,5.945,4.236,12.131,8.71c6.186,4.476,11.326,8.093,15.416,10.852c4.093,2.758,9.041,5.852,14.849,9.277
			c5.807,3.422,11.279,5.996,16.418,7.7c5.141,1.718,9.898,2.568,14.275,2.568h0.287h0.288c4.377,0,9.137-0.852,14.276-2.568
			c5.138-1.704,10.615-4.281,16.416-7.7c5.805-3.43,10.752-6.521,14.846-9.277c4.093-2.759,9.229-6.376,15.417-10.852
			c6.184-4.478,10.231-7.375,12.135-8.71c17.508-12.18,62.051-43.11,133.615-92.79c13.894-9.703,25.502-21.411,34.827-35.116
			c9.332-13.699,13.993-28.07,13.993-43.105c0-12.563-4.523-23.318-13.565-32.264c-9.041-8.947-19.749-13.418-32.117-13.418H45.679
			c-14.655,0-25.934,4.948-33.832,14.844C3.949,79.562,0,91.934,0,106.779c0,11.991,5.236,24.985,15.703,38.974
			C26.169,159.743,37.307,170.736,49.106,178.729z"/>
		<path d="M483.072,209.275c-62.424,42.251-109.824,75.087-142.177,98.501c-10.849,7.991-19.65,14.229-26.409,18.699
			c-6.759,4.473-15.748,9.041-26.98,13.702c-11.228,4.668-21.691,6.994-31.4,6.994h-0.291h-0.287
			c-9.707,0-20.177-2.326-31.405-6.994c-11.228-4.661-20.223-9.229-26.979-13.702c-6.755-4.471-15.56-10.708-26.407-18.699
			c-25.697-18.842-72.995-51.68-141.896-98.501C17.987,202.047,8.375,193.762,0,184.437v226.685c0,12.57,4.472,23.319,13.418,32.266
			c8.945,8.949,19.701,13.422,32.265,13.422h420.266c12.561,0,23.315-4.473,32.261-13.422c8.949-8.949,13.419-19.694,13.419-32.266
			V184.437C503.441,193.569,493.927,201.854,483.072,209.275z"/>
	</g>
</g>
</svg>
