<?xml version="1.0" encoding="utf-8"?>
<!-- Generator: Adobe Illustrator 16.0.0, SVG Export Plug-In . SVG Version: 6.00 Build 0)  -->
<!DOCTYPE svg PUBLIC "-//W3C//DTD SVG 1.1//EN" "http://www.w3.org/Graphics/SVG/1.1/DTD/svg11.dtd">
<svg version="1.1" id="Слой_1" xmlns="http://www.w3.org/2000/svg" xmlns:xlink="http://www.w3.org/1999/xlink" x="0px" y="0px"
	 width="29.5px" height="29.501px" viewBox="34.5 -0.001 29.5 29.501" enable-background="new 34.5 -0.001 29.5 29.501"
	 xml:space="preserve">
<g>
	<path fill="#1D1D1B" d="M51.5,25.5h-13v-13c0-1.104-0.895-2-2-2s-2,0.896-2,2v15c0,1.105,0.895,2,2,2h15c1.105,0,2-0.895,2-2
		S52.605,25.5,51.5,25.5z"/>
	<path fill="#1D1D1B" d="M62-0.001H47c-1.105,0-2,0.896-2,2s0.895,2,2,2h13v13c0,1.104,0.895,2,2,2s2-0.896,2-2v-15
		C64,0.895,63.105-0.001,62-0.001z"/>
</g>
</svg>
