<?xml version="1.0" encoding="utf-8"?>
<!-- Generator: Adobe Illustrator 16.0.0, SVG Export Plug-In . SVG Version: 6.00 Build 0)  -->
<!DOCTYPE svg PUBLIC "-//W3C//DTD SVG 1.1//EN" "http://www.w3.org/Graphics/SVG/1.1/DTD/svg11.dtd">
<svg version="1.1" id="Capa_1" xmlns="http://www.w3.org/2000/svg" xmlns:xlink="http://www.w3.org/1999/xlink" x="0px" y="0px"
	 width="135px" height="89.168px" viewBox="-51.706 -28.787 135 89.168" enable-background="new -51.706 -28.787 135 89.168"
	 xml:space="preserve">
<linearGradient id="SVGID_1_" gradientUnits="userSpaceOnUse" x1="-51.7056" y1="15.7969" x2="83.2949" y2="15.7969">
	<stop  offset="0" style="stop-color:#47DD57"/>
	<stop  offset="1" style="stop-color:#A8E854"/>
</linearGradient>
<path fill="url(#SVGID_1_)" d="M10.9,35.434C7.034,29.8,4.947,23.147,4.947,16.157c0-9.118,3.245-18.016,10.001-24.14
	c6.546-5.945,16.479-9.481,21.336-9.876c-8.894-6.047-19.741-10.928-31.606-10.928c-30.567,0-54.389,32.359-55.384,33.73
	c-1.333,1.842-1.333,4.334,0,6.172c0.995,1.371,24.816,33.741,55.384,33.741c4.565,0,8.979-0.726,13.175-1.961
	c-1.004-0.802-1.979-1.661-2.909-2.588C13.432,38.797,12.09,37.157,10.9,35.434z M2.051-3.078c-0.92,0.115-4.102,1.325-6.153,4.219
	c-1.899,2.679-2.343,6.183-1.317,10.415c0.68,2.814-1.043,5.653-3.862,6.341c-0.419,0.1-0.834,0.15-1.239,0.15
	c-2.377,0-4.522-1.617-5.104-4.019c-2.345-9.628,0.647-16.092,3.572-19.802c4.004-5.077,10.21-7.817,14.031-7.817h0.008
	c2.907,0,5.252,2.364,5.244,5.265C7.226-5.458,4.914-3.111,2.051-3.078z M-39.73,8.029c4.691-5.567,15.631-17.235,29.161-22.978
	c-7.825,4.897-13.029,13.595-13.029,23.504c0,8.217,3.581,15.598,9.265,20.668C-26.117,23.109-35.488,13.077-39.73,8.029z
	 M37.44,27.755c-7.504-1.369-9.386-8.618-9.465-8.956c-0.376-1.546-1.911-2.496-3.473-2.141c-1.552,0.362-2.521,1.915-2.161,3.468
	c0.108,0.455,2.763,11.26,14.072,13.313c0.175,0.025,0.346,0.042,0.525,0.042c1.369,0,2.579-0.977,2.842-2.379
	C40.062,29.549,39.018,28.034,37.44,27.755z M81.944,46.739L70.894,35.692c-1.694-1.694-4.433-1.694-6.139,0V35.7l-3.001-3.005
	c8.013-10.959,7.065-26.473-2.829-36.376c-5.292-5.302-12.35-8.222-19.84-8.222c-7.495,0-14.54,2.919-19.84,8.222
	c-5.307,5.304-8.22,12.347-8.22,19.846c-0.008,7.5,2.913,14.54,8.22,19.844c5.291,5.3,12.345,8.225,19.84,8.225
	c6.026,0,11.764-1.89,16.534-5.396l2.996,3.005h-0.008c-1.69,1.69-1.687,4.44,0.008,6.135l11.043,11.047
	c1.812,1.807,4.729,1.807,6.544,0l5.733-5.738C83.747,51.476,83.747,48.55,81.944,46.739z M52.794,29.87
	c-3.66,3.66-8.521,5.676-13.697,5.676c-5.175,0-10.045-2.023-13.7-5.676c-3.656-3.651-5.672-8.525-5.672-13.705
	c0-3.276,0.806-6.431,2.333-9.229c0.881-1.629,2.003-3.128,3.339-4.47c0.196-0.198,0.392-0.386,0.593-0.574
	c3.589-3.295,8.213-5.102,13.107-5.102c5.176,0,10.037,2.016,13.697,5.675c0.734,0.735,1.398,1.521,1.995,2.337
	C60.272,12.372,59.613,23.051,52.794,29.87z M25.764,7.965c1.569,0,2.838,1.271,2.838,2.838c0,1.567-1.269,2.838-2.838,2.838
	s-2.838-1.271-2.838-2.838C22.926,9.235,24.194,7.965,25.764,7.965z"/>
</svg>
