<?xml version="1.0" encoding="utf-8"?>
<!-- Generator: Adobe Illustrator 16.0.0, SVG Export Plug-In . SVG Version: 6.00 Build 0)  -->
<!DOCTYPE svg PUBLIC "-//W3C//DTD SVG 1.1//EN" "http://www.w3.org/Graphics/SVG/1.1/DTD/svg11.dtd">
<svg version="1.1" id="Capa_1" xmlns="http://www.w3.org/2000/svg" xmlns:xlink="http://www.w3.org/1999/xlink" x="0px" y="0px"
	 width="300px" height="300px" viewBox="0 0 300 300" enable-background="new 0 0 300 300" xml:space="preserve">
<path d="M40.22,55h220v70h20V33.84c0-4.875-3.966-8.84-8.835-8.84h-153.33L105.63,4.295C104.04,1.645,101.135,0,98.05,0H29.06
	c-4.875,0-8.84,3.965-8.84,8.84V125h20V55z"/>
<rect x="50.22" y="105" width="200" height="20"/>
<rect x="55.22" y="85" width="190" height="15"/>
<rect x="60.22" y="65" width="180" height="15"/>
<path d="M298.25,137.215c-1.21-1.405-2.965-2.215-4.825-2.215H6.58c-1.85,0-3.609,0.805-4.814,2.205c-1.21,1.4-1.75,3.255-1.471,5.1
	l24.59,152.304c0.485,3.125,3.125,5.391,6.28,5.391h237.67c3.16,0,5.8-2.266,6.285-5.404l24.585-152.271
	C299.985,140.49,299.461,138.63,298.25,137.215z"/>
</svg>
