<svg height="682pt" viewBox="-69 -21 682 682.66535" width="682pt" xmlns="http://www.w3.org/2000/svg"><path d="m508.941406 349.492188h-21.921875c-8.15625-22.152344-20.871093-43.1875-37.394531-61.886719 5.332031-7.550781 10.203125-12.851563 10.222656-12.875 8.070313-8.601563 10.851563-20.921875 7.257813-32.152344-3.582031-11.195313-12.972657-19.621094-24.523438-21.992187-1.699219-.347657-10.878906-2.085938-24.421875-2.085938-12.800781 0-31.796875 1.605469-52.550781 8.820312-36.222656-16.027343-76.886719-24.472656-118.101563-24.472656-73.867187 0-143.59375 26.761719-191.324218 73.421875-43.511719 41.191407-59.019532 95.859375-59.019532 133.308594 0 45.058594 17.957032 89.035156 50.769532 124.804687l-15.566406 65.542969c-3.152344 13.25 2.121093 26.78125 13.445312 34.472657 5.394531 3.660156 11.839844 5.59375 18.644531 5.59375h60.792969c14.414062 0 26.953125-9.226563 31.199219-22.972657l4.179687-13.519531c27.753906 8.511719 56.894532 12.816406 86.878906 12.816406 29.980469 0 59.121094-4.304687 86.878907-12.816406l4.179687 13.53125c4.242188 13.738281 16.78125 22.96875 31.191406 22.96875h60.800782c6.800781 0 13.253906-1.941406 18.644531-5.601562 11.316406-7.6875 16.59375-21.214844 13.445313-34.46875l-15.570313-65.542969c12.585937-13.703125 23.003906-28.605469 31.101563-44.480469h30.773437c17.996094 0 32.640625-14.609375 32.640625-32.5625v-75.292969c-.011719-17.949219-14.660156-32.558593-32.652344-32.558593zm-204.695312-31.703126h-110.238282c-10.359374 0-18.75-8.394531-18.75-18.75 0-10.359374 8.390626-18.75 18.75-18.75h110.238282c10.355468 0 18.75 8.390626 18.75 18.75 0 10.355469-8.394532 18.75-18.75 18.75zm0 0"/><path d="m249.128906 178.277344c-49.152344 0-89.140625-39.988282-89.140625-89.136719 0-49.152344 39.984375-89.140625 89.140625-89.140625 49.148438 0 89.140625 39.988281 89.140625 89.140625-.003906 49.148437-39.992187 89.136719-89.140625 89.136719zm0 0"/></svg>