<?xml version="1.0" encoding="utf-8"?>
<!-- Generator: Adobe Illustrator 16.0.0, SVG Export Plug-In . SVG Version: 6.00 Build 0)  -->
<!DOCTYPE svg PUBLIC "-//W3C//DTD SVG 1.1//EN" "http://www.w3.org/Graphics/SVG/1.1/DTD/svg11.dtd">
<svg version="1.1" id="Слой_1" xmlns="http://www.w3.org/2000/svg" xmlns:xlink="http://www.w3.org/1999/xlink" x="0px" y="0px"
	 width="42px" height="46px" viewBox="0 0 42 46" enable-background="new 0 0 42 46" xml:space="preserve">
<g>
	<path fill="#7E539C" d="M40.783,10.163c-0.779-2.79-2.33-5-4.59-6.561c-2.859-1.97-6.15-2.66-8.99-3.09
		c-3.93-0.59-7.49-0.67-10.88-0.25c-3.18,0.39-5.58,1.01-7.76,2.01c-4.28,1.971-6.85,5.15-7.64,9.46
		c-0.38,2.101-0.64,3.99-0.79,5.79c-0.34,4.171-0.03,7.87,0.96,11.29c0.96,3.33,2.63,5.721,5.12,7.28c0.63,0.4,1.45,0.69,2.23,0.97
		c0.45,0.15,0.88,0.311,1.23,0.48c0.33,0.15,0.33,0.17,0.33,0.45c-0.03,2.37,0,7.02,0,7.02l0.01,0.99c0,0,8.73-7,9.01-7
		c2.12-0.04,4.301-0.12,6.45-0.24c2.621-0.14,5.641-0.399,8.49-1.58c2.611-1.09,4.521-2.819,5.66-5.14
		c1.201-2.43,1.91-5.05,2.17-8.021C42.264,18.792,41.934,14.262,40.783,10.163z M31.383,30.483c-0.648,1.06-1.629,1.81-2.779,2.289
		c-0.85,0.351-1.711,0.271-2.541-0.079c-6.959-2.94-12.429-7.591-16.039-14.271c-0.74-1.37-1.26-2.87-1.85-4.33
		c-0.12-0.29-0.11-0.64-0.17-0.97c0.05-2.351,1.85-3.681,3.67-4.07c0.7-0.16,1.32,0.09,1.83,0.58c1.43,1.36,2.56,2.939,3.41,4.72
		c0.37,0.771,0.2,1.46-0.43,2.04c-0.13,0.12-0.27,0.23-0.41,0.34c-1.45,1.09-1.66,1.91-0.89,3.55c1.31,2.78,3.49,4.65,6.31,5.811
		c0.741,0.311,1.44,0.16,2.01-0.45c0.08-0.069,0.16-0.149,0.219-0.25c1.111-1.85,2.721-1.659,4.211-0.609
		c0.971,0.7,1.92,1.43,2.891,2.14C32.293,28.002,32.283,29.022,31.383,30.483z M22.143,12.002c-0.318,0-0.649,0.029-0.969,0.08
		c-0.55,0.09-1.06-0.28-1.16-0.82c-0.09-0.55,0.28-1.06,0.83-1.15c0.43-0.08,0.87-0.109,1.299-0.109c4.342,0,7.861,3.52,7.861,7.85
		c0,0.45-0.041,0.891-0.111,1.311c-0.08,0.489-0.5,0.84-0.979,0.84c-0.061,0-0.111,0-0.17-0.021c-0.541-0.09-0.91-0.6-0.82-1.14
		c0.049-0.32,0.08-0.65,0.08-0.98C28.004,14.632,25.373,12.002,22.143,12.002z M27.004,18.002c0,0.55-0.451,1-1,1
		c-0.551,0-1-0.45-1-1c0-1.65-1.35-3-3-3c-0.55,0-1-0.45-1-1s0.45-1,1-1C24.764,13.002,27.004,15.243,27.004,18.002z M32.713,20.222
		c-0.1,0.471-0.52,0.78-0.979,0.78c-0.07,0-0.141-0.01-0.221-0.02c-0.541-0.131-0.871-0.661-0.75-1.201
		c0.141-0.64,0.221-1.3,0.221-1.96c0-4.859-3.961-8.819-8.82-8.819c-0.66,0-1.321,0.069-1.96,0.22c-0.54,0.12-1.08-0.22-1.2-0.75
		c-0.12-0.54,0.22-1.08,0.76-1.2c0.78-0.18,1.59-0.27,2.401-0.27c5.959,0,10.82,4.85,10.82,10.819
		C32.984,18.632,32.893,19.442,32.713,20.222z"/>
	<path fill="#FFFFFF" d="M27.004,18.002c0,0.55-0.451,1-1,1c-0.551,0-1-0.45-1-1c0-1.65-1.35-3-3-3c-0.55,0-1-0.45-1-1s0.45-1,1-1
		C24.764,13.002,27.004,15.243,27.004,18.002z"/>
	<path fill="#FFFFFF" d="M30.004,17.852c0,0.45-0.041,0.891-0.111,1.311c-0.08,0.489-0.5,0.84-0.979,0.84
		c-0.061,0-0.111,0-0.17-0.021c-0.541-0.09-0.91-0.6-0.82-1.14c0.049-0.32,0.08-0.65,0.08-0.98c0-3.229-2.631-5.859-5.861-5.859
		c-0.318,0-0.649,0.029-0.969,0.08c-0.55,0.09-1.06-0.28-1.16-0.82c-0.09-0.55,0.28-1.06,0.83-1.15
		c0.43-0.08,0.87-0.109,1.299-0.109C26.484,10.002,30.004,13.522,30.004,17.852z"/>
	<path fill="#FFFFFF" d="M32.984,17.822c0,0.811-0.092,1.62-0.271,2.4c-0.1,0.471-0.52,0.78-0.979,0.78
		c-0.07,0-0.141-0.01-0.221-0.02c-0.541-0.131-0.871-0.661-0.75-1.201c0.141-0.64,0.221-1.3,0.221-1.96
		c0-4.859-3.961-8.819-8.82-8.819c-0.66,0-1.321,0.069-1.96,0.22c-0.54,0.12-1.08-0.22-1.2-0.75c-0.12-0.54,0.22-1.08,0.76-1.2
		c0.78-0.18,1.59-0.27,2.401-0.27C28.123,7.002,32.984,11.852,32.984,17.822z"/>
	<path fill="#FFFFFF" d="M31.383,30.483c-0.648,1.06-1.629,1.81-2.779,2.289c-0.85,0.351-1.711,0.271-2.541-0.079
		c-6.959-2.94-12.429-7.591-16.039-14.271c-0.74-1.37-1.26-2.87-1.85-4.33c-0.12-0.29-0.11-0.64-0.17-0.97
		c0.05-2.351,1.85-3.681,3.67-4.07c0.7-0.16,1.32,0.09,1.83,0.58c1.43,1.36,2.56,2.939,3.41,4.72c0.37,0.771,0.2,1.46-0.43,2.04
		c-0.13,0.12-0.27,0.23-0.41,0.34c-1.45,1.09-1.66,1.91-0.89,3.55c1.31,2.78,3.49,4.65,6.31,5.811c0.741,0.311,1.44,0.16,2.01-0.45
		c0.08-0.069,0.16-0.149,0.219-0.25c1.111-1.85,2.721-1.659,4.211-0.609c0.971,0.7,1.92,1.43,2.891,2.14
		C32.293,28.002,32.283,29.022,31.383,30.483z"/>
</g>
</svg>
