<?xml version="1.0" encoding="utf-8"?>
<!-- Generator: Adobe Illustrator 16.0.0, SVG Export Plug-In . SVG Version: 6.00 Build 0)  -->
<!DOCTYPE svg PUBLIC "-//W3C//DTD SVG 1.1//EN" "http://www.w3.org/Graphics/SVG/1.1/DTD/svg11.dtd">
<svg version="1.1" id="Слой_1" xmlns="http://www.w3.org/2000/svg" xmlns:xlink="http://www.w3.org/1999/xlink" x="0px" y="0px"
	 width="50px" height="49.794px" viewBox="0 0 50 49.794" enable-background="new 0 0 50 49.794" xml:space="preserve">
<g>
	<polygon fill="#FFFFFF" points="48.915,1.084 48.915,48.709 1.088,48.709 1.242,1.084 	"/>
	<path fill="#0EA7DA" d="M0.161,0L0,49.794h50V0H0.161z M48.915,48.709H1.088L1.242,1.084h47.673V48.709z"/>
	<g id="SMXPsX.tif_1_">
		<g>
			<linearGradient id="SVGID_1_" gradientUnits="userSpaceOnUse" x1="6.8413" y1="26.2813" x2="43.1289" y2="26.2813">
				<stop  offset="0" style="stop-color:#2EBEE7"/>
				<stop  offset="0.996" style="stop-color:#12A8DB"/>
			</linearGradient>
			<path fill-rule="evenodd" clip-rule="evenodd" fill="url(#SVGID_1_)" d="M42.981,27.083c-0.261,1.735-1.214,2.944-2.814,3.646
				c-1.384,0.606-2.859,0.807-4.349,0.908c-3.373,0.232-6.749,0.425-10.375,0.402c-2.516,0.034-5.271-0.035-8.024-0.203
				c-0.288-0.018-0.444,0.11-0.61,0.297c-0.71,0.796-1.423,1.59-2.143,2.377c-0.114,0.125-0.219,0.354-0.425,0.269
				c-0.204-0.085-0.116-0.32-0.118-0.491c-0.007-0.665-0.032-1.331,0.007-1.993c0.031-0.519-0.096-0.752-0.674-0.768
				c-0.721-0.02-1.45-0.109-2.154-0.264c-2.487-0.546-4.125-1.903-4.357-4.678c-0.101-1.207-0.174-2.411,0.016-3.61
				c0.397-2.506,1.842-3.929,4.332-4.339c3.624-0.597,7.279-0.785,10.942-0.853c3.826-0.07,7.649,0.064,11.468,0.265
				c1.849,0.096,3.687,0.339,5.5,0.722c2.175,0.459,3.663,2.132,3.847,4.396C43.154,24.467,43.177,25.781,42.981,27.083z"/>
		</g>
	</g>
	<g>
		<path fill="#12A84B" d="M19.874,12.278c0,0.353-0.089,0.687-0.266,1c-0.53,0.924-1.534,1.387-3.013,1.387H10.69V6.433h5.906
			c1.406,0,2.39,0.438,2.952,1.313c0.217,0.354,0.326,0.731,0.326,1.132c0,0.684-0.289,1.258-0.868,1.724
			C19.584,11.052,19.874,11.611,19.874,12.278z M18.488,8.867c0-0.346-0.201-0.61-0.603-0.795c-0.313-0.137-0.671-0.205-1.073-0.205
			h-4.688v5.363h4.688c0.394,0,0.743-0.061,1.048-0.181c0.417-0.177,0.627-0.43,0.627-0.759c0-0.337-0.209-0.595-0.627-0.771
			c-0.313-0.128-0.663-0.193-1.048-0.193h-3.845V9.891h3.845c0.402,0,0.76-0.072,1.072-0.217C18.287,9.49,18.488,9.221,18.488,8.867
			z"/>
		<path fill="#12A84B" d="M29.648,8.71c0,0.699-0.258,1.261-0.771,1.687c-0.482,0.394-1.081,0.591-1.796,0.591h-2.965
			c-0.386,0-0.723,0.08-1.012,0.241c-0.337,0.201-0.506,0.479-0.506,0.832v1.181h6.87v1.435h-8.171v-2.616
			c0-0.754,0.285-1.37,0.855-1.844c0.53-0.442,1.186-0.663,1.965-0.663h2.965c0.272,0,0.506-0.072,0.699-0.217
			c0.192-0.145,0.289-0.349,0.289-0.614c0-0.257-0.097-0.462-0.289-0.614c-0.193-0.152-0.427-0.229-0.699-0.229h-5.652V6.445h5.652
			c0.715,0,1.313,0.198,1.796,0.591C29.391,7.461,29.648,8.019,29.648,8.71z"/>
		<path fill="#12A84B" d="M40.52,12.278c0,0.353-0.089,0.687-0.266,1c-0.53,0.924-1.534,1.387-3.013,1.387h-5.905V6.433h5.905
			c1.405,0,2.391,0.438,2.952,1.313C40.411,8.1,40.52,8.477,40.52,8.878c0,0.684-0.289,1.258-0.868,1.724
			C40.23,11.052,40.52,11.611,40.52,12.278z M39.133,8.867c0-0.346-0.2-0.61-0.602-0.795c-0.314-0.137-0.672-0.205-1.073-0.205
			H32.77v5.363h4.688c0.394,0,0.743-0.061,1.049-0.181c0.417-0.177,0.626-0.43,0.626-0.759c0-0.337-0.209-0.595-0.626-0.771
			c-0.313-0.128-0.663-0.193-1.049-0.193h-3.845V9.891h3.845c0.401,0,0.759-0.072,1.072-0.217
			C38.933,9.49,39.133,9.221,39.133,8.867z"/>
	</g>
	<g>
		<linearGradient id="SVGID_2_" gradientUnits="userSpaceOnUse" x1="14.3765" y1="20.9541" x2="14.3765" y2="28.7619">
			<stop  offset="0" style="stop-color:#2EBEE7"/>
			<stop  offset="1" style="stop-color:#12A8DB"/>
		</linearGradient>
		<circle fill="url(#SVGID_2_)" cx="14.376" cy="24.872" r="3.918"/>
		<path fill="#FFFFFF" d="M14.376,20.954c2.164,0,3.918,1.754,3.918,3.917s-1.754,3.918-3.918,3.918
			c-2.164,0-3.918-1.755-3.918-3.918S12.212,20.954,14.376,20.954L14.376,20.954z M14.376,20.448c-1.182,0-2.293,0.46-3.128,1.296
			s-1.296,1.946-1.296,3.128c0,1.182,0.46,2.292,1.296,3.128c0.835,0.835,1.947,1.296,3.128,1.296s2.292-0.461,3.128-1.296
			c0.835-0.836,1.296-1.946,1.296-3.128c0-1.182-0.46-2.292-1.296-3.128S15.558,20.448,14.376,20.448L14.376,20.448z"/>
	</g>
	<g>
		<path fill="#FFFFFF" d="M16.283,23.208l-0.7,3.528c0,0-0.098,0.245-0.367,0.128l-1.615-1.238l-0.587-0.284l-0.988-0.333
			c0,0-0.152-0.054-0.167-0.171c-0.015-0.117,0.171-0.181,0.171-0.181l3.929-1.542C15.959,23.114,16.283,22.973,16.283,23.208z"/>
		<path fill="#C6DEEA" d="M13.477,26.696c0,0-0.047-0.005-0.106-0.19c-0.059-0.187-0.357-1.165-0.357-1.165l2.374-1.507
			c0,0,0.137-0.083,0.132,0c0,0,0.024,0.015-0.049,0.083s-1.864,1.679-1.864,1.679L13.477,26.696z"/>
		<path fill="#A7C8DD" d="M14.22,26.1l-0.639,0.582c0,0-0.05,0.038-0.104,0.015l0.122-1.082L14.22,26.1z"/>
	</g>
	<g>
		<path fill="#FFFFFF" d="M21.591,26.502v-2.787h-1.106v-0.331h2.654v0.331h-1.106v2.787H21.591z"/>
		<path fill="#FFFFFF" d="M25.268,26.428c-0.278,0.085-0.516,0.127-0.714,0.127c-0.338,0-0.614-0.112-0.826-0.336
			s-0.318-0.514-0.318-0.871c0-0.346,0.094-0.63,0.281-0.852s0.427-0.333,0.719-0.333c0.277,0,0.491,0.099,0.642,0.296
			s0.227,0.477,0.227,0.839l-0.002,0.126h-1.443c0.061,0.542,0.327,0.813,0.798,0.813c0.173,0,0.385-0.047,0.636-0.141V26.428z
			 M23.852,25.113h1.009c0-0.425-0.159-0.638-0.476-0.638C24.066,24.475,23.888,24.688,23.852,25.113z"/>
		<path fill="#FFFFFF" d="M25.995,26.502v-3.327h0.415v3.327H25.995z"/>
		<path fill="#FFFFFF" d="M28.919,26.428c-0.278,0.085-0.517,0.127-0.715,0.127c-0.338,0-0.613-0.112-0.825-0.336
			c-0.213-0.224-0.318-0.514-0.318-0.871c0-0.346,0.094-0.63,0.281-0.852s0.427-0.333,0.72-0.333c0.276,0,0.49,0.099,0.641,0.296
			c0.151,0.197,0.227,0.477,0.227,0.839l-0.002,0.126h-1.443c0.061,0.542,0.327,0.813,0.799,0.813c0.173,0,0.385-0.047,0.637-0.141
			V26.428z M27.503,25.113h1.009c0-0.425-0.158-0.638-0.476-0.638C27.717,24.475,27.539,24.688,27.503,25.113z"/>
		<path fill="#FFFFFF" d="M29.653,27.263l0.049-0.358c0.24,0.112,0.479,0.168,0.713,0.168c0.467,0,0.701-0.247,0.701-0.743v-0.36
			c-0.072,0.151-0.175,0.27-0.308,0.354c-0.133,0.085-0.28,0.127-0.443,0.127c-0.277,0-0.497-0.1-0.658-0.298
			c-0.162-0.199-0.243-0.468-0.243-0.808c0-0.349,0.093-0.632,0.276-0.851c0.185-0.219,0.423-0.329,0.715-0.329
			c0.256,0,0.477,0.104,0.661,0.312v-0.261h0.414v1.664c0,0.358-0.019,0.623-0.056,0.796c-0.037,0.172-0.106,0.313-0.209,0.422
			c-0.182,0.192-0.465,0.289-0.85,0.289C30.152,27.385,29.898,27.344,29.653,27.263z M31.116,25.708v-0.949
			c-0.184-0.189-0.383-0.284-0.598-0.284c-0.191,0-0.341,0.077-0.449,0.229s-0.163,0.365-0.163,0.635
			c0,0.496,0.177,0.745,0.53,0.745C30.677,26.085,30.903,25.959,31.116,25.708z"/>
		<path fill="#FFFFFF" d="M32.336,26.502v-2.288h0.415v0.43c0.164-0.32,0.402-0.48,0.716-0.48c0.042,0,0.086,0.004,0.133,0.011v0.39
			c-0.071-0.023-0.135-0.036-0.189-0.036c-0.263,0-0.482,0.156-0.659,0.467v1.507H32.336z"/>
		<path fill="#FFFFFF" d="M35.28,26.211c-0.248,0.229-0.487,0.344-0.718,0.344c-0.189,0-0.348-0.06-0.472-0.179
			c-0.126-0.118-0.188-0.269-0.188-0.449c0-0.25,0.104-0.442,0.314-0.576c0.21-0.134,0.512-0.201,0.905-0.201h0.097v-0.276
			c0-0.265-0.139-0.398-0.415-0.398c-0.215,0-0.449,0.067-0.704,0.202v-0.343c0.279-0.114,0.543-0.171,0.79-0.171
			c0.255,0,0.442,0.058,0.563,0.174c0.121,0.116,0.182,0.295,0.182,0.536v1.037c0,0.237,0.073,0.355,0.219,0.355
			c0.019,0,0.045-0.003,0.08-0.008l0.029,0.229c-0.094,0.045-0.197,0.067-0.312,0.067C35.458,26.555,35.334,26.44,35.28,26.211z
			 M35.22,25.985v-0.592l-0.133-0.004c-0.23,0-0.416,0.042-0.558,0.128c-0.141,0.085-0.212,0.199-0.212,0.341
			c0,0.1,0.035,0.184,0.105,0.253c0.07,0.068,0.156,0.103,0.258,0.103C34.853,26.215,35.032,26.139,35.22,25.985z"/>
		<path fill="#FFFFFF" d="M36.483,26.502v-2.288h0.415v0.43c0.202-0.32,0.462-0.48,0.778-0.48c0.306,0,0.514,0.16,0.625,0.48
			c0.196-0.32,0.452-0.48,0.767-0.48c0.201,0,0.357,0.06,0.469,0.178s0.168,0.285,0.168,0.498v1.663H39.29v-1.598
			c0-0.261-0.104-0.391-0.311-0.391c-0.216,0-0.441,0.152-0.678,0.457v1.532h-0.415v-1.599c0-0.263-0.105-0.394-0.316-0.394
			c-0.209,0-0.433,0.153-0.672,0.459v1.534H36.483z"/>
	</g>
	<g>
		<path fill="#1E1E1E" d="M21.322,41.886c0,0.249-0.063,0.483-0.187,0.703c-0.373,0.65-1.079,0.975-2.118,0.975h-4.151v-5.786h4.151
			c0.988,0,1.68,0.308,2.076,0.923c0.152,0.249,0.229,0.515,0.229,0.797c0,0.479-0.204,0.884-0.61,1.211
			C21.119,41.024,21.322,41.417,21.322,41.886z M20.348,39.488c0-0.242-0.141-0.429-0.423-0.559
			c-0.22-0.097-0.472-0.145-0.754-0.145h-3.295v3.771h3.295c0.277,0,0.522-0.043,0.737-0.128c0.293-0.124,0.44-0.302,0.44-0.533
			c0-0.237-0.147-0.418-0.44-0.542c-0.22-0.091-0.466-0.136-0.737-0.136h-2.702v-1.008h2.702c0.283,0,0.534-0.052,0.754-0.153
			C20.207,39.926,20.348,39.737,20.348,39.488z"/>
		<path fill="#1E1E1E" d="M29.685,40.615c0,0.853-0.274,1.559-0.822,2.118c-0.548,0.559-1.245,0.839-2.093,0.839h-1.618
			c-0.842,0-1.538-0.28-2.088-0.839c-0.551-0.56-0.826-1.266-0.826-2.118c0-0.848,0.272-1.53,0.818-2.051
			c0.545-0.52,1.244-0.779,2.097-0.779h1.618c0.858,0,1.559,0.26,2.102,0.779C29.413,39.085,29.685,39.768,29.685,40.615z
			 M28.685,40.7c0-0.56-0.18-1.017-0.538-1.373c-0.358-0.355-0.817-0.533-1.377-0.533h-1.618c-0.554,0-1.01,0.178-1.368,0.533
			c-0.359,0.356-0.538,0.813-0.538,1.373c0,0.554,0.179,1.002,0.538,1.347c0.358,0.345,0.814,0.517,1.368,0.517h1.618
			c0.56,0,1.019-0.172,1.377-0.517S28.685,41.254,28.685,40.7z"/>
		<path fill="#1E1E1E" d="M35.733,38.794h-2.279v4.778h-1v-4.778h-2.287v-1.009h5.566V38.794z"/>
	</g>
</g>
</svg>
