<?xml version="1.0" encoding="utf-8"?>
<!-- Generator: Adobe Illustrator 16.0.0, SVG Export Plug-In . SVG Version: 6.00 Build 0)  -->
<!DOCTYPE svg PUBLIC "-//W3C//DTD SVG 1.1//EN" "http://www.w3.org/Graphics/SVG/1.1/DTD/svg11.dtd">
<svg version="1.1" id="Слой_1" xmlns="http://www.w3.org/2000/svg" xmlns:xlink="http://www.w3.org/1999/xlink" x="0px" y="0px"
	 width="50px" height="49.953px" viewBox="0 0 50 49.953" enable-background="new 0 0 50 49.953" xml:space="preserve">
<g>
	<rect x="1.088" y="1.088" fill="#FFFFFF" width="47.824" height="47.777"/>
	<path fill="#7E539C" d="M0,0v49.953h50V0H0z M48.912,48.865H1.088V1.088h47.824V48.865z"/>
	<g>
		<path fill="#12A84B" d="M19.873,12.317c0,0.354-0.089,0.689-0.266,1.003c-0.532,0.927-1.54,1.391-3.022,1.391h-5.925V6.453h5.925
			c1.41,0,2.397,0.439,2.961,1.317c0.218,0.354,0.327,0.733,0.327,1.136c0,0.686-0.29,1.262-0.87,1.729
			C19.583,11.087,19.873,11.648,19.873,12.317z M18.482,8.896c0-0.347-0.202-0.612-0.604-0.798
			c-0.314-0.137-0.673-0.206-1.076-0.206h-4.704v5.38h4.703c0.395,0,0.746-0.061,1.052-0.182c0.418-0.177,0.629-0.431,0.629-0.762
			c0-0.338-0.21-0.597-0.629-0.773c-0.315-0.129-0.666-0.194-1.052-0.194h-3.857V9.923h3.857c0.403,0,0.762-0.072,1.076-0.218
			C18.28,9.52,18.482,9.25,18.482,8.896z"/>
		<path fill="#12A84B" d="M29.679,8.738c0,0.701-0.259,1.265-0.774,1.692c-0.483,0.395-1.084,0.592-1.802,0.592h-2.974
			c-0.387,0-0.726,0.081-1.016,0.242c-0.338,0.201-0.507,0.479-0.507,0.834v1.185h6.892v1.438H21.3v-2.624
			c0-0.757,0.286-1.375,0.858-1.85c0.532-0.443,1.189-0.665,1.971-0.665h2.974c0.274,0,0.508-0.073,0.701-0.218
			c0.193-0.146,0.29-0.35,0.29-0.616c0-0.258-0.097-0.464-0.29-0.617c-0.193-0.152-0.427-0.229-0.701-0.229h-5.67V6.465h5.671
			c0.717,0,1.317,0.198,1.801,0.593C29.42,7.485,29.679,8.044,29.679,8.738z"/>
		<path fill="#12A84B" d="M40.584,12.317c0,0.354-0.089,0.689-0.266,1.003c-0.532,0.927-1.54,1.391-3.023,1.391h-5.924V6.453h5.924
			c1.41,0,2.398,0.439,2.963,1.317c0.218,0.354,0.326,0.733,0.326,1.136c0,0.686-0.29,1.262-0.871,1.729
			C40.294,11.087,40.584,11.648,40.584,12.317z M39.193,8.896c0-0.347-0.201-0.612-0.604-0.798
			c-0.314-0.137-0.673-0.206-1.075-0.206H32.81v5.38h4.703c0.395,0,0.745-0.061,1.052-0.182c0.419-0.177,0.629-0.431,0.629-0.762
			c0-0.338-0.21-0.597-0.629-0.773c-0.314-0.129-0.665-0.194-1.052-0.194h-3.856V9.923h3.856c0.403,0,0.762-0.072,1.076-0.218
			C38.992,9.52,39.193,9.25,39.193,8.896z"/>
	</g>
	<g>
		<path fill="#1E1E1E" d="M21.534,42.021c0,0.249-0.063,0.484-0.187,0.705c-0.374,0.651-1.083,0.978-2.125,0.978h-4.165v-5.806
			h4.165c0.992,0,1.686,0.31,2.082,0.927c0.153,0.249,0.23,0.516,0.23,0.799c0,0.481-0.204,0.887-0.612,1.216
			C21.33,41.156,21.534,41.55,21.534,42.021z M20.556,39.615c0-0.244-0.142-0.431-0.425-0.562c-0.221-0.097-0.473-0.145-0.756-0.145
			h-3.306v3.782h3.306c0.278,0,0.524-0.043,0.74-0.128c0.294-0.124,0.442-0.303,0.442-0.535c0-0.238-0.147-0.419-0.442-0.544
			c-0.221-0.091-0.468-0.136-0.74-0.136h-2.711v-1.012h2.711c0.283,0,0.536-0.051,0.756-0.152
			C20.414,40.054,20.556,39.864,20.556,39.615z"/>
		<path fill="#1E1E1E" d="M29.922,40.745c0,0.855-0.274,1.563-0.824,2.125c-0.55,0.561-1.249,0.841-2.1,0.841h-1.623
			c-0.844,0-1.542-0.28-2.095-0.841c-0.553-0.562-0.829-1.27-0.829-2.125c0-0.85,0.273-1.535,0.82-2.057s1.248-0.782,2.104-0.782
			h1.623c0.861,0,1.564,0.261,2.108,0.782S29.922,39.896,29.922,40.745z M28.919,40.83c0-0.561-0.18-1.02-0.539-1.377
			c-0.36-0.356-0.82-0.535-1.382-0.535h-1.623c-0.555,0-1.013,0.179-1.373,0.535c-0.36,0.357-0.54,0.816-0.54,1.377
			c0,0.556,0.18,1.006,0.54,1.352S24.82,42.7,25.375,42.7h1.623c0.562,0,1.021-0.173,1.382-0.519
			C28.739,41.836,28.919,41.386,28.919,40.83z"/>
		<path fill="#1E1E1E" d="M35.99,38.918h-2.286v4.793h-1.003v-4.793h-2.295v-1.012h5.584V38.918z"/>
	</g>
	<g id="SMXPsX.tif">
		<g>
			<path fill="#FFFFFF" d="M26.081,32.142c3.638,0.022,7.024-0.171,10.409-0.403c1.494-0.102,2.974-0.303,4.363-0.911
				c1.604-0.703,2.562-1.917,2.822-3.658c0.196-1.306,0.173-2.624,0.067-3.93c-0.184-2.271-1.677-3.949-3.858-4.409
				c-1.819-0.384-3.664-0.627-5.519-0.724c-3.831-0.201-7.666-0.336-11.504-0.265c-3.676,0.067-7.342,0.256-10.978,0.855
				c-2.498,0.411-3.948,1.838-4.346,4.353c-0.191,1.204-0.118,2.411-0.016,3.622c0.233,2.783,1.876,4.146,4.371,4.692
				c0.707,0.155,1.438,0.245,2.162,0.265c0.58,0.017,0.708,0.25,0.677,0.771c-0.04,0.664-0.015,1.332-0.007,1.999
				c0.002,0.172-0.086,0.408,0.118,0.493c0.206,0.085,0.312-0.144,0.426-0.269c0.722-0.79,1.438-1.587,2.15-2.385
				c0.167-0.188,0.323-0.316,0.613-0.299C20.793,32.106,23.558,32.176,26.081,32.142z"/>
			<path fill-rule="evenodd" clip-rule="evenodd" fill="#7E539C" d="M26.081,32.142c-2.523,0.034-5.288-0.035-8.049-0.204
				c-0.29-0.018-0.446,0.111-0.613,0.299c-0.712,0.798-1.428,1.595-2.15,2.385c-0.114,0.125-0.22,0.354-0.426,0.269
				c-0.204-0.085-0.116-0.321-0.118-0.493c-0.008-0.667-0.033-1.335,0.007-1.999c0.031-0.521-0.097-0.754-0.677-0.771
				c-0.723-0.02-1.455-0.109-2.162-0.265c-2.494-0.547-4.137-1.909-4.371-4.692c-0.102-1.211-0.175-2.418,0.016-3.622
				c0.398-2.514,1.848-3.941,4.346-4.353c3.635-0.599,7.302-0.788,10.978-0.855c3.838-0.071,7.673,0.064,11.504,0.265
				c1.854,0.097,3.699,0.34,5.519,0.724c2.182,0.46,3.675,2.138,3.858,4.409c0.105,1.306,0.129,2.624-0.067,3.93
				c-0.261,1.741-1.218,2.955-2.822,3.658c-1.39,0.608-2.869,0.81-4.363,0.911C33.105,31.971,29.719,32.164,26.081,32.142z
				 M26.84,25.077c0,0.849,0.003,1.697-0.001,2.545c-0.002,0.324,0.076,0.607,0.391,0.758c0.309,0.146,0.604,0.095,0.812-0.179
				c0.14-0.184,0.212-0.127,0.376-0.026c1.021,0.625,2.14,0.334,2.746-0.702c0.595-1.017,0.535-2.049,0.004-3.061
				c-0.461-0.877-1.367-1.231-2.315-0.949c-0.672,0.199-0.672,0.199-0.672-0.532c0-0.102-0.004-0.202,0-0.303
				c0.021-0.464-0.138-0.837-0.646-0.841c-0.536-0.004-0.7,0.381-0.696,0.868C26.844,23.462,26.839,24.27,26.84,25.077z
				 M21.739,26.001c-0.495-1.331-0.916-2.481-1.352-3.626c-0.155-0.406-0.405-0.735-0.908-0.557
				c-0.499,0.177-0.597,0.559-0.415,1.027c0.659,1.689,1.317,3.377,1.982,5.063c0.125,0.316,0.327,0.563,0.711,0.555
				c0.353-0.007,0.546-0.231,0.667-0.527c0.207-0.503,0.401-1.011,0.6-1.518c0.471-1.2,0.945-2.398,1.408-3.601
				c0.167-0.435,0.091-0.807-0.387-0.987c-0.455-0.172-0.729,0.069-0.91,0.46c-0.076,0.164-0.133,0.336-0.197,0.506
				C22.56,23.807,22.181,24.819,21.739,26.001z M34.757,26.399c0.343,0,0.686,0.004,1.028-0.001c0.729-0.009,0.93-0.26,0.789-0.982
				c-0.25-1.291-1.354-2.15-2.601-2.026c-1.238,0.123-2.157,1.217-2.142,2.578c0.012,1.054,0.436,1.901,1.431,2.327
				c1.024,0.438,2.017,0.251,2.918-0.384c0.286-0.203,0.44-0.487,0.208-0.834c-0.204-0.303-0.474-0.34-0.789-0.169
				c-0.213,0.115-0.425,0.235-0.649,0.321c-0.619,0.238-1.363,0.017-1.608-0.457c-0.123-0.236-0.115-0.38,0.205-0.374
				C33.95,26.406,34.354,26.4,34.757,26.399z M16.693,28.415c0.509,0.005,1.105-0.485,1.277-0.972
				c0.166-0.468-0.185-0.653-0.462-0.877c-0.204-0.164-0.422-0.312-0.636-0.462c-0.428-0.3-0.819-0.324-1.139,0.16
				c-0.179,0.271-0.43,0.283-0.693,0.164c-0.723-0.328-1.282-0.834-1.609-1.569c-0.145-0.325-0.143-0.617,0.196-0.847
				c0.179-0.122,0.36-0.266,0.345-0.531c-0.019-0.347-0.861-1.506-1.193-1.628c-0.138-0.051-0.275-0.047-0.415,0
				c-0.78,0.262-1.103,0.903-0.793,1.662c0.923,2.265,2.546,3.841,4.78,4.803C16.48,28.373,16.622,28.396,16.693,28.415z
				 M37.029,25.87c0,0.626-0.01,1.251,0.004,1.877c0.009,0.391,0.214,0.672,0.612,0.702c0.427,0.031,0.688-0.226,0.731-0.643
				c0.038-0.359,0.059-0.729,0.018-1.087c-0.119-1.023,0.062-1.836,1.231-2.112c0.283-0.066,0.39-0.32,0.326-0.628
				c-0.065-0.319-0.26-0.495-0.567-0.544c-0.274-0.043-0.522,0.042-0.728,0.226c-0.146,0.129-0.227,0.231-0.399-0.014
				c-0.193-0.273-0.515-0.279-0.824-0.147c-0.3,0.127-0.409,0.362-0.406,0.675C37.033,24.74,37.029,25.305,37.029,25.87z
				 M24.899,26.119c0,0.523,0.008,1.048-0.002,1.571c-0.009,0.458,0.196,0.763,0.651,0.778c0.456,0.017,0.69-0.277,0.69-0.734
				c0.003-1.088,0.006-2.176-0.002-3.263c-0.003-0.417-0.186-0.705-0.644-0.708c-0.479-0.005-0.689,0.27-0.691,0.725
				C24.897,25.032,24.9,25.576,24.899,26.119z M15.051,21.731c-0.119,0.017-0.364-0.082-0.379,0.184
				c-0.01,0.179,0.196,0.149,0.332,0.17c1.634,0.251,2.387,1.028,2.595,2.673c0.019,0.152-0.038,0.381,0.179,0.385
				c0.227,0.004,0.172-0.221,0.174-0.373C17.971,23.221,16.62,21.784,15.051,21.731z M26.354,22.546
				c-0.038-0.451-0.292-0.71-0.724-0.757c-0.406-0.045-0.771,0.338-0.769,0.757c0.002,0.432,0.347,0.774,0.774,0.748
				C26.097,23.266,26.303,22.978,26.354,22.546z M17.146,24.493c0.008-0.96-0.815-1.835-1.824-1.956
				c-0.157-0.019-0.365-0.093-0.401,0.125c-0.038,0.229,0.193,0.206,0.342,0.239c1.009,0.226,1.36,0.593,1.526,1.593
				c0.024,0.146-0.024,0.374,0.224,0.335C17.197,24.801,17.131,24.606,17.146,24.493z M16.379,24.311
				c0.007-0.463-0.517-1-0.964-0.988c-0.105,0.002-0.208,0.014-0.247,0.126c-0.058,0.167,0.064,0.208,0.188,0.228
				c0.414,0.066,0.632,0.31,0.673,0.723c0.011,0.112,0.082,0.203,0.19,0.19C16.371,24.571,16.384,24.438,16.379,24.311z"/>
			<path fill-rule="evenodd" clip-rule="evenodd" fill="#F8F8FB" d="M26.84,25.077c-0.001-0.808,0.004-1.615-0.002-2.423
				c-0.004-0.487,0.16-0.873,0.696-0.868c0.508,0.004,0.667,0.377,0.646,0.841c-0.004,0.101,0,0.202,0,0.303
				c0,0.73,0,0.73,0.672,0.532c0.948-0.282,1.854,0.072,2.315,0.949c0.531,1.012,0.591,2.044-0.004,3.061
				c-0.606,1.036-1.725,1.327-2.746,0.702c-0.164-0.101-0.236-0.157-0.376,0.026c-0.208,0.273-0.503,0.325-0.812,0.179
				c-0.314-0.15-0.393-0.434-0.391-0.758C26.843,26.774,26.84,25.926,26.84,25.077z M30.226,25.976
				c0.01-0.758-0.416-1.337-0.993-1.353c-0.602-0.016-1.042,0.524-1.054,1.292c-0.011,0.739,0.433,1.343,0.998,1.36
				C29.769,27.294,30.217,26.739,30.226,25.976z"/>
			<path fill-rule="evenodd" clip-rule="evenodd" fill="#F8F8FB" d="M21.739,26.001c0.442-1.182,0.821-2.194,1.2-3.205
				c0.063-0.17,0.121-0.342,0.197-0.506c0.181-0.391,0.455-0.632,0.91-0.46c0.478,0.181,0.554,0.553,0.387,0.987
				c-0.463,1.203-0.938,2.401-1.408,3.601c-0.198,0.507-0.393,1.015-0.6,1.518c-0.121,0.296-0.315,0.521-0.667,0.527
				c-0.384,0.009-0.586-0.238-0.711-0.555c-0.665-1.686-1.324-3.374-1.982-5.063c-0.183-0.469-0.084-0.85,0.415-1.027
				c0.503-0.179,0.753,0.15,0.908,0.557C20.823,23.52,21.244,24.67,21.739,26.001z"/>
			<path fill-rule="evenodd" clip-rule="evenodd" fill="#F7F6FA" d="M34.757,26.4c-0.403,0-0.807,0.006-1.21-0.002
				c-0.32-0.006-0.328,0.138-0.205,0.374c0.245,0.474,0.989,0.695,1.608,0.457c0.225-0.086,0.437-0.206,0.649-0.321
				c0.315-0.171,0.585-0.134,0.789,0.169c0.232,0.347,0.078,0.631-0.208,0.834c-0.901,0.635-1.894,0.821-2.918,0.384
				c-0.995-0.426-1.419-1.272-1.431-2.327c-0.016-1.361,0.903-2.455,2.142-2.578c1.247-0.124,2.351,0.735,2.601,2.026
				c0.141,0.722-0.06,0.973-0.789,0.982C35.442,26.403,35.1,26.399,34.757,26.4z M34.164,25.481c0.12,0,0.243,0.015,0.36-0.003
				c0.222-0.034,0.576,0.134,0.64-0.116c0.083-0.329-0.188-0.595-0.491-0.744c-0.395-0.194-0.78-0.16-1.115,0.145
				c-0.181,0.164-0.381,0.37-0.292,0.613c0.083,0.224,0.354,0.074,0.538,0.103C33.921,25.498,34.044,25.482,34.164,25.481z"/>
			<path fill-rule="evenodd" clip-rule="evenodd" fill="#F8F8FB" d="M16.693,28.415c-0.071-0.02-0.213-0.042-0.341-0.097
				c-2.234-0.962-3.857-2.539-4.78-4.803c-0.309-0.759,0.014-1.4,0.793-1.662c0.14-0.047,0.277-0.051,0.415,0
				c0.332,0.122,1.174,1.281,1.193,1.628c0.015,0.266-0.166,0.41-0.345,0.531c-0.339,0.23-0.341,0.522-0.196,0.847
				c0.328,0.735,0.886,1.241,1.609,1.569c0.263,0.119,0.514,0.106,0.693-0.164c0.319-0.484,0.71-0.46,1.139-0.16
				c0.214,0.15,0.432,0.298,0.636,0.462c0.277,0.224,0.627,0.409,0.462,0.877C17.798,27.93,17.202,28.42,16.693,28.415z"/>
			<path fill-rule="evenodd" clip-rule="evenodd" fill="#F7F6FA" d="M37.029,25.87c0-0.565,0.004-1.13-0.002-1.695
				c-0.003-0.313,0.106-0.548,0.406-0.675c0.31-0.132,0.631-0.126,0.824,0.147c0.173,0.246,0.254,0.144,0.399,0.014
				c0.205-0.184,0.453-0.269,0.728-0.226c0.308,0.049,0.502,0.225,0.567,0.544c0.063,0.308-0.043,0.562-0.326,0.628
				c-1.17,0.276-1.351,1.088-1.231,2.112c0.041,0.357,0.021,0.728-0.018,1.087c-0.044,0.417-0.305,0.674-0.731,0.643
				c-0.398-0.03-0.604-0.312-0.612-0.702C37.02,27.121,37.029,26.496,37.029,25.87z"/>
			<path fill-rule="evenodd" clip-rule="evenodd" fill="#F8F8FB" d="M24.9,26.119c0-0.543-0.002-1.087,0.001-1.631
				c0.002-0.456,0.212-0.73,0.691-0.725c0.458,0.004,0.641,0.292,0.644,0.708c0.008,1.087,0.005,2.175,0.002,3.263
				c0,0.457-0.234,0.751-0.69,0.734c-0.455-0.016-0.66-0.32-0.651-0.778C24.908,27.167,24.899,26.643,24.9,26.119z"/>
			<path fill-rule="evenodd" clip-rule="evenodd" fill="#EDE7F2" d="M15.051,21.731c1.569,0.053,2.92,1.489,2.901,3.039
				c-0.002,0.152,0.053,0.377-0.174,0.373c-0.217-0.004-0.16-0.233-0.179-0.385c-0.208-1.646-0.961-2.422-2.595-2.673
				c-0.136-0.021-0.342,0.008-0.332-0.17C14.687,21.649,14.932,21.748,15.051,21.731z"/>
			<path fill-rule="evenodd" clip-rule="evenodd" fill="#F7F6FA" d="M26.354,22.546c-0.051,0.432-0.257,0.719-0.718,0.748
				c-0.427,0.026-0.772-0.316-0.774-0.748c-0.003-0.419,0.363-0.802,0.769-0.757C26.062,21.836,26.315,22.096,26.354,22.546z"/>
			<path fill-rule="evenodd" clip-rule="evenodd" fill="#EDE7F2" d="M17.146,24.493c-0.016,0.114,0.051,0.309-0.133,0.336
				c-0.248,0.038-0.2-0.189-0.224-0.335c-0.167-1-0.518-1.368-1.526-1.593c-0.149-0.033-0.38-0.01-0.342-0.239
				c0.037-0.218,0.245-0.144,0.401-0.125C16.331,22.657,17.154,23.532,17.146,24.493z"/>
			<path fill-rule="evenodd" clip-rule="evenodd" fill="#EDE7F2" d="M16.379,24.311c0.005,0.127-0.009,0.26-0.159,0.278
				c-0.108,0.013-0.18-0.078-0.19-0.19c-0.042-0.413-0.259-0.657-0.673-0.723c-0.124-0.02-0.246-0.06-0.188-0.228
				c0.039-0.112,0.142-0.124,0.247-0.126C15.863,23.311,16.387,23.847,16.379,24.311z"/>
			<path fill-rule="evenodd" clip-rule="evenodd" fill="#7E539C" d="M30.226,25.976c-0.009,0.763-0.457,1.318-1.049,1.3
				c-0.565-0.018-1.009-0.621-0.998-1.36c0.012-0.768,0.452-1.309,1.054-1.292C29.81,24.639,30.235,25.218,30.226,25.976z"/>
			<path fill-rule="evenodd" clip-rule="evenodd" fill="#7E539C" d="M34.164,25.482c-0.12,0-0.243,0.016-0.36-0.003
				c-0.185-0.029-0.455,0.121-0.538-0.103c-0.089-0.243,0.111-0.45,0.292-0.613c0.335-0.305,0.721-0.339,1.115-0.145
				c0.303,0.149,0.574,0.416,0.491,0.744c-0.063,0.25-0.418,0.082-0.64,0.116C34.407,25.497,34.284,25.481,34.164,25.482z"/>
		</g>
	</g>
</g>
</svg>
