<?xml version="1.0" encoding="utf-8"?>
<!-- Generator: Adobe Illustrator 16.0.0, SVG Export Plug-In . SVG Version: 6.00 Build 0)  -->
<!DOCTYPE svg PUBLIC "-//W3C//DTD SVG 1.1//EN" "http://www.w3.org/Graphics/SVG/1.1/DTD/svg11.dtd">
<svg version="1.1" id="Capa_1" xmlns="http://www.w3.org/2000/svg" xmlns:xlink="http://www.w3.org/1999/xlink" x="0px" y="0px"
	 width="691.246px" height="512.001px" viewBox="3 0 691.246 512.001" enable-background="new 3 0 691.246 512.001"
	 xml:space="preserve">
<g>
	<path d="M126,112.786V72.141c0-6.64,5.373-12.022,12-12.022h148c6.628,0,12,5.383,12,12.022v41.425
		c21.453,8.43,41.644,20.011,60,34.512v-87.96C358,26.915,331.137,0,298,0H126C92.863,0,66,26.915,66,60.117v86.399
		C84.394,132.301,104.58,120.977,126,112.786z"/>
	<path d="M211,127.249c-114.969,0-208,93.201-208,208.406c0,70.112,34.863,135.102,93.258,173.847
		c2.456,1.63,5.337,2.499,8.282,2.499h212.921c2.944,0,5.825-0.869,8.281-2.499C384.137,470.757,419,405.768,419,335.656
		C419,220.462,325.981,127.249,211,127.249z M195.626,368.113c5.858,5.869,5.858,15.386,0,21.255
		c-5.856,5.868-15.354,5.869-21.213,0L145,359.896v18.844c0,8.301-6.716,15.029-15,15.029s-15-6.729-15-15.029V270.528
		c0-8.3,6.716-15.028,15-15.028s15,6.729,15,15.028v18.845l29.414-29.472c5.857-5.87,15.355-5.87,21.213,0
		c5.858,5.869,5.858,15.386,0,21.254l-43.393,43.479L195.626,368.113z M307,378.74c0,8.301-6.716,15.029-15,15.029
		c-4.784,0-9.036-2.253-11.782-5.749C247.008,405.544,207,381.222,207,343.671v-38.074c0-27.624,22.431-50.098,50-50.098
		c18.81,0,35.849,10.413,44.468,27.175c3.794,7.379,0.899,16.441-6.464,20.244c-7.365,3.799-16.41,0.9-20.205-6.478
		C265.236,277.843,237,284.638,237,305.597v38.074c0,11.049,8.973,20.039,20,20.039c10.354,0,18.893-7.923,19.899-18.035H270
		c-8.283,0-15-6.729-15-15.029s6.717-15.028,15-15.028h22c8.284,0,15,6.729,15,15.028V378.74z"/>
</g>
<g>
	<g>
		<path d="M692.902,218.435c-2.426-5.36-7.758-8.774-13.629-8.774h-59.902V14.976C619.371,6.71,612.662,0,604.395,0h-59.903
			c-8.266,0-14.975,6.71-14.975,14.976v194.685h-59.903c-5.87,0-11.202,3.444-13.628,8.774c-2.455,5.362-1.497,11.621,2.366,16.056
			l104.83,119.804c2.846,3.266,6.948,5.121,11.263,5.121c4.313,0,8.414-1.887,11.261-5.121l104.83-119.804
			C694.429,230.088,695.328,223.798,692.902,218.435z"/>
	</g>
</g>
</svg>
