<?xml version="1.0" encoding="utf-8"?>
<!-- Generator: Adobe Illustrator 16.0.0, SVG Export Plug-In . SVG Version: 6.00 Build 0)  -->
<!DOCTYPE svg PUBLIC "-//W3C//DTD SVG 1.1//EN" "http://www.w3.org/Graphics/SVG/1.1/DTD/svg11.dtd">
<svg version="1.1" id="Layer_1" xmlns="http://www.w3.org/2000/svg" xmlns:xlink="http://www.w3.org/1999/xlink" x="0px" y="0px"
	 width="217.297px" height="300px" viewBox="41.351 0 217.297 300" enable-background="new 41.351 0 217.297 300"
	 xml:space="preserve" fill="#ffffff">
<g>
	<g>
		<path d="M150,0C90.091,0,41.351,48.739,41.351,108.648c0,74.348,97.229,183.497,101.369,188.106
			c3.889,4.331,10.678,4.324,14.559,0c4.14-4.609,101.369-113.758,101.369-188.106C258.647,48.739,209.909,0,150,0z M150,163.313
			c-30.142,0-54.663-24.522-54.663-54.665c0-30.142,24.522-54.663,54.663-54.663c30.142,0,54.663,24.522,54.663,54.664
			C204.663,138.791,180.141,163.313,150,163.313z"/>
	</g>
</g>
</svg>
