<?xml version="1.0" encoding="utf-8"?>
<!-- Generator: Adobe Illustrator 16.0.0, SVG Export Plug-In . SVG Version: 6.00 Build 0)  -->
<!DOCTYPE svg PUBLIC "-//W3C//DTD SVG 1.1//EN" "http://www.w3.org/Graphics/SVG/1.1/DTD/svg11.dtd">
<svg version="1.1" id="Capa_1" xmlns="http://www.w3.org/2000/svg" xmlns:xlink="http://www.w3.org/1999/xlink" x="0px" y="0px"
	 width="100px" height="99.997px" viewBox="100 100.001 100 99.997" enable-background="new 100 100.001 100 99.997"
	 xml:space="preserve">
<linearGradient id="SVGID_1_" gradientUnits="userSpaceOnUse" x1="99.9998" y1="150" x2="199.9998" y2="150">
	<stop  offset="0" style="stop-color:#47DD57"/>
	<stop  offset="1" style="stop-color:#A8E854"/>
</linearGradient>
<path fill="url(#SVGID_1_)" d="M117.58,114.845c-4.846,0-8.789,3.942-8.789,8.789c0,4.846,3.942,8.789,8.789,8.789
	s8.789-3.942,8.789-8.789S122.427,114.845,117.58,114.845z M161.915,100.001h-23.828c-4.846,0-8.789,4.138-8.789,8.984v5.859
	c0,4.846,3.942,8.789,8.789,8.789h10.701l11.056,10.86c0.846,0.846,2.112,1.086,3.192,0.635c1.096-0.452,1.809-1.522,1.809-2.707
	v-9.289c3.41-1.21,5.858-4.469,5.858-8.288v-5.859C170.703,104.139,166.76,100.001,161.915,100.001z M146.701,192.717l-8.789-26.564
	c-0.652-2.612-2.99-4.435-5.685-4.435c-2.121,0-3.739,0-5.859,0c-1.618,0-2.929-1.312-2.929-2.93s1.312-2.93,2.929-2.93
	c3.118,0,5.722,0,8.789,0c3.236,0,5.859-2.623,5.859-5.859s-2.623-5.859-5.859-5.859h-16.133l-2.063-5.547
	c-0.976-1.949-3.021-3.207-5.31-3.207c-2.618,0.026-4.978,1.882-5.616,4.403l-5.859,26.366c-0.916,3.67,1.831,7.216,5.599,7.271
	l-5.684,22.933c-0.395,1.567,0.561,3.158,2.131,3.55c1.558,0.395,3.157-0.551,3.55-2.131l2.375-9.498h24.634l2.551,7.281
	c0.868,3.461,4.291,4.985,7.106,4.26C145.57,199.039,147.485,195.86,146.701,192.717z M109.613,182.42l2.02-8.274
	c0.06-0.239,0.033-0.474,0.033-0.71c5.586,0,12.892,0,15.985,0l3.079,8.984H109.613z M182.42,114.845
	c-4.847,0-8.789,3.942-8.789,8.789s3.942,8.789,8.789,8.789c4.846,0,8.788-3.942,8.788-8.789S187.265,114.845,182.42,114.845z
	 M194.223,173.426c3.768-0.055,6.516-3.601,5.599-7.271l-5.859-26.366c-0.638-2.52-2.998-4.377-5.615-4.403
	c-2.289,0-4.335,1.259-5.311,3.207l-2.062,5.547h-16.134c-3.236,0-5.859,2.623-5.859,5.859c0,3.236,2.623,5.859,5.859,5.859
	c3.067,0,5.671,0,8.789,0c1.617,0,2.929,1.312,2.929,2.93c0,1.617-1.312,2.929-2.929,2.929c-2.121,0-3.739,0-5.859,0
	c-2.695,0-5.032,1.823-5.685,4.435l-8.789,26.564c-0.783,3.145,1.132,6.322,4.263,7.104c2.815,0.725,6.238-0.799,7.106-4.261
	l2.551-7.28h24.634l2.375,9.498c0.394,1.58,1.992,2.525,3.55,2.131c1.571-0.392,2.526-1.982,2.132-3.55L194.223,173.426z
	 M169.27,182.42l3.079-9.004c3.093,0,10.397,0,15.984,0c0,0.236-0.027,0.471,0.033,0.71l2.021,8.294H169.27z"/>
</svg>
