<?xml version="1.0" encoding="utf-8"?>
<!-- Generator: Adobe Illustrator 16.0.0, SVG Export Plug-In . SVG Version: 6.00 Build 0)  -->
<!DOCTYPE svg PUBLIC "-//W3C//DTD SVG 1.1//EN" "http://www.w3.org/Graphics/SVG/1.1/DTD/svg11.dtd">
<svg version="1.1" id="Layer_1" xmlns="http://www.w3.org/2000/svg" xmlns:xlink="http://www.w3.org/1999/xlink" x="0px" y="0px"
	 width="300px" height="300px" viewBox="0 0 300 300" enable-background="new 0 0 300 300" xml:space="preserve">
<g>
	<g>
		<path d="M150,0C67.611,0,0,67.611,0,150s67.611,150,150,150s150-67.611,150-150S232.388,0,150,0z M56.899,216.184
			C43.054,196.761,35.742,173.869,35.742,150C35.742,87,87,35.742,150,35.742c23.869,0,46.761,7.313,66.185,21.157
			c0.404,0.289,2.852,2.512,3.19,2.851l-158.5,160.959C60.536,220.369,57.188,216.589,56.899,216.184z M150,264.258
			c-23.869,0-46.761-7.313-66.184-21.157c-0.405-0.289-2.07-1.855-2.41-2.194L240.125,79.792c0.341,0.34,2.688,3.622,2.976,4.024
			c13.845,19.423,21.157,42.314,21.157,66.184C264.258,213,213,264.258,150,264.258z"/>
	</g>
</g>
<g>
	<g>
		<path d="M170.468,203.079h-36.773c-1.633,0-3.063,0.617-4.29,1.84c-1.226,1.228-1.839,2.655-1.839,4.29v36.774
			c0,1.635,0.615,3.066,1.839,4.291c1.227,1.223,2.655,1.838,4.29,1.838h36.773c1.633,0,3.067-0.614,4.288-1.838
			c1.229-1.225,1.842-2.656,1.842-4.291v-36.774c0-1.635-0.612-3.063-1.842-4.29C173.535,203.692,172.1,203.079,170.468,203.079z"/>
		<path d="M218.734,92.998c-4.188-7.716-9.601-14.225-16.241-19.538c-6.637-5.311-14.1-9.552-22.371-12.717
			c-8.273-3.164-16.496-4.748-24.668-4.748c-31.051,0-54.749,13.585-71.094,40.757c-0.815,1.327-1.098,2.757-0.843,4.29
			c0.257,1.531,1.048,2.808,2.376,3.83l25.128,19.153c1.328,0.816,2.605,1.224,3.831,1.224c1.839,0,3.421-0.818,4.751-2.453
			c7.354-9.191,12.819-15.065,16.393-17.62c4.394-2.961,9.908-4.441,16.547-4.441c6.231,0,11.72,1.635,16.472,4.9
			c4.749,3.27,7.121,7.049,7.121,11.339c0,4.799-1.274,8.682-3.828,11.645c-2.554,2.962-6.844,5.821-12.872,8.579
			c-7.966,3.575-15.272,9.117-21.909,16.626c-6.64,7.508-9.959,15.5-9.959,23.978v6.895c0,1.943,0.533,3.858,1.608,5.746
			c1.073,1.892,2.375,2.836,3.908,2.836h36.771c1.635,0,3.064-0.789,4.291-2.378c1.224-1.58,1.838-3.239,1.838-4.974
			c0-2.553,1.405-5.979,4.212-10.267c2.81-4.289,6.307-7.612,10.498-9.962c3.981-2.247,7.095-4.058,9.345-5.438
			c2.251-1.377,5.187-3.604,8.813-6.666c3.627-3.064,6.436-6.104,8.425-9.117c1.993-3.013,3.781-6.921,5.364-11.723
			c1.587-4.8,2.377-9.959,2.377-15.475C225.016,108.8,222.921,100.706,218.734,92.998z"/>
	</g>
</g>
</svg>
