<?xml version="1.0" encoding="utf-8"?>
<!-- Generator: Adobe Illustrator 16.0.0, SVG Export Plug-In . SVG Version: 6.00 Build 0)  -->
<!DOCTYPE svg PUBLIC "-//W3C//DTD SVG 1.1//EN" "http://www.w3.org/Graphics/SVG/1.1/DTD/svg11.dtd">
<svg version="1.1" id="Capa_1" xmlns="http://www.w3.org/2000/svg" xmlns:xlink="http://www.w3.org/1999/xlink" x="0px" y="0px"
	 width="96px" height="92.547px" viewBox="102 103.727 96 92.547" enable-background="new 102 103.727 96 92.547"
	 xml:space="preserve">
<linearGradient id="SVGID_1_" gradientUnits="userSpaceOnUse" x1="101.9998" y1="150" x2="198.0002" y2="150">
	<stop  offset="0" style="stop-color:#47DD57"/>
	<stop  offset="1" style="stop-color:#A8E854"/>
</linearGradient>
<path fill="url(#SVGID_1_)" d="M197.176,126.427l-20.075-19.887c-1.098-1.099-2.879-1.099-3.977,0l-5.967,5.966l23.865,23.865
	l6.153-5.967C198.275,129.305,198.275,127.525,197.176,126.427z M142.532,129.176c0.015-0.015,0.03-0.031,0.044-0.044
	C142.562,129.146,142.547,129.161,142.532,129.176z M142.518,129.19c0.004-0.004,0.009-0.009,0.014-0.014
	C142.527,129.181,142.523,129.185,142.518,129.19z M142.228,129.48c0.115-0.115,0.211-0.211,0.291-0.291
	C142.432,129.276,142.333,129.375,142.228,129.48z M142.797,128.911c0.009-0.009,0.017-0.017,0.021-0.021
	C142.813,128.895,142.806,128.901,142.797,128.911z M142.818,128.89C142.825,128.883,142.825,128.883,142.818,128.89L142.818,128.89
	z M141.895,129.813c0.043-0.043,0.084-0.084,0.125-0.125C141.978,129.73,141.936,129.771,141.895,129.813z M165.567,118.87
	c-5.903,0.933-12.827,0.098-18.973,6.245c-4.241,4.241-5.487,5.487-5.549,5.549c0.032-0.032,0.335-0.335,0.683-0.683
	c-0.951,0.951-2.622,2.623-5.396,5.396c-1.631,1.63-1.631,4.335,0,5.966c1.621,1.621,4.332,1.635,5.966,0l8.949-8.949
	c4.394-4.394,11.517-4.394,15.91,0l17.805,17.804c2.446-4.629,1.253-5.776,2.442-9.49L165.567,118.87z M142.675,129.033
	c-0.013,0.013-0.026,0.026-0.041,0.041C142.649,129.059,142.662,129.045,142.675,129.033z M142.119,129.589
	c0.033-0.034,0.066-0.066,0.097-0.097C142.184,129.524,142.152,129.556,142.119,129.589z M142.635,129.073
	c-0.019,0.019-0.038,0.038-0.059,0.059C142.597,129.111,142.616,129.091,142.635,129.073z M127.383,104.55
	c-1.098-1.098-2.878-1.098-3.977,0l-20.582,19.887c-1.099,1.099-1.099,2.879,0,3.978l6.153,5.966l24.372-23.865L127.383,104.55z
	 M124.4,149.297c-1.647-1.647-4.318-1.647-5.966,0l-9.943,9.944c-1.647,1.646-1.647,4.318,0,5.966s4.318,1.647,5.966,0l9.943-9.944
	C126.048,153.616,126.048,150.944,124.4,149.297z M134.344,159.241c-1.647-1.647-4.319-1.647-5.966,0l-9.944,9.943
	c-1.647,1.647-1.647,4.318,0,5.966c1.648,1.647,4.319,1.647,5.966,0l9.944-9.943C135.991,163.56,135.991,160.888,134.344,159.241z
	 M144.287,169.185c-1.647-1.647-4.319-1.647-5.966,0l-9.944,9.943c-1.647,1.647-1.647,4.318,0,5.967
	c1.647,1.647,4.319,1.647,5.966,0l9.944-9.944C145.935,173.503,145.935,170.832,144.287,169.185z M154.231,179.128
	c-1.647-1.647-4.318-1.647-5.966,0l-9.944,9.943c-1.647,1.647-1.647,4.319,0,5.967s4.319,1.647,5.966,0l9.944-9.943
	C155.878,183.446,155.878,180.775,154.231,179.128z M184.062,157.252L163.18,136.37c-2.196-2.196-5.758-2.196-7.954,0l-8.95,8.949
	c-3.872,3.872-10.227,3.695-13.921,0c-3.695-3.694-3.872-10.049,0-13.921l10.262-10.262c2.505-2.505,5.409-4.295,8.71-5.528
	c-5.735-2.7-9.775-1.512-13.285-1.83l-16.626,16.625l-5.966,5.966c-3.482,3.482-5.105,8.176-4.868,12.823l3.411-3.411
	c3.741-3.741,9.896-4.407,13.884-0.93c2.286,1.994,3.399,4.774,3.367,7.544c2.56-0.03,5.128,0.918,7.077,2.867
	c1.949,1.948,2.897,4.517,2.867,7.076c2.56-0.03,5.128,0.919,7.077,2.867c1.948,1.948,2.897,4.518,2.867,7.076
	c2.56-0.029,5.128,0.919,7.077,2.867c2.468,2.469,3.326,5.929,2.619,9.108c1.204,0.104,2.438-0.244,3.347-1.153
	c1.631-1.631,1.631-4.336,0-5.966l-14.915-14.916c-1.113-1.114-1.113-2.864,0-3.978c1.114-1.113,2.863-1.113,3.978,0l14.915,14.915
	c1.631,1.631,4.336,1.631,5.967,0s1.631-4.335,0-5.966l-14.916-14.915c-1.113-1.114-1.113-2.864,0-3.979
	c1.114-1.113,2.864-1.113,3.978,0l14.916,14.916c1.631,1.63,4.336,1.63,5.966,0C185.694,161.587,185.694,158.883,184.062,157.252z"
	/>
</svg>
