<?xml version="1.0" encoding="utf-8"?>
<!-- Generator: Adobe Illustrator 16.0.0, SVG Export Plug-In . SVG Version: 6.00 Build 0)  -->
<!DOCTYPE svg PUBLIC "-//W3C//DTD SVG 1.1//EN" "http://www.w3.org/Graphics/SVG/1.1/DTD/svg11.dtd">
<svg version="1.1" id="Capa_1" xmlns="http://www.w3.org/2000/svg" xmlns:xlink="http://www.w3.org/1999/xlink" x="0px" y="0px"
	 width="83px" height="96.887px" viewBox="108.501 101.558 83 96.887" enable-background="new 108.501 101.558 83 96.887"
	 xml:space="preserve">
<g>
	<g>
		<linearGradient id="SVGID_1_" gradientUnits="userSpaceOnUse" x1="108.5015" y1="125.9512" x2="157.2676" y2="125.9512">
			<stop  offset="0" style="stop-color:#47DD57"/>
			<stop  offset="1" style="stop-color:#A8E854"/>
		</linearGradient>
		<path fill="url(#SVGID_1_)" d="M132.885,150.344c13.463,0,24.383-10.919,24.383-24.383c0-13.463-10.92-24.403-24.383-24.403
			c-13.463,0-24.383,10.92-24.383,24.383S119.421,150.344,132.885,150.344z M124.367,135.589c0.222-0.807,0.444-1.595,0.686-2.402
			c0.283-0.929,0.545-1.03,1.393-0.585c1.453,0.747,2.987,1.17,4.602,1.373c1.029,0.121,2.059,0.02,3.008-0.404
			c1.797-0.788,2.079-2.866,0.565-4.118c-0.525-0.424-1.11-0.747-1.716-1.009c-1.575-0.686-3.21-1.211-4.704-2.099
			c-2.402-1.433-3.936-3.432-3.754-6.358c0.202-3.31,2.079-5.389,5.106-6.479c1.252-0.465,1.252-0.444,1.271-1.756
			c0-0.444,0-0.888,0-1.333c0.021-0.989,0.202-1.15,1.171-1.191c0.303,0,0.605,0,0.909,0c2.099,0,2.099,0,2.099,2.099
			c0,1.474,0,1.494,1.474,1.716c1.131,0.182,2.2,0.505,3.25,0.969c0.586,0.262,0.787,0.666,0.626,1.271
			c-0.263,0.909-0.505,1.817-0.808,2.705c-0.282,0.848-0.545,0.969-1.353,0.585c-1.635-0.788-3.351-1.13-5.167-1.03
			c-0.484,0.021-0.929,0.081-1.373,0.283c-1.554,0.686-1.816,2.402-0.484,3.472c0.666,0.545,1.433,0.929,2.24,1.251
			c1.373,0.565,2.766,1.13,4.098,1.857c4.179,2.321,5.309,7.569,2.362,11.142c-1.07,1.292-2.443,2.16-4.078,2.604
			c-0.706,0.202-1.029,0.565-0.989,1.292c0.041,0.727,0,1.434,0,2.16c0,0.646-0.322,0.989-0.969,1.009
			c-0.767,0.02-1.554,0.02-2.321,0c-0.687-0.021-1.009-0.404-1.009-1.07c0-0.524,0-1.049-0.021-1.574
			c-0.021-1.151-0.04-1.211-1.171-1.393c-1.433-0.222-2.826-0.545-4.138-1.191C124.185,136.922,124.084,136.66,124.367,135.589z"/>
		<linearGradient id="SVGID_2_" gradientUnits="userSpaceOnUse" x1="112.397" y1="161.3154" x2="191.502" y2="161.3154">
			<stop  offset="0" style="stop-color:#47DD57"/>
			<stop  offset="1" style="stop-color:#A8E854"/>
		</linearGradient>
		<path fill="url(#SVGID_2_)" d="M187.585,152.383h-2.847l0,0c-1.877-5.752-5.551-10.859-10.455-14.815
			c0-0.182-0.04-0.383-0.081-0.565c-1.029-3.613,0.242-6.903,1.716-9.265c1.029-1.655-0.303-3.774-2.24-3.532
			c-4.34,0.545-7.327,2.14-9.387,3.936c-1.412,1.231-2.422,2.887-2.866,4.723c-3.107,12.878-14.714,22.466-28.54,22.466
			c-6.722,0-12.898-2.261-17.843-6.055c-1.716,3.713-2.645,7.771-2.645,12.03c0,2.301,0.283,4.542,0.807,6.701l0,0
			c0,0,0,0.04,0.021,0.101c0.545,2.241,1.373,4.4,2.422,6.439c1.393,3.008,3.411,6.521,6.197,9.366
			c4.017,4.138,4.703,9.265,4.804,11.485v0.948c0,0.04,0,0.081,0,0.121c0,0.021,0,0.021,0,0.021l0,0
			c0.081,1.09,0.989,1.958,2.099,1.958h12.757c1.15,0,2.099-0.929,2.099-2.1v-3.148c1.856,0.242,3.754,0.384,5.672,0.384
			c1.515,0,2.987-0.081,4.461-0.242v3.008c0,1.15,0.929,2.099,2.1,2.099h12.797c1.15,0,2.1-0.928,2.1-2.099v-3.149
			c0.02-1.049,0.383-5.228,4.34-8.8c0.141-0.121,0.282-0.242,0.424-0.363c0.04-0.041,0.08-0.061,0.121-0.102l0,0
			c4.399-3.916,7.65-8.8,9.325-14.25h2.685c2.14,0,3.876-1.736,3.876-3.876v-9.547C191.46,154.119,189.725,152.383,187.585,152.383z
			 M171.619,153.069c-1.757,0-3.17-1.413-3.17-3.169c0-1.756,1.413-3.169,3.17-3.169c1.756,0,3.169,1.413,3.169,3.169
			C174.788,151.656,173.375,153.069,171.619,153.069z"/>
	</g>
</g>
</svg>
