<?xml version="1.0" encoding="utf-8"?>
<!-- Generator: Adobe Illustrator 16.0.0, SVG Export Plug-In . SVG Version: 6.00 Build 0)  -->
<!DOCTYPE svg PUBLIC "-//W3C//DTD SVG 1.1//EN" "http://www.w3.org/Graphics/SVG/1.1/DTD/svg11.dtd">
<svg version="1.1" id="Capa_1" xmlns="http://www.w3.org/2000/svg" xmlns:xlink="http://www.w3.org/1999/xlink" x="0px" y="0px"
	 width="108px" height="134.523px" viewBox="31.457 18.194 108 134.523" enable-background="new 31.457 18.194 108 134.523"
	 xml:space="preserve">
<linearGradient id="SVGID_1_" gradientUnits="userSpaceOnUse" x1="31.4565" y1="85.4561" x2="139.4561" y2="85.4561">
	<stop  offset="0" style="stop-color:#47DD57"/>
	<stop  offset="1" style="stop-color:#A8E854"/>
</linearGradient>
<path fill="url(#SVGID_1_)" d="M47.505,79.236l-6.546,4.088l-6.415-10.256l6.546-4.079c-1.583-4.103-2.271-8.374-2.13-12.598
	l-7.503-1.732l2.739-11.788l7.502,1.735c1.704-3.861,4.225-7.414,7.441-10.383l-4.083-6.547l10.228-6.41l4.092,6.552
	c4.088-1.579,8.383-2.281,12.583-2.118l1.739-7.507l11.792,2.714l-1.732,7.499c3.854,1.723,7.378,4.219,10.373,7.431l6.534-4.088
	l6.437,10.261l-6.565,4.074c1.577,4.088,2.291,8.382,2.133,12.593l7.491,1.732l-2.736,11.797l-7.487-1.735
	c-0.086,0.18-0.187,0.353-0.278,0.535c-1.318-1.043-2.693-2.028-4.175-2.883c-1.502-0.863-3.067-1.579-4.674-2.207
	c2.617-6.276,2.303-13.674-1.578-19.878c-6.346-10.187-19.744-13.273-29.947-6.918c-10.153,6.355-13.257,19.768-6.904,29.928
	c0.769,1.227,1.654,2.338,2.609,3.359c-2.514,2.243-4.721,4.836-6.513,7.774C48.153,79.865,47.814,79.57,47.505,79.236z
	 M135.478,93.823l3.979-0.527l-0.835-6.254l-3.978,0.532c-0.714-2.085-1.831-4.052-3.359-5.761l2.453-3.185l-5.019-3.833
	l-2.434,3.194c-2.051-1.016-4.228-1.589-6.422-1.722l-0.538-3.985l-6.254,0.851l0.522,3.978c-2.052,0.688-3.992,1.807-5.68,3.296
	c1.256,2.118,2.281,4.393,3.076,6.765c0.053-0.072,0.091-0.153,0.14-0.23c3.288-4.287,9.402-5.106,13.679-1.828
	c4.275,3.266,5.1,9.392,1.83,13.672c-3.268,4.284-9.393,5.094-13.678,1.825c-0.087-0.058-0.135-0.135-0.212-0.197
	c-0.152,2.498-0.594,4.962-1.289,7.361l0.043-0.047c2.032,1.025,4.208,1.601,6.418,1.722l0.531,3.978l6.246-0.825l-0.522-3.986
	c2.08-0.686,4.041-1.812,5.752-3.34l3.191,2.448l3.835-5.014l-3.207-2.435C134.768,98.213,135.349,96.008,135.478,93.823z
	 M103.942,113.095c-8.221,14.263-26.49,19.143-40.722,10.923c-14.249-8.216-19.147-26.489-10.93-40.722
	c8.224-14.237,26.506-19.125,40.743-10.915C107.268,80.595,112.166,98.875,103.942,113.095z M90.56,76.646
	c-11.875-6.846-27.124-2.763-33.99,9.119c-6.858,11.884-2.779,27.124,9.109,33.993c11.891,6.868,27.124,2.755,33.979-9.121
	C106.534,98.75,102.446,83.506,90.56,76.646z M45.852,139.268l12.813,7.409l9.875-17.081l-12.816-7.409L45.852,139.268z
	 M47.22,151.724c3.544,2.042,8.063,0.839,10.125-2.713l-12.833-7.404C42.461,145.153,43.676,149.687,47.22,151.724z"/>
</svg>
