<?xml version="1.0" encoding="utf-8"?>
<!-- Generator: Adobe Illustrator 16.0.0, SVG Export Plug-In . SVG Version: 6.00 Build 0)  -->
<!DOCTYPE svg PUBLIC "-//W3C//DTD SVG 1.1//EN" "http://www.w3.org/Graphics/SVG/1.1/DTD/svg11.dtd">
<svg version="1.1" id="Capa_1" xmlns="http://www.w3.org/2000/svg" xmlns:xlink="http://www.w3.org/1999/xlink" x="0px" y="0px"
	 width="101px" height="101.122px" viewBox="-27 -27.061 101 101.122" enable-background="new -27 -27.061 101 101.122"
	 xml:space="preserve">
<linearGradient id="SVGID_1_" gradientUnits="userSpaceOnUse" x1="-27" y1="23.5005" x2="74" y2="23.5005">
	<stop  offset="0" style="stop-color:#47DD57"/>
	<stop  offset="1" style="stop-color:#A8E854"/>
</linearGradient>
<path fill="url(#SVGID_1_)" d="M29.304-9.057H-5.167c-2.538,0-4.597,2.059-4.597,4.595c0,2.537,2.059,4.596,4.597,4.596h34.471
	c2.544,0,4.599-2.059,4.599-4.596C33.9-6.998,31.846-9.057,29.304-9.057z M33.9,12.774c0-2.539-2.055-4.596-4.597-4.596H-5.167
	c-2.538,0-4.597,2.059-4.597,4.596c0,2.538,2.059,4.597,4.597,4.597h34.471C31.846,17.372,33.9,15.313,33.9,12.774z M12.071,34.607
	c2.539,0,4.596-2.059,4.596-4.595c0-2.538-2.057-4.597-4.596-4.597H-5.167c-2.538,0-4.597,2.059-4.597,4.597
	s2.059,4.595,4.597,4.595H12.071z M46.768,50.242l-4.824,3.183v11.44h-59.75v-82.732h59.75V0.295l9.194-15.923v-6.837
	c0-2.539-2.06-4.596-4.598-4.596h-68.944c-2.54,0-4.596,2.059-4.596,4.596v91.931c0,2.538,2.057,4.595,4.596,4.595H46.54
	c2.543,0,4.602-2.059,4.602-4.595V44.132l-2.197,3.799C48.408,48.859,47.654,49.657,46.768,50.242z M73.946-5.773
	c-0.097-0.413-1.064-4.127-6.912-7.505c-5.85-3.375-9.55-2.359-9.959-2.232c-0.546,0.173-1.009,0.544-1.299,1.043L27.051,35.286
	c-0.181,0.313-0.285,0.66-0.307,1.018l-1.076,17.953c-0.05,0.87,0.392,1.691,1.144,2.129c0.756,0.433,1.689,0.403,2.416-0.072
	l15.01-9.908c0.299-0.193,0.547-0.458,0.728-0.767L73.692-4.125C73.98-4.625,74.068-5.21,73.946-5.773z M35.019,48.359
	c-0.763-0.618-1.631-1.2-2.562-1.74c-0.936-0.54-1.874-0.993-2.79-1.351l0.321-5.383c1.197,0.157,2.975,0.643,5.231,1.943
	c2.255,1.301,3.56,2.602,4.299,3.558L35.019,48.359z M5.044,55.846c0.151,0.922,1.215,1.208,1.928,1.506
	c0.689,0.29,1.511-0.261,2.083-0.538c3.507-1.706,8.257,0.299,12.014,0.299c2.222,0,2.222-3.445,0-3.445
	c-4.381,0-8.025-1.109-12.367-0.394c0-0.25-0.092-0.59-0.363-1.053c-0.811-1.389-1.844-1.781-2.879-1.613
	c-0.068-0.164-0.135-0.328-0.232-0.494c-0.271-0.443-0.649-0.666-1.076-0.758C5.363,47.239,6.144,45,5.35,43.187
	c-0.243-0.551-0.934-0.832-1.489-0.854c-2.302-0.086-4.278,2.33-5.758,3.782c-3.702,3.627-6.964,7.749-10.12,11.85
	c-1.356,1.761,1.641,3.474,2.975,1.742c2.796-3.633,5.76-7.158,8.948-10.457c-0.768,1.261-1.584,2.498-2.442,3.689
	c-1.226,1.896,1.702,3.509,2.976,1.742c0.303-0.465,0.688-0.797,1.109-1.082c-0.084,0.212-0.169,0.42-0.255,0.637
	c0.004,0,0.008,0.002,0.013,0.004c-0.067,0.137-0.133,0.275-0.187,0.405c-0.771,1.931,2.106,2.815,3.151,1.328
	c0.265-0.376,0.51-0.777,0.731-1.195C4.989,55.065,4.982,55.452,5.044,55.846z"/>
</svg>
