<?xml version="1.0" encoding="utf-8"?>
<!-- Generator: Adobe Illustrator 16.0.0, SVG Export Plug-In . SVG Version: 6.00 Build 0)  -->
<!DOCTYPE svg PUBLIC "-//W3C//DTD SVG 1.1//EN" "http://www.w3.org/Graphics/SVG/1.1/DTD/svg11.dtd">
<svg version="1.1" id="Capa_1" xmlns="http://www.w3.org/2000/svg" xmlns:xlink="http://www.w3.org/1999/xlink" x="0px" y="0px"
	 width="456.814px" height="438.541px" viewBox="0 9.136 456.814 438.541" enable-background="new 0 9.136 456.814 438.541"
	 xml:space="preserve">
<linearGradient id="SVGID_1_" gradientUnits="userSpaceOnUse" x1="228.4075" y1="445.4871" x2="228.4075" y2="9.0215">
	<stop  offset="0" style="stop-color:#40D650"/>
	<stop  offset="0.7641" style="stop-color:#8FE453"/>
	<stop  offset="1" style="stop-color:#A8E854"/>
</linearGradient>
<path fill="url(#SVGID_1_)" d="M441.11,252.677c10.468-11.99,15.704-26.171,15.704-42.54c0-14.848-5.432-27.692-16.259-38.549
	c-10.851-10.854-23.695-16.276-38.541-16.276h-79.082c0.76-2.664,1.521-4.948,2.282-6.853c0.753-1.901,1.811-3.999,3.138-6.281
	c1.328-2.285,2.283-3.999,2.852-5.141c3.427-6.468,6.049-11.801,7.857-15.983c1.807-4.192,3.604-9.9,5.42-17.135
	c1.813-7.229,2.711-14.465,2.711-21.696c0-4.566-0.055-8.281-0.145-11.136c-0.089-2.854-0.574-7.139-1.425-12.85
	c-0.86-5.708-2.006-10.467-3.43-14.272c-1.43-3.806-3.716-8.092-6.851-12.847c-3.144-4.764-6.947-8.613-11.425-11.563
	c-4.477-2.95-10.185-5.426-17.132-7.422c-6.954-1.999-14.801-2.997-23.562-2.997c-4.948,0-9.229,1.809-12.849,5.426
	c-3.806,3.806-7.047,8.563-9.709,14.271c-2.666,5.711-4.521,10.66-5.569,14.851c-1.049,4.187-2.238,9.994-3.565,17.415
	c-1.719,7.998-2.998,13.752-3.86,17.271c-0.854,3.521-2.523,8.136-4.997,13.845c-2.477,5.715-5.424,10.278-8.851,13.706
	c-6.28,6.28-15.891,17.701-28.837,34.261c-9.329,12.18-18.94,23.693-28.837,34.545c-9.899,10.852-17.131,16.466-21.698,16.847
	c-4.755,0.38-8.848,2.331-12.273,5.854c-3.429,3.521-5.142,7.66-5.142,12.419v183.01c0,4.949,1.809,9.182,5.424,12.703
	c3.615,3.523,7.898,5.38,12.849,5.569c6.66,0.191,21.696,4.374,45.109,12.566c14.654,4.941,26.12,8.706,34.4,11.272
	c8.278,2.564,19.849,5.328,34.684,8.281c14.851,2.948,28.553,4.429,41.11,4.429h4.855h21.7h10.274
	c25.321-0.38,44.063-7.808,56.247-22.27c11.036-13.135,15.697-30.36,13.99-51.679c7.422-7.042,12.563-15.984,15.416-26.836
	c3.229-11.604,3.229-22.74,0-33.397c8.754-11.609,12.847-24.647,12.271-39.114C445.395,268.286,443.971,261.055,441.11,252.677z
	 M100.5,191.864H18.276c-4.952,0-9.235,1.809-12.853,5.426C1.809,200.905,0,205.188,0,210.137v182.73
	c0,4.942,1.811,9.229,5.426,12.847c3.619,3.611,7.902,5.423,12.853,5.423H100.5c4.948,0,9.229-1.812,12.849-5.423
	c3.614-3.618,5.424-7.902,5.424-12.847v-182.73c0-4.949-1.811-9.231-5.424-12.849C109.73,193.672,105.449,191.864,100.5,191.864z
	 M67.665,369.308c-3.616,3.521-7.896,5.279-12.847,5.279c-5.14,0-9.471-1.76-12.99-5.279c-3.521-3.521-5.281-7.852-5.281-12.99
	c0-4.948,1.761-9.232,5.281-12.847c3.521-3.617,7.852-5.43,12.99-5.43c4.949,0,9.229,1.813,12.847,5.43
	c3.617,3.612,5.426,7.896,5.426,12.847C73.091,361.458,71.286,365.786,67.665,369.308z"/>
</svg>
