<?xml version="1.0" encoding="utf-8"?>
<!-- Generator: Adobe Illustrator 16.0.0, SVG Export Plug-In . SVG Version: 6.00 Build 0)  -->
<!DOCTYPE svg PUBLIC "-//W3C//DTD SVG 1.1//EN" "http://www.w3.org/Graphics/SVG/1.1/DTD/svg11.dtd">
<svg version="1.1" id="Capa_1" xmlns="http://www.w3.org/2000/svg" xmlns:xlink="http://www.w3.org/1999/xlink" x="0px" y="0px"
	 width="101px" height="101px" viewBox="205.5 205.5 101 101" enable-background="new 205.5 205.5 101 101" xml:space="preserve">
<linearGradient id="SVGID_1_" gradientUnits="userSpaceOnUse" x1="205.4998" y1="256.0002" x2="306.4998" y2="256.0002">
	<stop  offset="0" style="stop-color:#47DD57"/>
	<stop  offset="1" style="stop-color:#A8E854"/>
</linearGradient>
<path fill="url(#SVGID_1_)" d="M241.205,294.664v5.918h-8.877c-1.636,0-2.959,1.323-2.959,2.959s1.323,2.959,2.959,2.959h47.344
	c1.636,0,2.959-1.323,2.959-2.959s-1.323-2.959-2.959-2.959h-8.877v-5.918H241.205z M232.328,205.5
	c-1.634,0-2.959,1.324-2.959,2.959v62.336h53.262v-62.336c0-1.635-1.325-2.959-2.959-2.959H232.328z M255.133,251.977l-8.877,8.877
	c-0.578,0.578-1.335,0.867-2.092,0.867s-1.514-0.289-2.092-0.867l-5.918-5.918c-1.156-1.156-1.156-3.028,0-4.184
	s3.028-1.156,4.184,0l3.826,3.826l6.785-6.785c1.156-1.156,3.028-1.156,4.184,0S256.289,250.821,255.133,251.977z M255.133,234.223
	l-8.877,8.877c-0.578,0.578-1.335,0.867-2.092,0.867s-1.514-0.289-2.092-0.867l-5.918-5.918c-1.156-1.156-1.156-3.028,0-4.184
	s3.028-1.156,4.184,0l3.826,3.826l6.785-6.785c1.156-1.156,3.028-1.156,4.184,0S256.289,233.067,255.133,234.223z M255.133,216.469
	l-8.877,8.877c-0.578,0.578-1.335,0.867-2.092,0.867s-1.514-0.289-2.092-0.867l-5.918-5.918c-1.156-1.156-1.156-3.028,0-4.184
	s3.028-1.156,4.184,0l3.826,3.826l6.785-6.785c1.156-1.156,3.028-1.156,4.184,0S256.289,215.313,255.133,216.469z M273.754,258.762
	h-11.836c-1.636,0-2.959-1.323-2.959-2.959s1.323-2.959,2.959-2.959h11.836c1.636,0,2.959,1.323,2.959,2.959
	S275.389,258.762,273.754,258.762z M273.754,241.008h-11.836c-1.636,0-2.959-1.323-2.959-2.959s1.323-2.959,2.959-2.959h11.836
	c1.636,0,2.959,1.323,2.959,2.959S275.389,241.008,273.754,241.008z M273.754,223.254h-11.836c-1.636,0-2.959-1.323-2.959-2.959
	s1.323-2.959,2.959-2.959h11.836c1.636,0,2.959,1.323,2.959,2.959S275.389,223.254,273.754,223.254z M303.541,217.336h-14.992
	v53.459H306.5v-50.5C306.5,218.659,305.177,217.336,303.541,217.336z M208.459,288.746h95.082c1.636,0,2.959-1.323,2.959-2.959
	v-9.074h-101v9.074C205.5,287.423,206.823,288.746,208.459,288.746z M223.451,217.336h-14.992c-1.636,0-2.959,1.323-2.959,2.959
	v50.5h17.951V217.336z"/>
</svg>
