<?xml version="1.0" encoding="iso-8859-1"?>
<!-- Generator: Adobe Illustrator 21.0.0, SVG Export Plug-In . SVG Version: 6.00 Build 0)  -->
<svg xmlns="http://www.w3.org/2000/svg" xmlns:xlink="http://www.w3.org/1999/xlink" version="1.1" id="Capa_1" x="0px" y="0px" viewBox="0 0 512 512" style="enable-background:new 0 0 512 512;" xml:space="preserve" width="512" height="512">
<g>
	<path d="M165.996,512h161.907c8.291,0,15-6.709,15-15v-16.176c0.015-23.232,11.733-46.674,32.183-62.582   c27.935-21.709,42.759-42.349,45.352-63.091c2.739-21.987-5.127-35.186-12.202-42.378c-4.927-4.999-15.656-8.41-25.085-4.411   c-6.559,2.78-11.44,8.47-13.195,15.375C360.252,361.925,327.484,390,285.996,390c-49.706,0-90-40.294-90-90s40.294-90,90-90   c28.039,0,52.938,12.887,69.364,33.021c7.625,9.346,20.299,12.885,31.663,8.844c11.362-4.041,18.97-14.791,18.973-26.865   c0-52.69-85.84-75-120-75c-40.005,0-77.651,15.615-106.025,43.975c-51.639,51.667-42.698,113.674-43.784,120.073   c-0.22,43.594-0.513,105.286,15.073,185.765C152.607,506.888,158.803,512,165.996,512z"/>
	<path d="M338.474,128.251c26.971-24.062,17.397-14.841,31.985-26.913c12.843-10.203,15.255-29.059,4.819-42.187   c-10.005-12.568-29.634-14.766-42.114-4.805c-6.824,5.896-32.206,22.905-72.61,67.648c8.375-1.185,16.838-1.994,25.443-1.994   C300.615,120,319.306,122.734,338.474,128.251z"/>
	<path d="M254.428,3.075C239.985-4.25,221.352,2.02,214.16,16.493c-4.999,11.867-34.898,57.854-53.632,154.655   c14.16-13.784,30.207-24.86,47.505-33.212c12.27-15.364,24.598-29.881,37.055-43.246c13.878-36.61,16.527-38.002,22.758-51.42   C275.383,28.136,268.903,10.282,254.428,3.075z"/>
	<path d="M122.338,226.106c4.882-49.395,14.817-97.185,30.146-141.925c-0.894-13.046-1.663-26.104-1.3-39.21l0.381-14.136   C152.032,14.85,139.781,0.46,121.551,0c-16.392,0-29.546,12.832-29.956,29.194l-0.381,14.15   c-1.718,62.221,7.218,136.291,24.606,200.072C117.709,237.477,119.881,231.707,122.338,226.106z"/>
</g>















</svg>
